<svg id="arrow-circle-left" xmlns="http://www.w3.org/2000/svg" width="64.21" height="64.21" viewBox="0 0 64.21 64.21">
  <path id="Path_58" data-name="Path 58" d="M32.105,0A32.105,32.105,0,1,0,64.21,32.105,32.141,32.141,0,0,0,32.105,0Zm0,61.535a29.43,29.43,0,1,1,29.43-29.43A29.464,29.464,0,0,1,32.105,61.535Z" fill="#40a578"/>
  <path id="Path_59" data-name="Path 59" d="M36.757,19.878H8.922a3.947,3.947,0,0,1,.768-1.319c.712-.805,1.41-1.57,1.918-2.079l7.566-7.7A1.338,1.338,0,1,0,17.266,6.9L9.708,14.594c-.53.53-1.271,1.338-2.023,2.188a6.684,6.684,0,0,0,0,8.861c.754.851,1.5,1.661,2.015,2.18l7.566,7.7a1.326,1.326,0,0,0,.952.4,1.338,1.338,0,0,0,.955-2.277L11.6,25.937c-.5-.5-1.2-1.265-1.913-2.071a3.939,3.939,0,0,1-.765-1.319H36.757a1.338,1.338,0,0,0,0-2.675Z" transform="translate(10.063 10.89)" fill="#40a578"/>
</svg>
