<svg xmlns="http://www.w3.org/2000/svg" width="1919.503" height="1937.162" viewBox="0 0 1919.503 1937.162">
  <g id="CZD-icon_Grey" data-name="CZD-icon Grey" transform="translate(-1.541 -1.073)" opacity="0.15">
    <g id="Group_1" data-name="Group 1" transform="translate(1.541 1.073)">
      <path id="Path_1" data-name="Path 1" d="M1881.362,1111.082a39.381,39.381,0,0,0-38.654,31.772c-80.739,407.976-441.332,716.471-872.576,716.471-490.6,0-889.659-399.152-889.659-889.659S479.511,79.987,970.113,79.987c431.263,0,791.761,308.495,872.576,716.377a39.4,39.4,0,0,0,38.654,31.753h0a39.586,39.586,0,0,0,38.729-47.422C1829.9,325.844,1420.1-15.308,935.513,1.681,431.354,19.329,22,426.929,2.3,931.012-19.273,1482.63,423.19,1938.235,970.113,1938.235c469.615,0,862.319-336.062,950.185-780.354,4.789-24.267-14.123-46.78-38.861-46.78h-.076Z" transform="translate(-1.541 -1.073)" fill="#d1d3d4"/>
    </g>
    <g id="Group_2" data-name="Group 2" transform="translate(162.909 162.443)">
      <path id="Path_2" data-name="Path 2" d="M817.284,1624.02C372.2,1624.02,10.1,1261.919,10.1,816.835S372.2,9.631,817.284,9.631s807.185,362.1,807.185,807.185S1262.368,1624.02,817.284,1624.02Zm0-1535.46c-401.566,0-728.275,326.691-728.275,728.275S415.7,1545.11,817.284,1545.11s728.275-326.69,728.275-728.275S1218.85,88.56,817.284,88.56Z" transform="translate(-10.099 -9.631)" fill="#f1f2f2"/>
    </g>
    <g id="Group_3" data-name="Group 3" transform="translate(324.274 323.827)">
      <path id="Path_3" data-name="Path 3" d="M664.477,1309.83c-356.1,0-645.82-289.715-645.82-645.82S308.372,18.19,664.477,18.19,1310.3,307.9,1310.3,664.01,1020.582,1309.83,664.477,1309.83Zm0-1212.73c-312.587,0-566.91,254.323-566.91,566.91s254.3,566.91,566.91,566.91,566.91-254.323,566.91-566.91C1231.386,351.4,977.063,97.1,664.477,97.1Z" transform="translate(-18.657 -18.19)" fill="#d1d3d4"/>
    </g>
    <g id="Group_4" data-name="Group 4" transform="translate(485.639 485.192)">
      <path id="Path_4" data-name="Path 4" d="M511.669,995.657c-267.126,0-484.454-217.329-484.454-484.454S244.544,26.748,511.669,26.748,996.124,244.077,996.124,511.2,778.8,995.657,511.669,995.657Zm0-890c-223.607,0-405.544,181.918-405.544,405.544S288.043,916.747,511.669,916.747c223.607,0,405.544-181.918,405.544-405.544S735.277,105.658,511.669,105.658Z" transform="translate(-27.215 -26.748)" fill="#f1f2f2"/>
    </g>
    <g id="Group_5" data-name="Group 5" transform="translate(647.005 646.557)">
      <path id="Path_5" data-name="Path 5" d="M358.862,681.484c-178.147,0-323.089-144.942-323.089-323.089S180.715,35.306,358.862,35.306,681.951,180.248,681.951,358.4,537.009,681.484,358.862,681.484Zm0-567.268c-134.628,0-244.16,109.532-244.16,244.179s109.532,244.16,244.16,244.16S603.041,493.023,603.041,358.4,493.49,114.216,358.862,114.216Z" transform="translate(-35.773 -35.306)" fill="#d1d3d4"/>
    </g>
    <g id="Group_6" data-name="Group 6" transform="translate(808.37 807.923)">
      <path id="Path_6" data-name="Path 6" d="M206.055,367.311c-89.168,0-161.724-72.537-161.724-161.724S116.868,43.864,206.055,43.864c89.168,0,161.724,72.537,161.724,161.724S295.222,367.311,206.055,367.311Zm0-244.537a82.813,82.813,0,1,0,82.813,82.813A82.9,82.9,0,0,0,206.055,122.774Z" transform="translate(-44.331 -43.864)" fill="#f1f2f2"/>
    </g>
  </g>
</svg>
