<?xml version="1.0" encoding="utf-8"?>
<!-- Generator: Adobe Illustrator 26.4.1, SVG Export Plug-In . SVG Version: 6.00 Build 0)  -->
<svg version="1.1" id="Layer_1" xmlns="http://www.w3.org/2000/svg" xmlns:xlink="http://www.w3.org/1999/xlink" x="0px" y="0px"
	 viewBox="0 0 113.386 113.386" style="enable-background:new 0 0 113.386 113.386;" xml:space="preserve">
<style type="text/css">
	.st0{fill:#40A578;}
	.st1{fill:#9DDE8B;}
	.st2{fill:#FEFEFE;}
	.st3{fill:#E1E1E1;}
	.st4{fill:none;}
	.st5{fill:#030304;}
	.st6{fill:#030405;}
	.st7{fill:#010303;}
	.st8{fill:#010202;}
	.st9{fill:#FCFCFC;}
	.st10{fill:#FBFBFB;}
	.st11{fill:#FAFAFA;}
	.st12{fill:#D5D3D6;}
	.st13{fill:#817A83;}
	.st14{fill:#040404;}
	.st15{fill:#030303;}
	.st16{fill:#040506;}
	.st17{fill:#020202;}
	.st18{fill:#030404;}
	.st19{fill:#060708;}
	.st20{fill:#020102;}
	.st21{fill:#020303;}
	.st22{fill:#050606;}
	.st23{fill:#F7F5F5;}
	.st24{fill:#5D5B68;}
	.st25{fill:#54525E;}
	.st26{fill:#52505C;}
	.st27{fill:#221F27;}
	.st28{fill:#221F28;}
	.st29{fill:#010101;}
	.st30{fill:#BBE973;}
	.st31{fill:#98D43B;}
	.st32{fill:#BBE972;}
	.st33{fill:#D9DCE5;}
	.st34{fill:#1B97A6;}
</style>
<g>
	<g>
		<path d="M97.767,68.494c-1.438,5.667-6.177,9.983-11.777,10.706c-6.007,0.776-11.619-2.052-14.515-7.313
			c-0.077-0.141-0.159-0.279-0.272-0.476c-1.319,1.269-2.93,1.47-4.647,1.458c-4.937-0.034-9.875-0.02-14.813-0.008
			c-2.003,0.005-3.624-0.696-4.746-2.407c-0.086-0.131-0.195-0.268-0.328-0.344c-1.095-0.627-2.199-1.241-3.365-1.896
			c-0.523,2.118-1.397,3.998-2.695,5.676c-3.452,4.463-9.435,6.456-14.914,4.953c-5.501-1.509-9.63-6.241-10.325-11.832
			c-1.161-9.334,6.544-17.077,15.897-15.955c1.89,0.227,3.666,0.844,5.31,1.816c1.188,0.702,1.283,0.927,0.949,2.205
			c-0.641,0.38-1.26,0.48-1.951,0.047c-2.047-1.285-4.295-1.774-6.706-1.707c-5.841,0.162-10.932,5.181-11.206,11.027
			c-0.344,7.333,5.903,13.134,12.957,12.38c4.897-0.523,8.993-3.992,10.228-8.814c0.188-0.735,0.179-1.233-0.623-1.531
			c-0.424-0.158-0.814-0.421-1.202-0.663c-0.472-0.295-0.585-0.186-0.657,0.369c-0.593,4.57-4.35,7.973-8.853,7.974
			c-5.73,0.001-9.847-5.13-8.968-10.54c0.923-5.68,7.468-9.208,12.63-6.681c0.899,0.44,1.091,0.869,0.844,1.888
			c-0.574,0.624-1.197,0.631-1.965,0.309c-2.414-1.01-4.726-0.74-6.756,0.917c-1.995,1.629-2.768,3.791-2.306,6.347
			c0.661,3.658,4.432,6.021,8.036,5.11c3.904-0.987,5.872-5.239,4.587-8.36c-0.247-0.601-0.198-1.215,0.059-1.81
			c0.104-0.242,0.292-0.462,0.181-0.755c0.481-0.175,0.596-0.646,0.773-1.033c0.635-1.393,1.662-2.124,3.219-2.041
			c1.384,0.777,2.772,1.546,4.149,2.336c0.262,0.15,0.419,0.131,0.616-0.096c0.9-1.041,1.797-2.086,2.732-3.096
			c0.439-0.474-0.022-0.576-0.252-0.753c-4.237-3.251-8.479-6.496-12.72-9.741c-3.063-2.344-6.126-4.689-9.192-7.028
			c-0.533-0.407-1.046-0.827-0.803-1.599c0.249-0.792,0.894-0.904,1.62-0.899c2.376,0.014,4.751,0.007,7.127,0.005
			c2.246-0.002,4.083,0.837,5.472,2.626c0.695,0.895,1.427,1.761,2.12,2.657c0.64,0.828,1.445,1.237,2.506,1.216
			c1.565-0.032,3.132-0.024,4.697,0.002c0.44,0.007,0.767-0.138,1.093-0.408c0.831-0.688,1.686-1.347,2.522-2.029
			c1.91-1.56,4.074-2.538,6.544-2.686c2.45-0.147,4.915-0.242,7.357,0.043c2.834,0.331,5.042,2.608,5.366,5.446
			c0.084,0.739,0.292,0.972,1.06,0.942c1.779-0.07,3.563-0.018,5.344-0.023c1.585-0.004,2.128-0.849,1.545-2.316
			c-0.153-0.385-0.362-0.458-0.724-0.451c-0.999,0.018-1.998,0.016-2.996,0.003c-0.858-0.011-1.334-0.437-1.347-1.169
			c-0.012-0.723,0.47-1.219,1.293-1.25c0.859-0.032,1.72-0.007,2.677-0.007c-0.414-1.109-0.803-2.134-1.181-3.163
			c-0.489-1.331-0.003-2.015,1.431-2.022c0.648-0.003,1.296-0.008,1.944,0.001c1.425,0.021,2.56,0.604,3.331,1.811
			c2.163,3.382,4.333,6.76,6.458,10.165c1.209,1.937,0.687,3.867-1.415,5.484c0.278,0.283,0.669,0.299,0.994,0.439
			c4.908,2.123,7.84,5.808,8.785,11.072C98.024,63.149,98.394,65.678,97.767,68.494z M82.523,57.509
			c0.362,1.04,0.743,2.075,1.08,3.123c0.157,0.488,0.386,0.709,0.944,0.772c2.092,0.236,3.579,2.348,3.165,4.396
			c-0.34,1.681-1.537,2.836-3.205,3.094c-1.563,0.242-3.093-0.519-3.87-1.924c-0.802-1.45-0.597-3.137,0.553-4.42
			c0.199-0.222,0.427-0.39,0.282-0.754c-0.298-0.743-0.563-1.499-0.849-2.269c-0.14,0.068-0.243,0.104-0.331,0.162
			c-2.602,1.703-3.614,5.193-2.348,8.086c1.278,2.921,4.569,4.559,7.611,3.724c2.834-0.779,4.468-2.687,4.938-5.571
			c0.4-2.448-0.895-5.075-3.176-6.437c-0.709-0.423-1.128-0.905-0.87-1.765c0.686-0.819,1.104-0.899,2.011-0.386
			c3.951,2.233,5.588,7.15,3.78,11.351c-1.807,4.2-6.492,6.414-10.833,5.057c-3.542-1.107-5.719-3.559-6.316-7.187
			c-0.546-3.318,0.537-6.194,3.155-8.376c1.583-1.32,1.602-1.268,0.732-3.201c-0.188-0.418-0.359-0.369-0.651-0.187
			c-2.384,1.483-3.974,3.53-4.465,6.34c-0.278,1.59-0.574,3.18-0.754,4.783c-0.132,1.175-0.584,2.311-0.087,3.564
			c1.744,4.398,6.489,7.903,12.198,7.337c5.719-0.567,10.459-5.613,10.513-11.364c0.035-3.722-1.329-6.853-4.162-9.273
			c-2.868-2.449-6.216-3.201-9.907-2.576c-0.447,0.076-0.521,0.238-0.357,0.65C81.73,55.334,82.119,56.424,82.523,57.509z
			 M49.988,65.409c-0.118,0.063-0.242,0.116-0.352,0.19c-1.849,1.245-1.836,1.239-0.777,3.224c0.547,1.025,1.377,1.597,2.525,1.601
			c5.398,0.017,10.796,0.027,16.194-0.005c1.626-0.01,2.624-1.07,2.727-2.705c0.324-1.993,0.676-3.982,0.966-5.98
			c0.751-5.181,3.58-8.599,8.579-10.186c2.258-0.717,4.533-1.381,6.791-2.096c1.133-0.359,1.502-1.229,0.899-2.19
			c-2.107-3.356-4.247-6.691-6.373-10.035c-0.279-0.44-0.674-0.68-1.191-0.74c-0.529-0.061-0.759,0.039-0.515,0.647
			c0.57,1.425,1.094,2.868,1.625,4.308c1.07,2.902-0.655,5.396-3.738,5.415c-1.699,0.011-3.397,0.025-5.096,0.037
			c-3.449-0.012-6.903,0.082-10.346-0.07c-2.421-0.107-4.486,0.436-6.33,2.037c-1.072,0.931-1.144,0.848-0.291,1.982
			c0.807,1.072,0.864,1.139,1.873,0.283c1.398-1.187,2.935-1.588,4.76-1.534c3.446,0.101,6.897,0.008,10.346-0.004
			c0.941,0.317,1.328,0.776,1.218,1.442c-0.115,0.694-0.612,1.02-1.585,1.021c-3.18,0.003-6.363,0.085-9.539-0.033
			c-1.635-0.061-2.971,0.318-4.209,1.376c-0.505,0.432-0.5,0.652-0.13,1.122c0.948,1.207,1.856,2.446,2.767,3.682
			c0.971,1.317,1.27,2.789,0.833,4.361c-0.554,1.992-1.884,3.259-3.898,3.674c-2.055,0.424-3.784-0.265-5.07-1.917
			c-0.345-0.443-0.551-0.521-0.983-0.158C51.135,64.607,50.55,64.995,49.988,65.409z M29.115,39.057
			c0.391,0.312,0.577,0.465,0.768,0.611c3.963,3.032,7.928,6.063,11.891,9.096c3.621,2.77,7.238,5.544,10.864,8.308
			c0.226,0.173,0.433,0.543,0.817,0.227c0.776-0.639,1.687-0.987,2.688-1.161c-0.06-0.138-0.078-0.22-0.124-0.281
			c-2.475-3.302-4.956-6.6-7.424-9.908c-0.242-0.325-0.527-0.399-0.902-0.396c-1.484,0.014-2.969-0.019-4.453,0.012
			c-1.805,0.038-3.243-0.652-4.359-2.056c-0.789-0.992-1.581-1.983-2.385-2.963c-0.622-0.757-1.413-1.246-2.395-1.379
			C32.521,38.954,30.937,39.126,29.115,39.057z M63.663,44.425c1.403,0,2.806-0.019,4.209,0.01c0.526,0.011,0.625-0.144,0.546-0.656
			c-0.301-1.928-1.874-3.35-3.934-3.399c-1.861-0.044-3.724-0.039-5.584,0.005c-2.022,0.048-3.863,0.681-5.472,1.928
			c-0.81,0.628-1.595,1.288-2.409,1.91c-0.315,0.241-0.409,0.422-0.127,0.774c0.608,0.756,1.186,1.537,1.748,2.329
			c0.241,0.339,0.432,0.389,0.776,0.127c0.772-0.588,1.581-1.126,2.362-1.703c1.215-0.897,2.584-1.311,4.081-1.322
			C61.127,44.418,62.395,44.426,63.663,44.425z M47.063,64.356c-0.244-0.141-0.473-0.278-0.705-0.408
			c-2.138-1.192-4.294-2.354-6.404-3.593c-0.633-0.372-0.869-0.263-1.191,0.351c-0.881,1.682-0.91,1.668,0.759,2.602
			c1.965,1.099,3.931,2.197,5.91,3.303C45.763,65.5,45.769,65.492,47.063,64.356z M56.669,58.579
			c-1.489,0.016-2.67,1.218-2.648,2.695c0.022,1.471,1.253,2.678,2.708,2.656c1.467-0.022,2.666-1.251,2.649-2.716
			C59.359,59.731,58.159,58.563,56.669,58.579z M51.819,59.664c-0.008-0.021-0.019-0.149-0.088-0.203
			c-0.654-0.516-1.318-1.019-1.98-1.525c-0.182-0.139-0.293-0.01-0.402,0.113c-0.836,0.947-1.666,1.9-2.511,2.84
			c-0.244,0.272-0.221,0.434,0.105,0.607c0.688,0.365,1.36,0.758,2.044,1.132c0.134,0.074,0.266,0.154,0.448,0.112
			C50.478,62.499,51.817,60.828,51.819,59.664z M83.95,66.52c0.747,0.002,1.398-0.64,1.401-1.381
			c0.003-0.758-0.622-1.359-1.403-1.349c-0.759,0.01-1.324,0.562-1.341,1.312C82.59,65.865,83.208,66.518,83.95,66.52z"/>
		<path class="st3" d="M39.849,57.513c-1.557-0.083-2.585,0.648-3.219,2.041c-0.176,0.387-0.292,0.857-0.773,1.033
			c-0.629-0.569-1.132-1.269-1.835-1.759c0.247-1.019,0.055-1.448-0.844-1.888c-5.162-2.527-11.707,1.001-12.63,6.681
			c-0.879,5.41,3.238,10.542,8.968,10.54c4.504-0.001,8.26-3.405,8.853-7.974c0.072-0.555,0.184-0.664,0.657-0.369
			c0.388,0.243,0.777,0.505,1.202,0.663c0.802,0.298,0.811,0.796,0.623,1.531c-1.235,4.822-5.33,8.29-10.228,8.814
			c-7.054,0.754-13.301-5.047-12.957-12.38c0.274-5.846,5.365-10.865,11.206-11.027c2.412-0.067,4.659,0.422,6.706,1.707
			c0.69,0.433,1.31,0.333,1.951-0.047C38.481,55.72,39.272,56.514,39.849,57.513z"/>
		<path class="st1" d="M72.251,46.894c1.699-0.013,3.397-0.027,5.096-0.037c3.083-0.019,4.809-2.514,3.738-5.415
			c-0.531-1.44-1.055-2.883-1.625-4.308c-0.243-0.609-0.014-0.709,0.515-0.647c0.516,0.06,0.911,0.3,1.191,0.74
			c2.126,3.344,4.266,6.679,6.373,10.035c0.603,0.96,0.234,1.831-0.899,2.19c-2.258,0.715-4.533,1.379-6.791,2.096
			c-4.999,1.587-7.828,5.005-8.579,10.186c-0.289,1.998-0.642,3.987-0.966,5.98c-5.748,0-11.497-0.005-17.245,0.006
			c-1.134,0.002-1.953-0.47-2.508-1.447c-0.169-0.299-0.227-0.673-0.564-0.864c0.562-0.414,1.147-0.802,1.68-1.251
			c0.432-0.364,0.638-0.285,0.983,0.158c1.287,1.652,3.015,2.341,5.07,1.917c2.014-0.416,3.344-1.683,3.898-3.674
			c0.437-1.572,0.138-3.043-0.833-4.361c-0.911-1.236-1.819-2.475-2.767-3.682c-0.37-0.47-0.375-0.69,0.13-1.122
			c1.237-1.058,2.573-1.437,4.209-1.376c3.176,0.118,6.359,0.036,9.539,0.033c0.974-0.001,1.471-0.327,1.585-1.021
			c0.11-0.666-0.277-1.125-1.218-1.442C72.26,48.689,72.255,47.792,72.251,46.894z"/>
		<path class="st3" d="M82.523,57.509c-0.404-1.084-0.793-2.175-1.221-3.25c-0.164-0.412-0.09-0.574,0.357-0.65
			c3.691-0.625,7.039,0.126,9.907,2.576c2.834,2.42,4.198,5.551,4.162,9.273c-0.055,5.751-4.795,10.797-10.513,11.364
			c-5.708,0.566-10.453-2.939-12.198-7.337c-0.497-1.253-0.045-2.389,0.087-3.564c0.181-1.602,0.476-3.193,0.754-4.783
			c0.491-2.81,2.081-4.857,4.465-6.34c0.292-0.182,0.463-0.23,0.651,0.187c0.87,1.933,0.851,1.882-0.732,3.201
			c-2.617,2.182-3.701,5.059-3.155,8.376c0.598,3.628,2.774,6.08,6.316,7.187c4.341,1.357,9.026-0.857,10.833-5.057
			c1.808-4.202,0.171-9.118-3.78-11.351c-0.907-0.513-1.325-0.433-2.011,0.386C85.155,57.379,83.854,57.177,82.523,57.509z"/>
		<path class="st0" d="M29.115,39.057c1.822,0.07,3.406-0.103,4.984,0.11c0.982,0.133,1.773,0.622,2.395,1.379
			c0.804,0.98,1.596,1.971,2.385,2.963c1.116,1.404,2.554,2.094,4.359,2.056c1.484-0.031,2.968,0.002,4.453-0.012
			c0.376-0.004,0.66,0.071,0.902,0.396c2.468,3.308,4.949,6.606,7.424,9.908c0.046,0.061,0.065,0.144,0.124,0.281
			c-1.001,0.174-1.912,0.522-2.688,1.161c-0.384,0.316-0.59-0.055-0.817-0.227c-3.626-2.763-7.243-5.537-10.864-8.308
			c-3.963-3.033-7.928-6.064-11.891-9.096C29.692,39.522,29.506,39.368,29.115,39.057z"/>
		<path class="st10" d="M34.022,58.828c0.704,0.491,1.207,1.191,1.835,1.759c0.111,0.293-0.077,0.513-0.181,0.755
			c-0.257,0.595-0.306,1.209-0.059,1.81c1.285,3.12-0.682,7.373-4.587,8.36c-3.604,0.911-7.375-1.452-8.036-5.11
			c-0.462-2.556,0.311-4.718,2.306-6.347c2.03-1.657,4.342-1.926,6.756-0.917C32.825,59.458,33.448,59.451,34.022,58.828z
			 M33.228,65.149c0.004-2.121-1.667-3.801-3.788-3.805c-2.109-0.005-3.82,1.688-3.826,3.785c-0.005,2.081,1.722,3.818,3.805,3.827
			C31.509,68.964,33.224,67.25,33.228,65.149z"/>
		<path class="st11" d="M82.523,57.509c1.331-0.332,2.632-0.13,3.924,0.218c-0.258,0.859,0.16,1.341,0.87,1.765
			c2.28,1.362,3.575,3.989,3.176,6.437c-0.471,2.884-2.105,4.793-4.938,5.571c-3.042,0.836-6.333-0.803-7.611-3.724
			c-1.266-2.893-0.254-6.383,2.348-8.086c0.088-0.058,0.191-0.094,0.331-0.162c0.286,0.77,0.551,1.525,0.849,2.269
			c0.146,0.364-0.082,0.531-0.282,0.754c-1.149,1.283-1.355,2.97-0.553,4.42c0.777,1.405,2.307,2.166,3.87,1.924
			c1.669-0.258,2.866-1.413,3.205-3.094c0.414-2.048-1.073-4.16-3.165-4.396c-0.559-0.063-0.788-0.285-0.944-0.772
			C83.266,59.584,82.886,58.549,82.523,57.509z"/>
		<path class="st1" d="M63.663,44.425c-1.268,0-2.536-0.007-3.804,0.002c-1.497,0.011-2.866,0.425-4.081,1.322
			c-0.781,0.576-1.59,1.115-2.362,1.703c-0.344,0.262-0.535,0.213-0.776-0.127c-0.562-0.792-1.14-1.573-1.748-2.329
			c-0.283-0.351-0.188-0.533,0.127-0.774c0.814-0.622,1.599-1.283,2.409-1.91c1.609-1.246,3.449-1.88,5.472-1.928
			c1.861-0.044,3.724-0.049,5.584-0.005c2.06,0.049,3.633,1.471,3.934,3.399c0.08,0.511-0.02,0.667-0.546,0.656
			C66.47,44.405,65.066,44.425,63.663,44.425z"/>
		<path class="st0" d="M49.988,65.409c0.336,0.19,0.394,0.565,0.564,0.864c0.554,0.977,1.374,1.449,2.508,1.447
			c5.748-0.012,11.497-0.006,17.245-0.006c-0.103,1.635-1.101,2.695-2.727,2.705c-5.398,0.032-10.796,0.022-16.194,0.005
			c-1.148-0.004-1.978-0.575-2.525-1.601c-1.059-1.985-1.072-1.979,0.777-3.224C49.746,65.525,49.871,65.472,49.988,65.409z"/>
		<path class="st3" d="M72.251,46.894c0.004,0.898,0.009,1.795,0.014,2.693c-3.449,0.012-6.901,0.106-10.346,0.004
			c-1.826-0.054-3.362,0.347-4.76,1.534c-1.01,0.857-1.067,0.79-1.873-0.283c-0.854-1.135-0.781-1.051,0.291-1.982
			c1.844-1.601,3.909-2.144,6.33-2.037C65.347,46.976,68.801,46.882,72.251,46.894z"/>
		<path class="st12" d="M47.063,64.356c-1.294,1.136-1.3,1.145-1.631,2.255c-1.979-1.106-3.945-2.203-5.91-3.303
			c-1.668-0.933-1.639-0.919-0.759-2.602c0.321-0.614,0.557-0.723,1.191-0.351c2.11,1.239,4.266,2.401,6.404,3.593
			C46.591,64.078,46.819,64.214,47.063,64.356z"/>
		<path class="st3" d="M56.669,58.579c1.49-0.016,2.69,1.152,2.708,2.635c0.018,1.464-1.181,2.693-2.649,2.716
			c-1.455,0.022-2.685-1.185-2.708-2.656C53.999,59.797,55.181,58.595,56.669,58.579z"/>
		<path class="st3" d="M51.819,59.664c-0.002,1.165-1.341,2.835-2.385,3.076c-0.182,0.042-0.313-0.039-0.448-0.112
			c-0.683-0.374-1.356-0.767-2.044-1.132c-0.326-0.173-0.349-0.335-0.105-0.607c0.845-0.94,1.675-1.892,2.511-2.84
			c0.109-0.124,0.22-0.253,0.402-0.113c0.662,0.506,1.326,1.009,1.98,1.525C51.8,59.515,51.811,59.643,51.819,59.664z"/>
		<path class="st13" d="M83.95,66.52c-0.741-0.002-1.36-0.655-1.343-1.418c0.017-0.75,0.581-1.302,1.341-1.312
			c0.781-0.01,1.405,0.591,1.403,1.349C85.348,65.879,84.697,66.521,83.95,66.52z"/>
		<path class="st14" d="M33.228,65.149c-0.004,2.101-1.719,3.815-3.808,3.806c-2.083-0.009-3.81-1.746-3.805-3.827
			c0.005-2.097,1.716-3.79,3.826-3.785C31.561,61.348,33.233,63.028,33.228,65.149z M30.793,65.104
			c-0.015-0.779-0.621-1.341-1.418-1.314c-0.741,0.025-1.325,0.617-1.325,1.345c0,0.74,0.65,1.383,1.397,1.384
			C30.187,66.52,30.807,65.869,30.793,65.104z"/>
		<path class="st13" d="M30.793,65.104c0.015,0.764-0.605,1.416-1.346,1.415c-0.747-0.001-1.397-0.645-1.397-1.384
			c0-0.727,0.584-1.32,1.325-1.345C30.171,63.764,30.777,64.325,30.793,65.104z"/>
	</g>
	<rect x="0" y="0" class="st4" width="113.386" height="113.386"/>
</g>
</svg>
