<?xml version="1.0" encoding="utf-8"?>
<!-- Generator: Adobe Illustrator 26.4.1, SVG Export Plug-In . SVG Version: 6.00 Build 0)  -->
<svg version="1.1" id="Layer_1" xmlns="http://www.w3.org/2000/svg" xmlns:xlink="http://www.w3.org/1999/xlink" x="0px" y="0px"
	 viewBox="0 0 113.386 113.386" style="enable-background:new 0 0 113.386 113.386;" xml:space="preserve">
<style type="text/css">
	.st0{fill:#40A578;}
	.st1{fill:#9DDE8B;}
	.st2{fill:#FEFEFE;}
	.st3{fill:#E1E1E1;}
	.st4{fill:none;}
	.st5{fill:#030304;}
	.st6{fill:#030405;}
	.st7{fill:#010303;}
	.st8{fill:#010202;}
	.st9{fill:#FCFCFC;}
	.st10{fill:#FBFBFB;}
	.st11{fill:#FAFAFA;}
	.st12{fill:#D5D3D6;}
	.st13{fill:#817A83;}
	.st14{fill:#040404;}
	.st15{fill:#030303;}
	.st16{fill:#040506;}
	.st17{fill:#020202;}
	.st18{fill:#030404;}
	.st19{fill:#060708;}
	.st20{fill:#020102;}
	.st21{fill:#020303;}
	.st22{fill:#050606;}
	.st23{fill:#F7F5F5;}
	.st24{fill:#5D5B68;}
	.st25{fill:#54525E;}
	.st26{fill:#52505C;}
	.st27{fill:#221F27;}
	.st28{fill:#221F28;}
	.st29{fill:#010101;}
	.st30{fill:#BBE973;}
	.st31{fill:#98D43B;}
	.st32{fill:#BBE972;}
	.st33{fill:#D9DCE5;}
	.st34{fill:#1B97A6;}
</style>
<g>
	<rect y="0" class="st4" width="113.386" height="113.386"/>
	<g>
		<path class="st1" d="M88.855,60.366c-1.332-0.212-2.671-0.388-3.994-0.645c-2.97-0.577-5.888-1.309-8.511-2.917
			c-1.449-0.888-2.102-2.176-2.102-3.84c0.001-4.029-0.005-8.058,0.003-12.087c0.003-1.636,0.871-2.491,2.503-2.495
			c3.499-0.008,6.998-0.011,10.497-0.016c0.112-0.839-0.206-1.617-0.341-2.421c-0.211-0.015-0.422-0.042-0.633-0.042
			c-21.957-0.002-43.914-0.003-65.871,0c-1.582,0-2.084,0.517-2.085,2.105c-0.001,8.458-0.001,16.917,0.001,25.375
			c0,0.424,0.016,0.848,0.025,1.271c3.355,0.014,6.711,0.029,10.067,0.043c0.978-0.323,1.952-0.482,2.923-0.483v0.605h48.5v-0.318
			c1.7-0.443,3.411-0.374,5.131,0.198c0.609-0.013,1.217-0.025,1.826-0.039c1.339-0.03,2.056-0.748,2.061-2.07
			C88.859,61.849,88.856,61.107,88.855,60.366z M76.558,60.234c0.406,0.034,0.831,0.042,1.246,0.111
			c0.029,0.005,0.054,0.014,0.082,0.02h-2.741c0.043-0.01,0.083-0.023,0.129-0.03C75.692,60.273,76.117,60.267,76.558,60.234z
			 M49.849,38.382c6.363-0.003,12.727-0.003,19.09,0c1.596,0.001,2.345,0.724,2.351,2.324c0.015,4.189,0.014,8.378,0,12.566
			c-0.006,1.644-0.738,2.338-2.407,2.34c-3.182,0.004-6.363,0.001-9.545,0.001c-3.155,0-6.31,0.003-9.465-0.001
			c-1.74-0.002-2.414-0.672-2.415-2.396c-0.003-4.136-0.002-8.272,0-12.407C47.46,39.078,48.141,38.383,49.849,38.382z
			 M23.585,55.614c-1.655-0.003-2.376-0.717-2.378-2.366c-0.006-4.163-0.006-8.326,0-12.489c0.002-1.64,0.742-2.376,2.379-2.377
			c6.365-0.003,12.729-0.003,19.094,0c1.644,0.001,2.373,0.728,2.375,2.377c0.006,4.163,0.006,8.326,0,12.489
			c-0.002,1.654-0.717,2.363-2.376,2.366c-3.182,0.005-6.365,0.002-9.547,0.002C29.949,55.616,26.767,55.619,23.585,55.614z"/>
		<path class="st5" d="M43.395,72.053c-0.145,0.859-0.697,1.191-1.52,1.185c-0.743-0.005-1.488,0.038-2.228-0.014
			c-0.512-0.036-0.59,0.226-0.697,0.627c-0.816,3.05-2.758,4.984-5.817,5.789c-3.879,1.021-8.251-1.49-9.247-5.39
			c-0.213-0.833-0.536-1.081-1.371-1.036c-1.081,0.058-2.175,0.115-3.256-0.056c-1.904-0.302-3.22-1.776-3.319-3.7
			c-0.01-0.185-0.007-0.371-0.007-0.557c0-10.372-0.002-20.744,0.001-31.117c0.001-2.09,1.041-3.608,2.844-4.091
			c0.504-0.135,1.048-0.171,1.573-0.171c23.161-0.008,46.321-0.008,69.482-0.006c2.594,0,3.957,1.162,4.452,3.701
			c0.992,5.093,2.008,10.181,3.011,15.271l0.001,0.003c0.106,0.539,0.159,1.087,0.159,1.636v14.438c0,0.949-0.245,1.891-0.762,2.686
			c-0.302,0.465-0.673,0.882-1.171,1.212c-1.075,0.711-2.275,0.862-3.502,0.759c-1.396-0.118-2.263,0.029-2.812,1.723
			c-0.914,2.822-3.185,4.449-6.152,4.816c-3.299,0.408-5.885-0.886-7.703-3.672c-0.39-0.597-0.746-1.243-0.826-1.957
			c-0.089-0.79-0.485-0.918-1.206-0.914c-5.089,0.033-10.178,0.017-15.266,0.017c-3.287,0-6.573-0.009-9.86,0.006
			c-0.871,0.004-1.482-0.289-1.695-1.188c0.388-1.079,0.564-1.204,1.744-1.206c1.326-0.003,2.652-0.001,3.977-0.001
			c7.08,0,14.16-0.008,21.239,0.014c0.615,0.002,0.909-0.157,1.013-0.782c0.141-0.844,0.561-1.584,0.998-2.317
			c0.805-1.348,2.045-2.182,3.355-2.945c2.033-0.779,4.081-0.806,6.143-0.12c2.46,1.213,4.173,3.037,4.743,5.798
			c0.058,0.282,0.261,0.358,0.535,0.355c0.928-0.011,1.859,0.032,2.785-0.018c1.162-0.062,2.001-0.853,2.017-1.956
			c0.037-2.52,0.01-5.04,0.018-7.561c0.001-0.312-0.068-0.48-0.43-0.506c-1.928-0.135-3.855-0.295-5.782-0.446
			c-1.332-0.212-2.671-0.388-3.994-0.645c-2.97-0.577-5.888-1.309-8.511-2.917c-1.449-0.888-2.102-2.176-2.102-3.84
			c0.001-4.029-0.005-8.058,0.003-12.087c0.003-1.636,0.871-2.491,2.503-2.495c3.499-0.008,6.998-0.011,10.497-0.016
			c1.426,0.009,2.851,0.021,4.277,0.024c0.221,0,0.475,0.066,0.511-0.314c0.098-1.031-0.642-2.109-1.653-2.171
			c-1.154-0.07-2.319-0.116-3.475,0.04c-0.211-0.015-0.422-0.042-0.633-0.042c-21.957-0.002-43.914-0.003-65.871,0
			c-1.582,0-2.084,0.517-2.085,2.105c-0.001,8.458-0.001,16.917,0.001,25.375c0,0.424,0.016,0.847,0.025,1.271
			c-0.009,1.482-0.035,2.965-0.02,4.447c0.012,1.118,0.601,1.7,1.725,1.742c0.661,0.024,1.324,0.005,1.986,0.005
			c1.442,0,1.441,0,1.886-1.362c0.049-0.15,0.124-0.292,0.184-0.439c0.835-2.044,2.372-3.393,4.305-4.35
			c2.063-0.682,4.111-0.659,6.145,0.121c0.2,0.122,0.396,0.251,0.6,0.366c1.453,0.817,2.493,1.996,3.276,3.472
			c0.377,0.711,0.165,1.82,0.96,2.125c0.718,0.275,1.623,0.061,2.445,0.069C42.888,70.86,43.128,71.048,43.395,72.053z
			 M81.377,66.72c-2.248,0.045-4.256,1.98-4.733,4.561c-0.522,2.826,1.927,5.987,4.723,6.097c0.659,0.031,1.32,0.107,1.97-0.081
			c4.136-1.194,5.515-5.943,2.562-9.065C84.716,66.98,83.173,66.36,81.377,66.72z M30.587,66.717
			c-2.433,0.173-4.5,2.479-4.651,4.992c-0.178,2.954,2.135,5.423,4.641,5.671c0.633,0.035,1.271,0.096,1.896-0.047
			c3.832-0.876,5.513-5.1,3.349-8.402C34.747,67.291,32.257,66.238,30.587,66.717z M87.898,40.802
			c-3.576-0.01-7.153-0.006-10.729-0.041c-0.617-0.006-0.518,0.351-0.518,0.714c0.001,3.63,0.05,7.26-0.025,10.889
			c-0.029,1.411,0.483,2.268,1.742,2.864c3.325,1.572,6.856,2.269,10.477,2.637c1.928,0.367,3.892,0.354,5.837,0.552
			c0.266,0.027,0.387-0.046,0.384-0.331c-0.016-1.588,0.187-3.21-0.071-4.757c-0.673-4.038-1.55-8.042-2.334-12.062
			c-0.075-0.384-0.238-0.513-0.635-0.503C90.651,40.798,89.274,40.793,87.898,40.802z"/>
		<path class="st0" d="M43.395,72.053c-0.267-1.005-0.507-1.193-1.554-1.203c-0.822-0.008-1.726,0.206-2.445-0.069
			c-0.795-0.304-0.583-1.414-0.96-2.125c-0.782-1.475-1.822-2.654-3.276-3.472c-0.204-0.115-0.4-0.243-0.6-0.366
			c0.235-0.262,0.546-0.154,0.824-0.154c14.206-0.005,28.411-0.005,42.617,0c0.278,0,0.59-0.108,0.824,0.154
			c-1.31,0.763-2.55,1.597-3.355,2.945c-0.438,0.733-0.858,1.473-0.998,2.317c-0.104,0.624-0.397,0.784-1.013,0.782
			c-7.08-0.022-14.16-0.014-21.239-0.014c-1.326,0-2.652-0.002-3.977,0.001c-1.179,0.002-1.356,0.127-1.744,1.206
			C45.465,72.055,44.43,72.054,43.395,72.053z"/>
		<path class="st2" d="M88.846,57.865c-3.621-0.368-7.152-1.065-10.477-2.637c-1.26-0.596-1.772-1.453-1.742-2.864
			c0.075-3.628,0.025-7.259,0.025-10.889c0-0.363-0.098-0.72,0.518-0.714c3.576,0.035,7.152,0.031,10.729,0.041
			c0.028,0.208,0.048,0.418,0.087,0.625c0.288,1.527,0.786,3.047,0.831,4.58C88.933,49.957,88.849,53.912,88.846,57.865z"/>
		<path class="st3" d="M88.846,57.865c0.004-3.953,0.087-7.909-0.03-11.858c-0.045-1.533-0.543-3.053-0.831-4.58
			c-0.039-0.206-0.058-0.416-0.087-0.625c1.376-0.009,2.752-0.004,4.128-0.038c0.397-0.01,0.56,0.119,0.635,0.503
			c0.784,4.02,1.661,8.024,2.334,12.062c0.258,1.546,0.056,3.169,0.071,4.757c0.003,0.285-0.118,0.358-0.384,0.331
			C92.738,58.22,90.774,58.232,88.846,57.865z"/>
		<path class="st0" d="M84.969,64.699c0.609-0.013,1.217-0.025,1.826-0.039c1.339-0.03,2.056-0.748,2.061-2.07
			c0.003-0.742,0-1.483-0.001-2.225c1.927,0.151,3.854,0.31,5.782,0.446c0.363,0.025,0.431,0.193,0.43,0.506
			c-0.008,2.52,0.019,5.041-0.018,7.561c-0.016,1.103-0.855,1.894-2.017,1.956c-0.926,0.05-1.857,0.007-2.785,0.018
			c-0.273,0.003-0.476-0.073-0.535-0.355C89.143,67.736,87.43,65.913,84.969,64.699z"/>
		<path class="st0" d="M18.349,64.655c3.355,0.014,6.711,0.029,10.067,0.043c-1.933,0.957-3.47,2.306-4.305,4.35
			c-0.06,0.147-0.135,0.288-0.184,0.439c-0.445,1.362-0.444,1.362-1.886,1.362c-0.662,0-1.325,0.019-1.986-0.005
			c-1.124-0.042-1.713-0.624-1.725-1.742C18.314,67.62,18.34,66.137,18.349,64.655z"/>
		<path class="st3" d="M30.587,66.717c1.67-0.479,4.16,0.574,5.235,2.214c2.164,3.302,0.484,7.526-3.349,8.402
			c-0.625,0.143-1.263,0.082-1.896,0.047c0.007-0.429,0.014-0.858,0.021-1.287c0.29,0.008,0.583,0.045,0.87,0.019
			c1.614-0.142,2.889-0.855,3.555-2.369c0.622-1.414,0.569-2.835-0.387-4.117c-1.012-1.358-2.429-1.772-4.057-1.632
			C30.581,67.568,30.584,67.142,30.587,66.717z"/>
		<path class="st3" d="M81.377,66.72c1.796-0.36,3.339,0.26,4.522,1.511c2.953,3.121,1.574,7.871-2.562,9.065
			c-0.651,0.188-1.311,0.112-1.97,0.081c0.003-0.421,0.006-0.842,0.009-1.263c0.212,0.001,0.424,0.004,0.636,0.003
			c3.077-0.014,5.054-3.286,3.606-5.99c-0.909-1.696-2.401-2.287-4.25-2.144C81.371,67.562,81.374,67.141,81.377,66.72z"/>
		<path class="st2" d="M81.377,66.72c-0.003,0.421-0.006,0.842-0.009,1.263c-0.176,0.056-0.352,0.11-0.527,0.17
			c-2.807,0.953-3.771,4.165-1.937,6.485c0.632,0.8,1.541,1.162,2.472,1.477c-0.003,0.421-0.006,0.842-0.009,1.263
			c-2.797-0.11-5.246-3.271-4.723-6.097C77.121,68.7,79.129,66.765,81.377,66.72z"/>
		<path class="st2" d="M30.597,76.093c-0.007,0.429-0.014,0.858-0.021,1.287c-2.506-0.248-4.819-2.717-4.641-5.671
			c0.152-2.513,2.218-4.819,4.651-4.992c-0.003,0.425-0.006,0.851-0.008,1.277c-0.175,0.057-0.351,0.11-0.525,0.171
			c-2.634,0.918-3.609,4.118-1.937,6.338C28.749,75.343,29.649,75.752,30.597,76.093z"/>
		<path class="st0" d="M87.252,38.366c0.112-0.839-0.206-1.617-0.341-2.421c1.156-0.156,2.321-0.11,3.475-0.04
			c1.011,0.062,1.751,1.14,1.653,2.171c-0.036,0.381-0.29,0.315-0.511,0.314C90.103,38.388,88.678,38.375,87.252,38.366z"/>
		<path class="st6" d="M33.132,55.616c-3.182,0-6.365,0.004-9.547-0.002c-1.655-0.003-2.376-0.717-2.378-2.366
			c-0.006-4.163-0.006-8.326,0-12.489c0.002-1.64,0.742-2.376,2.379-2.377c6.365-0.003,12.729-0.003,19.094,0
			c1.644,0.001,2.373,0.728,2.375,2.377c0.006,4.163,0.006,8.326,0,12.489c-0.002,1.654-0.717,2.363-2.376,2.366
			C39.496,55.619,36.314,55.616,33.132,55.616z M31.931,46.989c0-1.884-0.014-3.768,0.01-5.651c0.006-0.456-0.129-0.578-0.578-0.574
			c-2.388,0.021-4.776,0.025-7.164-0.002c-0.509-0.006-0.61,0.158-0.607,0.633c0.019,3.741,0.02,7.482-0.001,11.222
			c-0.003,0.495,0.138,0.626,0.624,0.622c2.361-0.024,4.723-0.029,7.084,0.003c0.553,0.008,0.647-0.19,0.641-0.681
			C31.916,50.704,31.931,48.846,31.931,46.989z M42.662,47.046c0-1.907-0.008-3.814,0.007-5.721
			c0.003-0.383-0.056-0.565-0.508-0.561c-2.437,0.021-4.874,0.02-7.31,0.001c-0.43-0.003-0.524,0.143-0.523,0.544
			c0.013,3.787,0.015,7.575-0.002,11.362c-0.002,0.463,0.154,0.569,0.587,0.566c2.384-0.018,4.768-0.023,7.151,0.003
			c0.505,0.006,0.615-0.155,0.609-0.632C42.647,50.754,42.662,48.9,42.662,47.046z"/>
		<path class="st7" d="M59.339,55.615c-3.155,0-6.31,0.003-9.465-0.001c-1.74-0.002-2.414-0.672-2.415-2.396
			c-0.003-4.136-0.002-8.272,0-12.407c0.001-1.733,0.682-2.428,2.391-2.429c6.363-0.003,12.727-0.003,19.09,0
			c1.596,0.001,2.345,0.724,2.351,2.324c0.015,4.189,0.014,8.378,0,12.566c-0.005,1.644-0.738,2.338-2.407,2.34
			C65.702,55.618,62.521,55.615,59.339,55.615z M49.848,46.935c0,1.909,0.013,3.819-0.01,5.728c-0.005,0.445,0.114,0.58,0.569,0.576
			c2.387-0.022,4.774-0.027,7.161,0.003c0.519,0.007,0.611-0.171,0.599-0.635c-0.03-1.166-0.017-2.333-0.008-3.5
			c0.008-0.997,0.449-1.57,1.189-1.582c0.751-0.012,1.191,0.548,1.197,1.548c0.007,1.193,0.02,2.387-0.008,3.58
			c-0.011,0.45,0.125,0.589,0.58,0.585c2.387-0.02,4.774-0.023,7.161,0.001c0.491,0.005,0.627-0.135,0.625-0.625
			c-0.019-3.739-0.024-7.478,0.004-11.217c0.004-0.568-0.212-0.639-0.691-0.633c-1.803,0.023-3.607-0.006-5.41,0.016
			c-0.732,0.009-1.659-0.314-2.141,0.144c-0.411,0.39-0.08,1.308-0.117,1.991c-0.001,0.026,0,0.053-0.001,0.08
			c-0.038,0.84-0.453,1.311-1.163,1.321c-0.704,0.01-1.165-0.457-1.217-1.286c-0.033-0.528-0.036-1.062-0.001-1.59
			c0.032-0.482-0.063-0.69-0.627-0.682c-2.36,0.035-4.721,0.028-7.081,0.004c-0.477-0.005-0.631,0.097-0.622,0.604
			C49.868,43.222,49.847,45.079,49.848,46.935z"/>
		<path class="st6" d="M76.558,60.234c0.406,0.034,0.831,0.042,1.246,0.111c0.615,0.102,0.922,0.54,0.929,1.119
			c0.008,0.578-0.286,1.031-0.899,1.145c-0.865,0.16-1.739,0.15-2.606,0.007c-0.614-0.101-0.926-0.54-0.931-1.12
			c-0.005-0.618,0.325-1.064,0.976-1.161C75.691,60.273,76.117,60.267,76.558,60.234z"/>
		<path class="st8" d="M30.597,76.093c-0.948-0.341-1.848-0.75-2.481-1.591c-1.672-2.219-0.698-5.42,1.937-6.338
			c0.174-0.061,0.35-0.114,0.525-0.171c1.628-0.139,3.045,0.274,4.057,1.632c0.956,1.282,1.009,2.703,0.387,4.117
			c-0.666,1.515-1.942,2.228-3.555,2.369C31.18,76.138,30.887,76.101,30.597,76.093z M31.328,70.363
			c-0.91,0.009-1.672,0.772-1.669,1.669c0.003,0.879,0.79,1.669,1.676,1.683c0.929,0.015,1.703-0.782,1.682-1.731
			C32.996,71.047,32.274,70.354,31.328,70.363z"/>
		<path class="st8" d="M81.376,76.115c-0.93-0.315-1.839-0.677-2.472-1.477c-1.834-2.32-0.87-5.532,1.937-6.485
			c0.175-0.059,0.351-0.113,0.527-0.17c1.85-0.143,3.342,0.448,4.25,2.144c1.449,2.704-0.529,5.976-3.606,5.99
			C81.8,76.118,81.588,76.116,81.376,76.115z M82.047,70.363c-0.945-0.004-1.663,0.694-1.678,1.633
			c-0.015,0.921,0.706,1.689,1.615,1.718c0.91,0.03,1.748-0.784,1.743-1.694C83.723,71.12,82.959,70.367,82.047,70.363z"/>
		<path class="st2" d="M31.931,46.989c0,1.857-0.015,3.714,0.01,5.571c0.007,0.491-0.087,0.689-0.641,0.681
			c-2.361-0.032-4.723-0.027-7.084-0.003c-0.486,0.005-0.627-0.127-0.624-0.622c0.021-3.741,0.02-7.482,0.001-11.222
			c-0.002-0.475,0.099-0.639,0.607-0.633c2.388,0.028,4.776,0.023,7.164,0.002c0.449-0.004,0.584,0.119,0.578,0.574
			C31.916,43.222,31.931,45.106,31.931,46.989z"/>
		<path class="st2" d="M42.662,47.046c0,1.854-0.016,3.708,0.011,5.562c0.007,0.477-0.104,0.638-0.609,0.632
			c-2.384-0.027-4.768-0.021-7.151-0.003c-0.434,0.003-0.59-0.103-0.587-0.566c0.018-3.787,0.015-7.574,0.002-11.362
			c-0.001-0.401,0.092-0.548,0.523-0.544c2.437,0.02,4.874,0.021,7.31-0.001c0.452-0.004,0.511,0.178,0.508,0.561
			C42.654,43.232,42.662,45.139,42.662,47.046z"/>
		<path class="st2" d="M49.847,46.935c0-1.856,0.02-3.713-0.013-5.569c-0.009-0.508,0.146-0.609,0.622-0.604
			c2.36,0.025,4.721,0.032,7.081-0.004c0.564-0.008,0.659,0.2,0.627,0.682c-0.035,0.528-0.032,1.062,0.001,1.59
			c0.052,0.829,0.513,1.296,1.217,1.286c0.71-0.01,1.125-0.481,1.163-1.321c0.001-0.026-0.001-0.053,0.001-0.08
			c0.037-0.683-0.294-1.601,0.117-1.991c0.482-0.458,1.409-0.135,2.141-0.144c1.803-0.022,3.607,0.006,5.41-0.016
			c0.479-0.006,0.695,0.065,0.691,0.633c-0.028,3.739-0.023,7.478-0.004,11.217c0.003,0.49-0.134,0.63-0.625,0.625
			c-2.387-0.024-4.774-0.022-7.161-0.001c-0.455,0.004-0.59-0.135-0.58-0.585c0.028-1.193,0.015-2.387,0.008-3.58
			c-0.006-1-0.446-1.56-1.197-1.548c-0.741,0.012-1.181,0.585-1.189,1.582c-0.01,1.167-0.022,2.334,0.008,3.5
			c0.012,0.464-0.08,0.641-0.599,0.635c-2.387-0.03-4.774-0.025-7.161-0.003c-0.455,0.004-0.574-0.132-0.569-0.576
			C49.861,50.754,49.848,48.844,49.847,46.935z"/>
		<path class="st2" d="M31.328,70.363c0.946-0.009,1.668,0.684,1.689,1.621c0.021,0.949-0.753,1.746-1.682,1.731
			c-0.886-0.014-1.673-0.804-1.676-1.683C29.656,71.135,30.418,70.372,31.328,70.363z"/>
		<path class="st2" d="M82.047,70.363c0.912,0.004,1.675,0.757,1.68,1.657c0.005,0.91-0.833,1.724-1.743,1.694
			c-0.909-0.03-1.63-0.797-1.615-1.718C80.384,71.058,81.102,70.36,82.047,70.363z"/>
	</g>
</g>
</svg>
