<?xml version="1.0" encoding="utf-8"?>
<!-- Generator: Adobe Illustrator 26.4.1, SVG Export Plug-In . SVG Version: 6.00 Build 0)  -->
<svg version="1.1" id="Layer_1" xmlns="http://www.w3.org/2000/svg" xmlns:xlink="http://www.w3.org/1999/xlink" x="0px" y="0px"
	 viewBox="0 0 113.386 113.386" style="enable-background:new 0 0 113.386 113.386;" xml:space="preserve">
<style type="text/css">
	.st0{fill:#40A578;}
	.st1{fill:#9DDE8B;}
	.st2{fill:#FEFEFE;}
	.st3{fill:#E1E1E1;}
	.st4{fill:none;}
	.st5{fill:#030304;}
	.st6{fill:#030405;}
	.st7{fill:#010303;}
	.st8{fill:#010202;}
	.st9{fill:#FCFCFC;}
	.st10{fill:#FBFBFB;}
	.st11{fill:#FAFAFA;}
	.st12{fill:#D5D3D6;}
	.st13{fill:#817A83;}
	.st14{fill:#040404;}
	.st15{fill:#030303;}
	.st16{fill:#040506;}
	.st17{fill:#020202;}
	.st18{fill:#030404;}
	.st19{fill:#060708;}
	.st20{fill:#020102;}
	.st21{fill:#020303;}
	.st22{fill:#050606;}
	.st23{fill:#F7F5F5;}
	.st24{fill:#5D5B68;}
	.st25{fill:#54525E;}
	.st26{fill:#52505C;}
	.st27{fill:#221F27;}
	.st28{fill:#221F28;}
	.st29{fill:#010101;}
	.st30{fill:#BBE973;}
	.st31{fill:#98D43B;}
	.st32{fill:#BBE972;}
	.st33{fill:#D9DCE5;}
	.st34{fill:#1B97A6;}
</style>
<rect class="st4" width="113.386" height="113.386"/>
<g>
	<path d="M101.534,78.106c-2.149-2.193-4.854-3.46-7.724-4.425c-0.404-0.136-0.945-0.066-0.997-0.811
		c-0.051-0.775,0.353-1.009,0.931-1.233c0.819-0.317,1.537-0.819,2.256-1.311c0.96-0.658,1.101-1.106,0.714-2.215
		c-0.407-0.797-0.936-1.043-1.703-0.76c-0.519,0.192-0.984,0.49-1.45,0.787c-1.016,0.655-2.13,1.082-3.311,1.333
		c-0.953,0.251-1.927,0.222-2.897,0.192c-3.129-0.102-5.68-1.438-7.67-3.801c-2.488-2.951-2.651-6.486-2.373-10.109
		c0.022-0.302,0.205-0.473,0.458-0.568c2.281-0.841,3.263-2.739,3.923-4.871c0.2-0.653,0.57-1.001,1.221-1.045
		c1.128-0.078,2.244-0.314,3.38-0.28c2.11,0.061,4.128-0.275,5.977-1.352c0.334-0.195,0.663-0.295,0.958,0.054
		c0.999,1.177,2.268,2.147,2.814,3.672c0.47,0.836,0.738,1.84,1.693,2.295c0.719,0.344,0.928,0.872,0.926,1.635
		c-0.005,2.748,0.063,5.49-0.904,8.141c-0.361,0.994,0.039,1.65,0.943,1.971c1.274,0.136,1.703-0.112,2.117-1.294
		c0.278-0.792,0.573-1.581,0.668-2.424c0.056-0.526,0.246-0.884,0.894-0.872c0.782,0.015,1.425-0.392,1.988-0.899
		c2.373-2.149,2.614-7.351,0.436-9.724c-0.314-0.341-0.461-0.612-0.285-1.096c0.375-1.033,0.405-2.139,0.027-3.15
		c-0.456-1.216-0.47-2.463-0.58-3.713c-0.348-3.993-2.919-7.134-6.761-8.231c-0.387-0.11-0.711-0.261-1.026-0.507
		c-1.818-1.416-3.918-2.088-6.189-2.264c-3.521-0.27-6.886,0.412-10.143,1.715c-1.053,0.422-1.116,0.387-1.123-0.792
		c-0.007-1.104-0.044-2.203-0.231-3.292c-0.651-3.767-2.312-6.886-5.646-8.988c-2.069-1.304-4.456-1.862-6.554-3.199
		c-4.169-2.656-8.903-2.602-13.635-1.832c-1.238,0.202-1.513,0.546-1.598,1.784c0.117,1.036,0.733,1.557,1.852,1.369
		c2.042-0.341,4.093-0.283,6.15-0.288c2.534,0.183,4.929,0.811,6.9,2.488c0.772,0.658,1.591,1.045,2.554,1.277
		c2.261,0.543,4.108,1.725,5.312,3.76c1.106,1.871,1.72,3.896,1.696,6.089c-0.012,1.101-0.007,2.181,0.48,3.224
		c1.411,3.029-0.268,5.643-2.366,7.168c-0.707,0.517-1.15,0.365-1.567-0.395c-0.217-0.4-0.353-0.833-0.529-1.25
		c-0.553-1.377-1.379-2.575-2.48-3.555c-1.386-1.235-2.361-2.705-3.009-4.449c-0.741-1.991-2.234-2.19-3.436-0.456
		c-1.304,1.883-3.15,2.683-5.295,3.072c-2.215,0.402-4.454,0.058-6.681,0.336c-4.371,0.538-8.17,1.949-10.548,5.979
		c-0.536,0.914-0.884,0.902-1.693,0.212c-1.788-1.52-2.303-3.209-1.535-5.974c0.202-0.733,0.322-1.447,0.227-2.198
		c-0.363-2.931,0.361-5.582,2.103-7.955c1.635-2.229,3.869-3.691,6.33-4.846c0.585-0.275,1.213-0.47,1.762-0.816
		c0.843-0.534,1.021-1.257,0.543-2.005c-0.614-0.923-1.104-1.099-2.112-0.694c-1.501,0.604-2.97,1.274-4.33,2.154
		c-4.634,3.004-7.429,7.105-7.57,12.772c-0.012,0.543,0.244,1.296-0.022,1.579c-0.322,0.339-0.972-0.197-1.508-0.244
		c-1.645-0.144-3.26-0.241-4.912-0.614c-5.346-1.204-10.134,0.18-14.093,4.018c-3.591,3.484-5.119,7.975-5.97,12.77
		c-0.205,1.152-0.27,10.504-0.183,10.921c0.716,3.467,2.156,6.62,4.096,9.561c0.363,0.548,0.838,0.923,1.533,0.819
		c0.631-0.097,1.036-0.487,1.218-1.109c0.132-0.439,0.288-0.872,0.463-1.408c1.552,1.766,3.282,3.099,5.358,3.933
		c0.517,0.205,0.37,0.599,0.409,0.967c0.041,0.378-0.085,0.592-0.47,0.702c-1.708,0.485-3.328,1.17-4.868,2.071
		c-1.009,0.592-1.998,1.184-2.853,1.988c-3.757,3.535-4.671,8.05-4.437,12.943c0.041,0.894,0.602,1.411,1.523,1.445
		c0.646,0.024,1.294,0.015,1.942,0.015c6.837,0,13.674,0.015,20.508-0.019c0.758-0.002,0.916,0.202,0.865,0.916
		c-0.093,1.226-0.093,2.458-0.1,3.689c-0.012,2.095,0.319,2.417,2.422,2.417h37.031c2.332,0,4.666,0.01,6.998-0.005
		c1.501-0.007,1.966-0.475,1.966-1.991c0.002-1.294,0.032-2.597-0.095-3.881c-0.095-0.96,0.188-1.155,1.121-1.148
		c7.159,0.041,14.32,0.024,21.481,0.022c1.859,0,2.276-0.412,2.256-2.298c-0.012-1.067-0.044-2.139-0.149-3.202
		C105.018,83.279,103.809,80.428,101.534,78.106z M48.317,74.398c-0.614,0.202-1.233,0.387-1.837,0.612
		c-2.266,0.838-4.34,2.061-6.376,3.328c-0.538,0.334-0.816,0.417-1.262-0.097c-1.094-1.265-2.519-2.074-3.969-2.89
		c-1.394-0.785-2.856-1.318-4.354-1.803c-0.353-0.117-0.551-0.288-0.492-0.687c0.054-0.361-0.139-0.78,0.38-0.987
		c1.954-0.777,3.599-2.01,5.066-3.572c0.324,0.465,0.295,0.97,0.424,1.421c0.171,0.602,0.468,1.06,1.116,1.204
		c0.685,0.154,1.187-0.117,1.601-0.648c1.291-1.654,2.074-3.552,2.707-5.728c2.32,2.946,5.066,5.039,8.401,6.328
		c0.365,0.141,0.465,0.353,0.487,0.724C50.344,73.725,50.354,73.723,48.317,74.398z M82.312,73.615
		c-2.597,0.753-4.954,1.976-7.093,3.626c-0.102,0.078-0.197,0.168-0.3,0.246c-0.485,0.368-0.77,1.189-1.338,1.162
		c-0.529-0.027-1.016-0.624-1.547-0.921c-2.663-1.489-5.353-2.924-8.34-3.669c-0.714-0.178-0.948-0.526-0.86-1.216
		c0.046-0.351,0.046-0.716,0-1.067c-0.073-0.558,0.2-0.787,0.685-0.984c4.5-1.827,7.843-4.917,10.019-9.266
		c0.119-0.236,0.166-0.653,0.548-0.558c0.268,0.066,0.224,0.436,0.273,0.672c0.945,4.754,3.667,8.099,8.038,10.126
		c0.431,0.2,0.733,0.404,0.597,0.948C83.184,73.313,82.782,73.479,82.312,73.615z"/>
	<path class="st24" d="M71.334,40.158c-0.603-1.344-1.409-2.55-2.523-3.521c-1.399-1.221-2.424-2.675-2.961-4.463
		c-0.226-0.753-0.603-1.409-1.47-1.482c-0.78-0.066-1.233,0.492-1.599,1.084c-1.229,1.988-3.178,2.741-5.335,3.143
		c-2.368,0.441-4.779,0.068-7.158,0.386c-3.182,0.425-6.111,1.377-8.431,3.73c-0.711,0.721-1.172,1.623-1.739,2.447
		c-0.425,0.617-0.813,0.758-1.493,0.264c-2.2-1.596-2.959-4.001-1.978-6.704c0.218-0.602,0.287-1.188,0.211-1.805
		c-0.595-4.785,1.36-8.416,5.099-11.227c1.484-1.115,3.149-1.903,4.854-2.619c1.002-0.421,1.24-0.935,1.015-1.981
		c1.125-0.063,2.132-0.612,3.23-0.785c0.412,0.982,1.094,1.266,2.159,1.063c1.991-0.38,4.015-0.402,6.037-0.238
		c0.829,0.299,1.601,0.693,2.22,1.339c0.352,0.367,0.799,0.534,1.284,0.639c4.894,1.057,8.139,4.961,8.784,9.945
		c0.137,1.059,0.281,2.12,0.22,3.194c-0.03,0.533,0.149,1.016,0.36,1.496c0.752,1.717,0.806,3.455,0.083,5.192
		C72.038,39.649,71.936,40.161,71.334,40.158z"/>
	<path class="st3" d="M96.714,68.111c-0.707-0.794-1.481-0.785-2.322-0.215c-1.236,0.838-2.521,1.572-4.033,1.795
		c-0.039-0.477,0.333-0.666,0.636-0.896c3.241-2.452,4.84-5.739,4.919-9.772c0.042-2.168,0.001-4.337,0.013-6.505
		c0.003-0.44-0.098-0.918,0.278-1.283c0.563,1.095,1.088,2.221,2.435,2.584c0.222,0.06,0.229,0.293,0.223,0.49
		c-0.071,2.454,0.234,4.926-0.333,7.354c-0.124,0.533-0.306,1.054-0.497,1.568c-0.336,0.904-0.176,1.639,0.665,2.173
		C98.08,66.338,97.23,67.102,96.714,68.111z"/>
	<path class="st23" d="M58.08,69.108c-9.054,1.02-17.705-6.146-17.6-16.231c0.025-2.396,0.012-4.793-0.004-7.19
		c-0.003-0.488,0.073-0.829,0.566-1.098c0.716-0.391,1.283-1.005,1.666-1.727c1.669-3.149,4.561-4.202,7.83-4.641
		c1.645-0.221,3.298-0.101,4.947-0.163c3.077-0.116,5.943-0.848,8.383-3.001c0.784,1.722,2.146,2.886,3.394,4.15
		c0.381,0.386,0.777,0.784,0.936,1.336c0.421,1.364,0.384,2.745,0.152,4.132c-0.268,0.424-0.639,0.191-0.958,0.121
		c-2.002-0.437-3.987-0.286-5.967,0.142c-0.38,0.082-0.754,0.187-1.117,0.327c-0.858,0.332-1.24,0.861-1.084,1.487
		c0.17,0.684,0.806,0.971,1.734,0.773c0.632-0.135,1.255-0.307,1.885-0.449c1.71-0.385,3.414,0.045,5.119-0.05
		c0.382,0.117,0.47,0.441,0.466,0.768c-0.037,2.966,0.281,5.948-0.34,8.891c-1.078,5.11-3.855,9.026-8.301,11.76
		C59.261,68.768,58.667,68.931,58.08,69.108z"/>
	<path class="st23" d="M96.205,51.234c-0.004,2.398-0.024,4.796-0.009,7.194c0.029,4.544-1.628,8.23-5.441,10.842
		c-0.155,0.106-0.265,0.279-0.396,0.42c-6.006,1.631-12.441-2.82-13.237-9.125c-0.213-1.683-0.037-3.363-0.114-5.043
		c-0.013-0.283,0.121-0.424,0.359-0.494c2.482-0.735,3.519-2.682,4.108-4.967c0.151-0.584,0.425-0.851,0.999-0.972
		c1.374-0.288,2.765-0.315,4.155-0.335c2.107-0.031,4.116-0.372,5.904-1.576c0.205-0.138,0.436-0.37,0.651-0.023
		c0.688,1.116,1.768,1.89,2.535,2.933C95.963,50.421,96.186,50.792,96.205,51.234z"/>
	<path class="st23" d="M20.584,48.315c1.001,0.815,1.398,0.846,2.488,0.089c1.276-0.885,2.617-1.655,3.976-2.401
		c0.496-0.272,0.906-0.259,1.344,0.037c1.499,1.014,2.792,2.181,3.17,4.077c0.145,0.73,0.39,1.447,0.801,2.066
		c0.783,1.181,0.964,2.505,1.043,3.865c0.395,3.167,0.333,6.27-1.353,9.123c-1.116,1.888-2.417,3.606-4.511,4.526
		c-4.399,1.298-10.154-1.315-12.063-5.458c-0.14-0.303-0.086-0.549-0.031-0.834c0.693-3.593,1.487-7.154,3.248-10.412
		c0.461-0.853,0.385-1.604-0.351-2.262C18.76,49.62,19.618,48.918,20.584,48.315z"/>
	<path class="st24" d="M20.584,48.315c-0.746,0.806-1.493,1.611-2.239,2.417c-1.292-0.314-1.667-0.119-2.325,1.077
		c-1.885,3.425-2.631,7.203-3.438,10.963c-0.156,0.727-0.301,1.456-0.469,2.271c-0.539-0.51-0.687-1.166-0.951-1.75
		c-1.707-3.766-1.719-7.721-1.25-11.716c0.433-3.688,1.229-7.284,3.272-10.458c2.271-3.528,5.402-5.778,9.692-6.171
		c1.519,2.31,3.739,3.767,6.092,5.087c0.905,0.507,1.583,1.322,2.289,2.077c0.311,0.332,0.603,0.694,0.39,1.206
		c-0.081,0.374-0.162,0.748-0.272,1.254c-0.953-0.689-1.852-1.297-2.885-1.664c-0.71-0.252-1.342-0.215-2.036,0.133
		c-1.762,0.882-3.454,1.87-5.068,2.996C20.362,46.749,20.227,47.129,20.584,48.315z"/>
	<path class="st24" d="M97.152,47.183c-1.071-0.793-1.809-1.819-2.198-3.101c-0.206-0.676-0.545-1.262-1.337-1.37
		c-0.795-0.108-1.247,0.37-1.642,0.971c-1.078,1.642-2.781,2.011-4.557,2.127c-1.676,0.11-3.368-0.016-5.026,0.35
		c-0.436,0.096-0.558-0.091-0.594-0.498c-0.184-2.06-0.791-3.929-2.517-5.249c-0.277-0.212-0.216-0.428-0.109-0.68
		c0.422-0.999,0.6-2.044,0.545-3.123c-0.018-0.362,0.155-0.521,0.447-0.646c2.82-1.205,5.728-1.989,8.83-1.836
		c1.127,0.487,2.236,1.014,3.359,1.508c2.089,0.92,3.402,2.541,4.113,4.669c0.361,1.079,0.565,2.199,0.563,3.341
		c-0.001,0.755,0.09,1.468,0.386,2.179C97.602,46.274,97.885,46.859,97.152,47.183z"/>
	<path class="st0" d="M51.742,95.88c-0.298,0.253-0.564,0.156-0.803,0.157c-4.886,0.007-9.772-0.012-14.658,0.023
		c-0.809,0.006-1.024-0.231-1.034-1.034c-0.051-4.166,0.893-8.013,3.48-11.357c1.199-1.549,2.626-2.842,4.377-3.764
		c0.563-0.296,0.784-0.284,0.766,0.439c-0.036,1.52,0.055,3.045-0.033,4.561c-0.065,1.117,0.342,1.92,1.275,2.4
		c1.296,0.666,1.763,1.646,1.545,3.068c-0.197,1.284,0.363,2.198,1.475,2.902C49.375,94.062,50.525,94.993,51.742,95.88z"/>
	<path class="st3" d="M58.08,69.108c1.42-0.821,2.825-1.641,4.083-2.73c2.909-2.519,4.744-5.658,5.606-9.367
		c0.723-3.114,0.35-6.295,0.405-9.449c0.002-0.136-0.135-0.274-0.207-0.411c0.26-0.741,0.413-1.492,0.211-2.276
		c0.007-1.444,0.014-2.888,0.022-4.332c0.564,0.691,0.715,1.574,1.087,2.355c0.561,1.177,1.385,2.023,2.68,2.315
		c0.36,0.081,0.603,0.159,0.59,0.59c-0.1,3.423,0.284,6.865-0.274,10.268c-1.112,6.778-7.027,12.333-13.816,13.05
		C58.34,69.134,58.209,69.113,58.08,69.108z"/>
	<path class="st25" d="M71.334,40.158c1.083-1.31,1.51-2.915,0.98-4.425c-0.73-2.082-0.758-4.207-1.027-6.329
		c-0.591-4.667-3.659-8.702-8.526-9.684c-0.6-0.121-1.121-0.361-1.59-0.822c-0.566-0.558-1.275-0.972-1.921-1.448
		c2.83,0.269,5.451,1.049,7.524,3.13c0.328,0.329,0.744,0.394,1.144,0.469c5.172,0.972,7.457,4.938,7.82,9.429
		c0.135,1.672,0.196,3.288,0.817,4.91c0.891,2.329-0.852,5.831-3.186,6.846c-0.556,0.241-1.097,0.19-1.381-0.461
		C71.754,41.241,71.55,40.697,71.334,40.158z"/>
	<path class="st0" d="M73.446,96.009c-4.011,0-8.021,0-12.252,0c0.544-0.423,0.947-0.746,1.36-1.054
		c0.466-0.348,0.909-0.748,1.419-1.015c1.903-0.996,2.819-2.479,2.42-4.654c-0.136-0.741,0.321-1.095,0.838-1.481
		c0.783-0.585,1.8-0.978,1.972-2.135c0.127-0.768,0.014-1.543,0.065-2.313c0.018-0.267-0.171-0.658,0.169-0.772
		c0.351-0.118,0.567,0.232,0.76,0.485c0.608,0.798,1.104,1.672,1.541,2.568c1.456,2.983,2.081,6.149,1.973,9.464
		C73.7,95.428,73.668,95.745,73.446,96.009z"/>
	<path class="st1" d="M73.446,96.009c0.108-2.854-0.178-5.655-1.144-8.36c-0.641-1.797-1.571-3.437-2.801-5.094
		c-0.348,1.121,0.095,2.165-0.298,3.115c-0.008-1.81-0.003-3.62-0.031-5.429c-0.01-0.652,0.243-0.597,0.69-0.365
		c2.518,1.31,4.366,3.3,5.746,5.735c1.704,3.007,2.268,6.281,2.166,9.703c-0.016,0.548-0.204,0.739-0.741,0.724
		C75.838,96.007,74.642,96.016,73.446,96.009z"/>
	<path class="st1" d="M54.185,94.039c-1.463-1.068-2.754-2.039-4.08-2.96c-0.429-0.298-0.621-0.627-0.555-1.128
		c0.008-0.064-0.008-0.131,0.002-0.194c0.343-2.02-0.33-3.529-2.218-4.435c-0.47-0.225-0.569-0.62-0.562-1.122
		c0.026-1.814,0.036-3.628-0.004-5.441c-0.013-0.595,0.19-0.879,0.748-1.026c0.624-0.165,1.242-0.369,1.84-0.611
		c0.546-0.221,0.803-0.108,0.94,0.488c0.623,2.706,1.281,5.405,1.922,8.107C52.859,88.416,53.494,91.116,54.185,94.039z"/>
	<path class="st1" d="M58.85,94.048c1.093-4.594,2.139-8.987,3.184-13.38c0.239-1.005,0.494-2.007,0.707-3.018
		c0.115-0.545,0.291-0.739,0.907-0.546c2.605,0.814,2.612,0.792,2.612,3.557c0,0.453-0.05,0.914,0.009,1.359
		c0.25,1.89-0.045,3.48-2.004,4.389c-0.773,0.359-0.893,1.179-0.761,1.945c0.294,1.712-0.315,2.868-1.865,3.681
		C60.705,92.525,59.907,93.272,58.85,94.048z"/>
	<path class="st25" d="M97.152,47.183c0.314-0.246,0.311-0.666,0.171-0.884c-0.845-1.317-0.477-2.826-0.706-4.232
		c-0.522-3.207-2.144-5.429-5.22-6.588c-0.855-0.322-1.765-0.615-2.404-1.352c2.206-0.022,4.215,0.519,5.858,2.079
		c0.322,0.305,0.716,0.402,1.131,0.498c3.105,0.714,4.979,3.003,5.09,6.219c0.042,1.227,0.109,2.419,0.602,3.596
		c0.584,1.393-0.595,3.819-1.949,4.348c-0.497,0.194-0.545-0.201-0.644-0.477C98.652,49.19,98.002,48.127,97.152,47.183z"/>
	<path class="st1" d="M21.717,89.068c-3.194,0-6.101,0-9.009,0c-2.342,0-2.39-0.006-2.105-2.381c0.396-3.301,1.807-6.046,4.641-7.94
		c0.101-0.067,0.212-0.119,0.456-0.254c0,0.816,0.063,1.519-0.013,2.207c-0.151,1.367,0.311,2.401,1.302,3.364
		C18.561,85.59,20.009,87.246,21.717,89.068z"/>
	<path class="st25" d="M31.646,43.317c-0.597-1.574-1.95-2.439-3.212-3.373c-1.112-0.824-2.497-1.228-3.497-2.237
		c-0.817-0.824-1.612-1.663-2.062-2.76c1.356-0.222,2.824-0.354,3.994,0.261c1.427,0.75,2.758,0.993,4.273,0.604
		c0.203-0.052,0.445,0.044,0.668,0.076c1.312,0.189,1.469,0.347,1.493,1.637c0.017,0.913,0.47,1.808,0.404,2.646
		c-0.062,0.791-1.152,1.216-1.503,2.031C32.04,42.584,31.833,42.946,31.646,43.317z"/>
	<path class="st1" d="M97.14,82.884c0.424-1.394,0.071-2.833,0.254-4.345c1.764,0.908,2.915,2.341,3.808,4
		c0.968,1.802,1.318,3.766,1.379,5.793c0.012,0.409,0.035,0.768-0.564,0.766c-3.429-0.014-6.858-0.006-10.287-0.011
		c-0.052,0-0.105-0.065-0.157-0.1c0.386-0.303,0.844-0.29,1.297-0.291c1.294-0.004,2.588,0.012,3.881-0.006
		c0.996-0.014,1.097-0.122,1.093-1.141c-0.005-1.173-0.236-2.313-0.568-3.434C97.156,83.712,96.999,83.315,97.14,82.884z"/>
	<path class="st23" d="M56.409,90.735c-0.929-3.892-1.857-7.785-2.789-11.676c-0.104-0.434-0.029-0.65,0.494-0.641
		c1.619,0.026,3.239,0.021,4.858,0.002c0.463-0.005,0.557,0.178,0.46,0.584c-0.935,3.913-1.866,7.827-2.798,11.741
		C56.558,90.742,56.483,90.738,56.409,90.735z"/>
	<path class="st3" d="M75.469,48.119c0-0.582,0.068-1.174-0.013-1.745c-0.201-1.412,0.259-2.456,1.417-3.316
		c0.514-0.382,0.755-0.324,1.076,0.101c0.437,0.577,0.705,1.229,0.832,1.939c0.338,1.888,0.228,3.737-0.559,5.507
		c-0.322,0.724-0.778,1.356-1.601,1.58c-0.818,0.223-1.143-0.024-1.15-0.862C75.462,50.254,75.469,49.187,75.469,48.119z"/>
	<path class="st3" d="M37.57,48.289c0,1.035-0.037,2.072,0.012,3.104c0.035,0.729-0.303,0.906-0.934,0.843
		c-0.595-0.059-1.044-0.368-1.339-0.854c-1.497-2.465-1.637-5.054-0.549-7.691c0.387-0.937,0.538-0.795,1.376-0.292
		c1.346,0.808,1.601,1.939,1.442,3.338C37.522,47.248,37.57,47.771,37.57,48.289z"/>
	<path class="st23" d="M56.712,75.512c-1.125,0-2.03-0.02-2.934,0.008c-0.501,0.016-0.697-0.161-0.681-0.668
		c0.027-0.807,0.019-1.615,0.002-2.422c-0.009-0.411,0.109-0.594,0.558-0.521c1.894,0.307,3.793,0.31,5.688,0.006
		c0.397-0.064,0.637,0.014,0.591,0.476c-0.006,0.064,0.003,0.129,0,0.194c-0.056,0.929,0.415,2.226-0.168,2.702
		C58.943,75.96,57.604,75.389,56.712,75.512z"/>
	<path class="st0" d="M78.514,78.528c0,1.102,0.024,2.071-0.008,3.038c-0.025,0.763,0.238,1.359,0.765,1.907
		c1.501,1.559,2.971,3.148,4.451,4.727c0.212,0.226,0.415,0.461,0.781,0.87c-1.501,0-2.774-0.004-4.047,0.002
		c-0.459,0.002-0.485-0.374-0.567-0.662c-0.746-2.646-1.981-5.033-3.761-7.13c-0.289-0.34-0.295-0.552,0.022-0.883
		C76.821,79.699,77.52,79.053,78.514,78.528z"/>
	<path class="st0" d="M97.14,82.884c0.677,1.663,1.015,3.382,1.021,5.186c0.002,0.751-0.25,0.928-0.954,0.914
		c-1.878-0.038-3.757-0.004-5.635,0.002c0.318-0.762,0.996-1.225,1.526-1.806C94.423,85.729,95.79,84.314,97.14,82.884z"/>
	<path class="st3" d="M27.543,69.699c0.422-0.647,1.184-0.867,1.723-1.381c2.758-2.634,4.163-5.828,4.116-9.652
		c-0.011-0.872,0.016-1.744,0.025-2.616c0.438,2.643,0.877,5.287,1.315,7.93c0.033,0.201-0.03,0.374-0.135,0.549
		C32.961,67.238,30.686,69.058,27.543,69.699z"/>
	<path class="st0" d="M27.871,85.246c0.619-2.635,1.223-5.264,1.871-7.883c0.073-0.296-0.05-0.966,0.563-0.785
		c0.529,0.156,1.42,0.032,1.308,1.049c-0.004,0.032-0.007,0.066,0.001,0.097c0.817,3.454-1.332,5.506-3.559,7.518
		C28.022,85.272,27.939,85.246,27.871,85.246z"/>
	<path class="st1" d="M84.95,85.248c-1.101-1.17-2.199-2.344-3.307-3.508c-0.23-0.242-0.213-0.523-0.213-0.812
		c0.001-1.099,0.05-2.2-0.014-3.295c-0.06-1.029,0.791-0.885,1.313-1.055c0.628-0.204,0.494,0.478,0.565,0.766
		c0.641,2.594,1.237,5.199,1.846,7.801C85.077,85.179,85.013,85.213,84.95,85.248z"/>
	<path class="st0" d="M22.266,85.386c-1.233-1.314-2.353-2.511-3.477-3.704c-0.175-0.185-0.174-0.406-0.174-0.634
		c0.001-1.167,0.022-2.334-0.006-3.5c-0.023-0.958,0.805-0.79,1.302-0.973c0.563-0.207,0.484,0.408,0.552,0.683
		c0.621,2.512,1.208,5.032,1.8,7.551C22.29,84.928,22.266,85.059,22.266,85.386z"/>
	<path class="st1" d="M90.919,84.47c0.574-2.483,1.15-4.965,1.72-7.449c0.068-0.297,0.137-0.653,0.531-0.446
		c0.437,0.229,1.22,0.025,1.244,0.809c0.039,1.26,0.005,2.522,0.016,3.783c0.002,0.289-0.135,0.48-0.319,0.672
		c-0.984,1.024-1.964,2.054-2.945,3.081C90.79,84.931,90.833,84.712,90.919,84.47z"/>
	<path class="st1" d="M34.749,84.336c-0.579,1.365-1.259,2.689-1.617,4.142c-0.065,0.263-0.128,0.588-0.531,0.586
		c-1.274-0.005-2.549-0.002-4.093-0.002c2.065-2.194,3.939-4.184,5.813-6.175C34.92,83.236,34.951,83.752,34.749,84.336z"/>
	<path class="st25" d="M37.959,65.372c-0.676-3.361-1.171-6.487-1.582-9.627c-0.038-0.289-0.149-0.655,0.337-0.567
		c0.337,0.061,0.889-0.386,0.989,0.362c0.229,1.704,0.675,3.35,1.3,4.954c0.194,0.498-0.071,1.016-0.144,1.524
		C38.709,63.077,38.403,64.088,37.959,65.372z"/>
	<path class="st33" d="M87.843,83.848c-0.461-1.948-0.902-3.9-1.394-5.84c-0.148-0.586,0.075-0.63,0.563-0.645
		c2.543-0.079,2.547-0.089,1.982,2.356c-0.32,1.383-0.658,2.761-0.988,4.142C87.951,83.856,87.897,83.852,87.843,83.848z"/>
	<path class="st23" d="M25.032,83.87c-0.466-1.979-0.921-3.961-1.405-5.936c-0.108-0.442,0.01-0.54,0.449-0.572
		c2.7-0.196,2.704-0.207,2.091,2.43c-0.314,1.351-0.648,2.698-0.973,4.047C25.14,83.849,25.086,83.86,25.032,83.87z"/>
	<path class="st0" d="M34.749,84.336c-0.013-0.521-0.231-0.981-0.428-1.448c0.429-1.386,0.075-2.817,0.253-4.285
		c1.028,0.406,1.721,1.19,2.446,1.938c0.25,0.258,0.142,0.447-0.05,0.657C36.098,82.15,35.483,83.285,34.749,84.336z"/>
	<path class="st3" d="M101.785,55.36c0-0.616,0.037-1.234-0.01-1.847c-0.049-0.646,0.372-1.072,0.822-1.165
		c0.46-0.095,0.516,0.518,0.614,0.904c0.359,1.409,0.175,2.765-0.459,4.058c-0.151,0.309-0.393,0.698-0.8,0.572
		c-0.329-0.103-0.149-0.506-0.16-0.772C101.768,56.528,101.785,55.943,101.785,55.36z"/>
	<path class="st23" d="M25.107,74.454c-0.42,0-0.843-0.034-1.258,0.008c-0.621,0.062-0.736-0.222-0.758-0.786
		c-0.026-0.69,0.19-0.931,0.873-0.822c0.767,0.123,1.542,0.093,2.314,0.008c0.471-0.052,0.882-0.102,0.859,0.634
		c-0.02,0.64-0.058,1.081-0.869,0.967C25.888,74.41,25.495,74.454,25.107,74.454z"/>
	<path class="st23" d="M87.953,74.454c-0.355,0.001-0.71,0.003-1.065,0c-0.899-0.006-1.223-0.48-0.957-1.33
		c0.099-0.317,0.311-0.29,0.525-0.271c0.966,0.085,1.932,0.112,2.895-0.006c0.501-0.062,0.644,0.19,0.574,0.617
		c-0.062,0.381,0.277,0.989-0.519,0.989C88.922,74.453,88.437,74.453,87.953,74.454z"/>
	<path class="st34" d="M90.919,84.47c0.041,0.173,0.055,0.36,0.247,0.45c-0.103,0.192-0.312,0.493-0.447,0.338
		C90.519,85.031,90.781,84.723,90.919,84.47z"/>
	<path d="M56.67,62.731c-3.422,0.024-6.32-1.149-8.531-3.826c-0.266-0.322-0.508-0.674-0.706-1.042
		c-0.423-0.787-0.256-1.523,0.407-1.968c0.672-0.451,1.521-0.31,2.022,0.447c0.848,1.28,1.913,2.309,3.35,2.838
		c2.815,1.036,5.571,1.01,8.155-0.725c0.742-0.498,1.252-1.199,1.711-1.954c0.517-0.85,1.304-1.087,2.04-0.671
		c0.734,0.415,0.944,1.23,0.455,2.108c-1.685,3.028-4.381,4.455-7.739,4.789C57.45,62.764,57.059,62.731,56.67,62.731z"/>
	<path d="M47.935,44.251c1.922,0.021,3.476,0.279,4.987,0.783c0.986,0.329,1.447,1.08,1.181,1.895
		c-0.271,0.83-1.017,1.163-2.049,0.868c-1.886-0.54-3.784-0.772-5.743-0.459c-0.999,0.16-1.738-0.413-1.825-1.279
		c-0.082-0.819,0.482-1.464,1.461-1.603C46.713,44.346,47.487,44.295,47.935,44.251z"/>
	<path d="M68.178,44.876c0.583,0.819,0.484,1.576-0.211,2.276c-0.457,0.19-0.923,0.257-1.419,0.175
		c-1.789-0.296-3.544-0.122-5.271,0.404c-0.247,0.075-0.497,0.16-0.751,0.187c-0.778,0.083-1.331-0.261-1.577-0.994
		c-0.237-0.705-0.012-1.399,0.65-1.647C62.402,44.23,65.259,43.732,68.178,44.876z"/>
</g>
</svg>
