<?xml version="1.0" encoding="utf-8"?>
<!-- Generator: Adobe Illustrator 26.4.1, SVG Export Plug-In . SVG Version: 6.00 Build 0)  -->
<svg version="1.1" id="Layer_1" xmlns="http://www.w3.org/2000/svg" xmlns:xlink="http://www.w3.org/1999/xlink" x="0px" y="0px"
	 viewBox="0 0 113.386 113.386" style="enable-background:new 0 0 113.386 113.386;" xml:space="preserve">
<style type="text/css">
	.st0{fill:#40A578;}
	.st1{fill:#9DDE8B;}
	.st2{fill:#FEFEFE;}
	.st3{fill:#E1E1E1;}
	.st4{fill:none;}
	.st5{fill:#030304;}
	.st6{fill:#030405;}
	.st7{fill:#010303;}
	.st8{fill:#010202;}
	.st9{fill:#FCFCFC;}
	.st10{fill:#FBFBFB;}
	.st11{fill:#FAFAFA;}
	.st12{fill:#D5D3D6;}
	.st13{fill:#817A83;}
	.st14{fill:#040404;}
	.st15{fill:#030303;}
	.st16{fill:#040506;}
	.st17{fill:#020202;}
	.st18{fill:#030404;}
	.st19{fill:#060708;}
	.st20{fill:#020102;}
	.st21{fill:#020303;}
	.st22{fill:#050606;}
	.st23{fill:#F7F5F5;}
	.st24{fill:#5D5B68;}
	.st25{fill:#54525E;}
	.st26{fill:#52505C;}
	.st27{fill:#221F27;}
	.st28{fill:#221F28;}
	.st29{fill:#010101;}
	.st30{fill:#BBE973;}
	.st31{fill:#98D43B;}
	.st32{fill:#BBE972;}
	.st33{fill:#D9DCE5;}
	.st34{fill:#1B97A6;}
</style>
<g>
	<rect y="0" class="st4" width="113.386" height="113.386"/>
	<g>
		<path class="st18" d="M92.557,67.838c-1.273,3.088-3.473,5.058-6.845,5.482c-3.308,0.416-5.932-0.86-7.874-3.537
			c-0.257-0.354-0.664-0.569-1.102-0.569c-12.896,0.014-25.792,0.014-38.688,0.001c-0.512-0.001-0.823,0.132-1.137,0.573
			c-1.828,2.567-4.345,3.85-7.494,3.579c-3.321-0.286-5.681-2.051-7.007-5.119c-0.208-0.482-0.475-0.727-0.959-0.858
			c-1.596-0.435-3.172-0.945-4.777-1.341c-2.271-0.561-3.848-1.832-4.54-4.112c0-0.001,0-0.001-0.001-0.002
			c-0.074-0.227-0.171-0.445-0.171-0.684c0-2.985,0-5.97,0-8.956c0-0.597,0.083-1.2,0.333-1.742
			c0.001-0.002,0.002-0.004,0.003-0.006c0.646-1.357,1.683-2.191,3.182-2.424c2.498-0.388,5.035-0.512,7.504-1.087
			c2.977-0.693,5.581-2.259,8.277-3.601c2.548-1.269,5.074-2.587,7.923-3.058c1.002-0.166,2.017-0.341,3.027-0.348
			c4.623-0.035,9.247-0.073,13.869,0c3.583,0.057,7.07,1.14,10.084,3.079c3.195,2.055,6.419,4.066,9.609,6.13
			c0.573,0.371,1.234,0.584,1.916,0.606c5.596,0.183,11.128,0.817,16.494,2.506c1.076,0.339,2.144,0.735,3.163,1.218
			c2.607,1.233,3.945,3.351,4.039,6.218c0.056,1.686,0.044,3.376-0.006,5.063c-0.068,2.328-1.484,4.012-3.548,4.32
			c-1.107,0.165-1.592-0.164-1.881-1.272c0.125-0.786,0.558-1.229,1.376-1.3c0.767-0.066,1.161-0.557,1.344-1.269
			c0.14-0.543,0.114-1.087,0.076-1.635c0.009-1.222-0.006-2.444,0.039-3.665c0.02-0.538-0.214-0.626-0.67-0.608
			c-0.697,0.028-1.398,0.03-2.095-0.001c-0.904-0.04-1.437-0.547-1.437-1.311c-0.001-0.772,0.531-1.26,1.438-1.297
			c0.423-0.017,0.847-0.003,1.427-0.003c-0.712-0.779-1.515-1.034-2.283-1.328c-5.167-1.972-10.577-2.712-16.051-2.939
			c-7.504-0.311-15.016-0.077-22.524-0.121c-3.551-0.021-7.102,0-10.653-0.006c-1.185-0.002-1.507-0.241-1.831-1.294
			c0.379-1.12,0.656-1.327,1.824-1.333c1.076-0.005,2.152-0.019,3.227,0.006c0.342,0.008,0.61-0.261,0.6-0.603
			c-0.036-1.219-0.036-2.44-0.051-3.66c0.016-0.752,0.008-1.507,0.058-2.257c0.036-0.544-0.174-0.69-0.697-0.683
			c-2.03,0.027-4.061-0.017-6.091,0.024c-1.508,0.03-3.006,0.188-4.469,0.605c-0.331,0.094-0.598,0.166-0.672,0.554
			c-0.178,0.937-0.375,1.871-0.564,2.806c-0.218,0.869-0.432,1.74-0.657,2.607c-0.104,0.402,0.01,0.594,0.452,0.589
			c0.843-0.01,1.687-0.005,2.53,0.013c1.033,0.022,1.366,0.312,1.598,1.345c-0.128,0.912-0.688,1.292-1.57,1.281
			c-0.96-0.012-1.921-0.006-2.881-0.038c-2.035-0.068-3.781-0.846-5.257-2.231c-0.722-0.677-1.432-1.369-2.106-2.092
			c-0.348-0.374-0.624-0.461-1.107-0.204c-1.571,0.835-3.239,1.46-4.981,1.8c-1.907,0.372-3.842,0.601-5.764,0.892
			c-0.623,0.072-1.256,0.098-1.867,0.226c-0.938,0.197-1.243,1.025-1.081,2.767c0.083,0.886,0.759,0.294,1.137,0.443
			c0.209,0.083,0.457,0.058,0.68,0.114c0.648,0.164,0.989,0.607,0.961,1.26c-0.027,0.645-0.38,1.096-1.044,1.208
			c-0.341,0.057-0.698,0.068-1.043,0.04c-0.501-0.041-0.735,0.072-0.707,0.654c0.05,1.074,0,2.152,0.019,3.228
			c0.026,1.399,0.792,2.436,2.144,2.845c1.636,0.495,3.287,0.943,4.976,1.424c0.106-0.569,0.176-1.114,0.312-1.643
			c1.089-4.238,5.078-6.864,9.405-6.203c4.146,0.633,7.121,4.348,6.905,8.716c-0.04,0.802,0.127,1.006,0.942,1.004
			c11.957-0.028,23.914-0.019,35.87-0.019c1.279,0,1.263,0,1.256-1.254c-0.021-3.503,1.522-6.136,4.641-7.673
			c3.089-1.522,6.157-1.194,8.83,0.983C92.814,61.054,93.589,64.213,92.557,67.838z M52.445,45.535
			c-0.016,1.158-0.006,2.317-0.06,3.473c-0.028,0.603,0.163,0.798,0.777,0.789c2.231-0.033,4.464-0.005,6.696-0.015
			c2.027-0.009,4.053-0.037,6.08-0.056c1.835,0.124,3.667,0.051,5.516-0.037c-2.174-1.486-4.384-2.856-6.551-4.291
			c-3.659-2.422-7.734-2.981-11.993-2.804c-0.363,0.015-0.534,0.13-0.522,0.508C52.415,43.912,52.427,44.723,52.445,45.535z
			 M30.08,70.729c3.158,0.001,5.618-2.422,5.652-5.552c0.034-3.133-2.373-5.636-5.505-5.708c-3.237-0.074-5.875,2.493-5.85,5.662
			C24.403,68.281,26.895,70.727,30.08,70.729z M84.656,70.729c3.223,0.005,5.744-2.49,5.725-5.664
			c-0.019-3.105-2.564-5.601-5.708-5.598c-3.185,0.003-5.643,2.451-5.647,5.624C79.021,68.262,81.48,70.723,84.656,70.729z
			 M34.995,44.514c-1.319,0.66-2.434,1.218-3.56,1.782c0.731,0.761,1.383,1.457,2.055,2.133c0.325,0.327,0.557,0.348,0.669-0.213
			C34.39,47.059,34.675,45.912,34.995,44.514z"/>
		<path class="st0" d="M98.748,63.689c0.038,0.548,0.064,1.093-0.076,1.635c-0.183,0.712-0.577,1.203-1.344,1.269
			c-0.818,0.071-1.25,0.514-1.376,1.3c-1.131-0.019-2.263-0.037-3.394-0.055c1.031-3.624,0.256-6.783-2.687-9.18
			c-2.673-2.177-5.741-2.504-8.83-0.983c-3.119,1.537-4.662,4.171-4.641,7.673c0.008,1.254,0.023,1.254-1.256,1.254
			c-11.957,0-23.914-0.009-35.87,0.019c-0.815,0.002-0.982-0.202-0.942-1.004c0.216-4.368-2.76-8.083-6.905-8.716
			c-4.327-0.66-8.315,1.965-9.405,6.203c-0.136,0.528-0.206,1.073-0.312,1.643c-1.689-0.481-3.34-0.929-4.976-1.424
			c-1.352-0.409-2.118-1.446-2.144-2.845c-0.02-1.076,0.031-2.154-0.019-3.228c-0.027-0.581,0.207-0.695,0.707-0.654
			c0.345,0.028,0.702,0.018,1.043-0.04c0.664-0.112,1.016-0.563,1.044-1.208c0.028-0.652-0.313-1.096-0.961-1.26
			c-0.222-0.056-0.471-0.032-0.68-0.114c-0.378-0.15-1.055,0.442-1.137-0.443c-0.162-1.742,0.143-2.57,1.081-2.767
			c0.611-0.128,1.244-0.154,1.867-0.226c0.006,2.934,0.019,5.868,0.012,8.802c-0.002,0.687,0.079,1.319,0.857,1.511
			c0.73,0.18,1.295-0.092,1.671-0.771c0.605-1.092,1.32-2.092,2.219-2.982c4.262-4.218,11.355-4.256,15.609-0.043
			c1.517,1.502,2.493,3.316,3.064,5.366c0.092,0.332-0.036,0.97,0.695,0.755c0.422,0.356,0.914,0.445,1.457,0.444
			c9.508-0.008,19.016-0.008,28.524,0c0.543,0,1.035-0.088,1.458-0.443c0.521-0.033,0.519-0.034,0.707-0.754
			c0.498-1.913,1.358-3.659,2.758-5.051c2.707-2.693,5.964-3.893,9.799-3.297c4.309,0.67,7.297,3.09,8.767,7.131
			C96.138,63.985,96.09,63.673,98.748,63.689z"/>
		<path class="st1" d="M41.659,63.177c-0.731,0.216-0.603-0.423-0.695-0.755c-0.571-2.05-1.547-3.863-3.064-5.366
			c-4.254-4.213-11.347-4.175-15.609,0.043c-0.899,0.89-1.614,1.89-2.219,2.982c-0.376,0.679-0.941,0.951-1.671,0.771
			c-0.778-0.192-0.859-0.824-0.857-1.511c0.007-2.934-0.006-5.868-0.012-8.802c1.923-0.291,3.857-0.52,5.764-0.892
			c1.742-0.34,3.41-0.965,4.981-1.8c0.483-0.257,0.758-0.169,1.107,0.204c0.674,0.723,1.384,1.415,2.106,2.092
			c1.476,1.384,3.222,2.162,5.257,2.231c0.96,0.032,1.92,0.026,2.881,0.038c0.882,0.011,1.442-0.37,1.57-1.281
			c0.97-0.005,1.94-0.009,2.911-0.014c0.324,1.052,0.646,1.292,1.831,1.294c3.551,0.006,7.102-0.015,10.653,0.006
			c7.508,0.044,15.021-0.19,22.524,0.121c5.474,0.227,10.884,0.967,16.051,2.939c0.768,0.293,1.571,0.549,2.283,1.328
			c-0.58,0-1.004-0.014-1.427,0.003c-0.907,0.038-1.439,0.525-1.438,1.297c0.001,0.764,0.533,1.271,1.437,1.311
			c0.697,0.031,1.398,0.029,2.095,0.001c0.456-0.018,0.69,0.069,0.67,0.608c-0.045,1.22-0.03,2.443-0.039,3.665
			c-2.658-0.016-2.609,0.296-3.62-2.481c-1.47-4.04-4.458-6.461-8.767-7.131c-3.834-0.596-7.092,0.603-9.799,3.297
			c-1.399,1.392-2.259,3.137-2.758,5.051c-0.188,0.72-0.186,0.721-0.707,0.754c0.679-1.487-0.012-2.361-1.873-2.151
			c-9.24,1.041-18.55,0.813-27.812-0.013C41.645,60.856,40.998,61.722,41.659,63.177z"/>
		<path class="st2" d="M30.08,70.729c-3.185-0.001-5.677-2.448-5.703-5.598c-0.026-3.169,2.612-5.736,5.85-5.662
			c3.132,0.072,5.539,2.575,5.505,5.708C35.698,68.307,33.238,70.73,30.08,70.729z M32.385,64.062
			c-0.041-0.459-0.268-0.867-0.757-1.109c-0.5-0.248-0.985-0.184-1.374,0.178c-0.742,0.691-1.459,1.411-2.158,2.147
			c-0.382,0.402-0.35,0.913-0.154,1.388c0.194,0.471,0.59,0.694,1.102,0.707C29.879,67.393,32.375,64.973,32.385,64.062z"/>
		<path class="st2" d="M84.656,70.729c-3.176-0.005-5.635-2.467-5.63-5.637c0.005-3.173,2.462-5.621,5.647-5.624
			c3.144-0.003,5.689,2.492,5.708,5.598C90.4,68.239,87.878,70.734,84.656,70.729z M83.559,62.82
			c-0.391,0.024-0.771,0.252-1.018,0.691c-0.272,0.484-0.247,0.986,0.114,1.379c0.705,0.768,1.442,1.51,2.211,2.214
			c0.389,0.356,0.902,0.372,1.389,0.14c0.468-0.223,0.666-0.617,0.675-1.124C86.944,65.284,84.507,62.813,83.559,62.82z"/>
		<path class="st2" d="M44.074,51.217c-1.505-0.06-1.379-0.055-2.884-0.115c-0.232-1.01-0.568-1.294-1.592-1.316
			c-0.843-0.018-1.687-0.023-2.53-0.013c-0.442,0.005-0.556-0.187-0.452-0.589c0.224-0.868,0.438-1.738,0.657-2.607
			c0.308-0.07,0.629-0.106,0.921-0.216c1.67-0.628,3.404-0.837,5.174-0.835c2.113,0.002,4.227,0.002,6.34,0.002
			c0.014,1.22,0.015,2.441,0.051,3.66c0.01,0.342-0.258,0.61-0.6,0.603c-1.075-0.025-2.152-0.011-3.227-0.006
			C44.73,49.79,44.471,50.008,44.074,51.217z"/>
		<path class="st3" d="M52.445,45.535c-0.018-0.811-0.03-1.622-0.058-2.433c-0.013-0.378,0.158-0.493,0.522-0.508
			c4.259-0.177,8.335,0.382,11.993,2.804c2.167,1.435,4.378,2.805,6.551,4.291c-1.85,0.088-3.682,0.161-5.516,0.037
			c-0.024-0.083-0.021-0.208-0.075-0.242c-1.788-1.124-3.497-2.368-5.507-3.125C57.775,45.386,55.112,45.515,52.445,45.535z"/>
		<path class="st2" d="M52.445,45.535c2.666-0.019,5.33-0.148,7.91,0.824c2.011,0.757,3.719,2.001,5.507,3.125
			c0.054,0.034,0.051,0.159,0.075,0.242c-2.027,0.019-4.053,0.047-6.08,0.056c-2.232,0.01-4.464-0.018-6.696,0.015
			c-0.614,0.009-0.805-0.186-0.777-0.789C52.439,47.851,52.429,46.692,52.445,45.535z"/>
		<path class="st3" d="M49.708,45.527c-2.113-0.001-4.227-0.001-6.34-0.002c-1.77-0.001-3.504,0.207-5.174,0.835
			c-0.293,0.11-0.613,0.146-0.921,0.216c0.189-0.935,0.386-1.869,0.564-2.806c0.074-0.388,0.341-0.46,0.672-0.554
			c1.463-0.417,2.961-0.575,4.469-0.605c2.03-0.04,4.061,0.003,6.091-0.024c0.524-0.007,0.734,0.139,0.697,0.683
			C49.716,44.021,49.725,44.775,49.708,45.527z"/>
		<path class="st2" d="M34.995,44.514c-0.319,1.398-0.604,2.544-0.836,3.702c-0.112,0.561-0.344,0.54-0.669,0.213
			c-0.672-0.675-1.324-1.371-2.055-2.133C32.561,45.733,33.675,45.175,34.995,44.514z"/>
		<path class="st19" d="M41.659,63.177c-0.661-1.455-0.015-2.32,1.754-2.163c9.262,0.825,18.572,1.054,27.812,0.013
			c1.86-0.21,2.551,0.665,1.873,2.151c-0.423,0.356-0.915,0.444-1.458,0.443c-9.508-0.008-19.016-0.008-28.524,0
			C42.573,63.621,42.082,63.533,41.659,63.177z"/>
		<path class="st20" d="M32.385,64.062c-0.01,0.912-2.506,3.331-3.341,3.31c-0.512-0.012-0.908-0.236-1.102-0.707
			c-0.196-0.475-0.228-0.986,0.154-1.388c0.699-0.735,1.415-1.456,2.158-2.147c0.389-0.362,0.874-0.426,1.374-0.178
			C32.117,63.195,32.344,63.603,32.385,64.062z"/>
		<path class="st20" d="M83.559,62.82c0.947-0.007,3.385,2.464,3.371,3.299c-0.008,0.507-0.206,0.901-0.675,1.124
			c-0.488,0.232-1.001,0.215-1.389-0.14c-0.769-0.704-1.506-1.446-2.211-2.214c-0.361-0.393-0.386-0.895-0.114-1.379
			C82.789,63.071,83.168,62.843,83.559,62.82z"/>
	</g>
</g>
</svg>
