<?xml version="1.0" encoding="utf-8"?>
<!-- Generator: Adobe Illustrator 26.4.1, SVG Export Plug-In . SVG Version: 6.00 Build 0)  -->
<svg version="1.1" id="Layer_1" xmlns="http://www.w3.org/2000/svg" xmlns:xlink="http://www.w3.org/1999/xlink" x="0px" y="0px"
	 viewBox="0 0 113.386 113.386" style="enable-background:new 0 0 113.386 113.386;" xml:space="preserve">
<style type="text/css">
	.st0{fill:#40A578;}
	.st1{fill:#9DDE8B;}
	.st2{fill:#FEFEFE;}
	.st3{fill:#E1E1E1;}
	.st4{fill:none;}
	.st5{fill:#030304;}
	.st6{fill:#030405;}
	.st7{fill:#010303;}
	.st8{fill:#010202;}
	.st9{fill:#FCFCFC;}
	.st10{fill:#FBFBFB;}
	.st11{fill:#FAFAFA;}
	.st12{fill:#D5D3D6;}
	.st13{fill:#817A83;}
	.st14{fill:#040404;}
	.st15{fill:#030303;}
	.st16{fill:#040506;}
	.st17{fill:#020202;}
	.st18{fill:#030404;}
	.st19{fill:#060708;}
	.st20{fill:#020102;}
	.st21{fill:#020303;}
	.st22{fill:#050606;}
	.st23{fill:#F7F5F5;}
	.st24{fill:#5D5B68;}
	.st25{fill:#54525E;}
	.st26{fill:#52505C;}
	.st27{fill:#221F27;}
	.st28{fill:#221F28;}
	.st29{fill:#010101;}
	.st30{fill:#BBE973;}
	.st31{fill:#98D43B;}
	.st32{fill:#BBE972;}
	.st33{fill:#D9DCE5;}
	.st34{fill:#1B97A6;}
</style>
<g>
	<g>
		<path d="M53.919,47.328c-4.167-2.687-8.302-5.352-12.436-8.018c-1.419-0.915-1.416-1.6,0.009-2.469
			c1.441-0.88,2.903-1.727,4.317-2.649c0.681-0.444,1.288-0.487,2.046-0.206c6.05,2.25,12.116,4.458,18.167,6.705
			c0.645,0.239,1.166,0.24,1.801-0.08c3.402-1.717,6.812-3.419,10.253-5.055c5.762-2.739,11.695-3.084,17.755-1.084
			c2.381,0.786,3.842,2.646,3.909,4.927c0.069,2.334-1.207,4.265-3.541,5.197c-7.075,2.823-14.16,5.622-21.249,8.409
			c-0.524,0.206-0.857,0.507-1.135,0.989c-4.83,8.37-9.684,16.725-14.504,25.1c-0.445,0.774-0.954,1.116-1.869,1.096
			c-2.564-0.056-5.131-0.014-7.696-0.022c-1.342-0.004-1.727-0.57-1.249-1.838c2.054-5.441,4.115-10.879,6.172-16.319
			c0.099-0.262,0.185-0.53,0.326-0.937c-2.589,0.994-5.045,1.937-7.5,2.882c-1.818,0.7-3.657,1.352-5.447,2.115
			c-4.061,1.731-7.842,0.971-11.187-1.574c-4.682-3.563-9.177-7.372-13.751-11.077c-0.996-0.807-2.009-1.595-2.98-2.432
			c-0.714-0.615-0.632-1.481,0.212-1.825c1.991-0.811,3.933-1.787,6.046-2.239c3.479-0.745,6.71-0.074,9.646,1.948
			c2.71,1.867,5.415,3.742,8.119,5.618c0.34,0.236,0.617,0.425,1.089,0.19c4.818-2.397,9.651-4.765,14.478-7.143
			C53.767,47.512,53.799,47.455,53.919,47.328z M59.163,44.803c0.674-0.225,1.287-0.574,1.902-0.921
			c1.009-0.484,2.018-0.969,3.055-1.466c-0.238-0.342-0.507-0.368-0.742-0.454c-4.915-1.808-9.857-3.549-14.73-5.465
			c-1.385-0.545-2.373-0.354-3.376,0.568c-0.284,0.17-0.568,0.34-0.853,0.51c-0.296,0.113-0.59,0.229-0.784,0.499
			c0.036,0.058,0.055,0.125,0.098,0.153c4.023,2.601,8.048,5.199,12.07,7.8c0.296,0.191,0.572,0.231,0.895,0.059
			C57.515,45.649,58.341,45.23,59.163,44.803z M61.074,55.631c-0.865,0.362-1.896,0.326-2.334,1.507
			c-2.484,6.695-5.024,13.368-7.568,20.04c-0.276,0.723-0.204,1.03,0.632,0.853c0.583-0.001,1.166-0.002,1.749-0.003
			c1.047,0.01,2.096-0.012,3.141,0.045c0.577,0.031,0.872-0.18,1.157-0.675c4.138-7.181,8.301-14.347,12.455-21.519
			c0.939-1.621,1.867-3.248,2.8-4.872c-0.041-0.053-0.083-0.107-0.124-0.16c-2.923,1.178-5.847,2.356-8.77,3.533
			C63.141,54.738,62.077,55.107,61.074,55.631z M18.77,52.005c4.521,3.675,8.96,7.458,13.594,10.983
			c2.601,1.979,5.612,2.485,8.828,1.163c3.953-1.625,7.925-3.229,11.977-4.579c2.133-0.711,3.539-1.764,3.945-4.013
			c0.113-0.627,0.569-0.953,1.168-1.169c1.257-0.454,2.492-0.971,3.736-1.463c4.328-1.71,8.657-3.416,12.981-5.135
			c0.524-0.208,1.015-0.315,1.444,0.151c0.459,0.498,0.303,1.009,0.006,1.524c-0.124,0.215-0.328,0.402-0.308,0.798
			c0.947-0.373,1.853-0.729,2.759-1.087c5.463-2.161,10.924-4.326,16.389-6.481c1.222-0.482,2.092-1.246,2.263-2.624
			c0.233-1.554-0.52-2.918-1.996-3.469c-1.947-0.727-3.97-1.135-6.045-1.254c-4.179-0.239-8.04,0.823-11.771,2.677
			c-12.665,6.293-25.368,12.509-38.045,18.78c-0.811,0.401-1.418,0.36-2.153-0.163c-2.658-1.889-5.411-3.648-8.029-5.591
			c-4.109-3.049-8.3-2.843-12.687-0.557C17.491,51.012,18.131,51.509,18.77,52.005z"/>
		<path class="st0" d="M97.553,40.075c-0.172,1.378-1.041,2.142-2.263,2.624c-5.465,2.155-10.926,4.32-16.389,6.481
			c-0.905,0.358-1.812,0.714-2.759,1.087c-0.019-0.397,0.185-0.583,0.308-0.798c0.297-0.516,0.452-1.027-0.006-1.524
			c-0.429-0.465-0.92-0.359-1.444-0.151c-4.324,1.718-8.653,3.425-12.981,5.135c-1.244,0.492-2.479,1.009-3.736,1.463
			c-0.6,0.217-1.055,0.543-1.168,1.169c-0.406,2.249-1.812,3.302-3.945,4.013c-4.052,1.35-8.024,2.953-11.977,4.579
			c-3.216,1.322-6.226,0.816-8.828-1.163c-4.634-3.526-9.073-7.308-13.594-10.983c2.656-1.013,5.323-1.05,8.016-0.134
			c1.969,0.669,3.53,2.005,5.213,3.138c1.808,1.217,3.578,2.492,5.375,3.727c0.814,0.56,1.636,0.736,2.612,0.248
			c3.723-1.864,7.478-3.665,11.216-5.5c3.922-1.925,7.839-3.859,11.757-5.792c4.728-2.332,9.486-4.605,14.172-7.018
			c3.942-2.03,8.053-3.178,12.497-2.865C92.414,38.006,95.169,38.421,97.553,40.075z"/>
		<path class="st1" d="M97.553,40.075c-2.385-1.654-5.139-2.069-7.926-2.266c-4.443-0.313-8.555,0.835-12.497,2.865
			c-4.686,2.413-9.444,4.686-14.172,7.018c-3.918,1.932-7.835,3.867-11.757,5.792c-3.738,1.834-7.493,3.636-11.216,5.5
			c-0.976,0.489-1.797,0.312-2.612-0.248c-1.797-1.235-3.566-2.509-5.375-3.727c-1.683-1.133-3.244-2.469-5.213-3.138
			c-2.693-0.916-5.36-0.878-8.016,0.134c-0.64-0.496-1.279-0.993-1.943-1.508c4.387-2.286,8.578-2.492,12.687,0.557
			c2.618,1.942,5.371,3.701,8.029,5.591c0.736,0.523,1.342,0.564,2.153,0.163c12.676-6.27,25.38-12.486,38.045-18.78
			c3.731-1.854,7.592-2.916,11.771-2.677c2.075,0.119,4.098,0.527,6.045,1.254C97.033,37.157,97.786,38.52,97.553,40.075z"/>
		<path class="st2" d="M64.21,54.38c2.923-1.178,5.847-2.356,8.77-3.533c0.041,0.053,0.083,0.107,0.124,0.16
			c-0.933,1.624-1.861,3.251-2.8,4.872c-4.154,7.172-8.317,14.338-12.455,21.519c-0.285,0.495-0.58,0.707-1.157,0.675
			c-1.045-0.057-2.094-0.034-3.141-0.044c0.497-1.112,0.989-2.226,1.493-3.334c2.343-5.154,4.705-10.3,7.026-15.464
			C62.795,57.618,63.658,56.067,64.21,54.38z"/>
		<path class="st3" d="M64.21,54.38c-0.552,1.687-1.416,3.239-2.14,4.85c-2.321,5.164-4.683,10.31-7.026,15.464
			c-0.504,1.109-0.996,2.223-1.493,3.334c-0.583,0.001-1.166,0.002-1.749,0.003c0.702-2.186,1.735-4.236,2.618-6.346
			c1.668-3.985,3.374-7.954,5.033-11.943c0.565-1.359,1.256-2.672,1.62-4.111C62.077,55.107,63.141,54.738,64.21,54.38z"/>
		<path class="st2" d="M45.271,37.064c1.003-0.922,1.992-1.112,3.377-0.568c4.873,1.916,9.815,3.657,14.73,5.465
			c0.235,0.086,0.504,0.113,0.742,0.454c-1.037,0.498-2.046,0.982-3.055,1.467c-0.355-0.195-0.696-0.421-1.067-0.579
			C55.092,41.218,50.181,39.142,45.271,37.064z"/>
		<path class="st3" d="M61.074,55.631c-0.364,1.439-1.055,2.752-1.62,4.111c-1.659,3.989-3.364,7.958-5.033,11.943
			c-0.884,2.111-1.916,4.161-2.618,6.346c-0.835,0.177-0.907-0.13-0.632-0.853c2.544-6.672,5.085-13.346,7.568-20.04
			C59.177,55.957,60.209,55.993,61.074,55.631z"/>
		<path class="st3" d="M59.163,44.803c-0.822,0.426-1.648,0.846-2.465,1.283c-0.322,0.172-0.599,0.132-0.895-0.059
			c-4.022-2.602-8.048-5.199-12.07-7.8c-0.044-0.028-0.062-0.095-0.098-0.153c0.194-0.27,0.488-0.387,0.784-0.499
			c0.504,0.525,1.216,0.645,1.835,0.946C50.557,40.614,54.86,42.709,59.163,44.803z"/>
		<path class="st3" d="M59.163,44.803c-4.303-2.095-8.606-4.189-12.909-6.283c-0.619-0.301-1.331-0.421-1.835-0.946
			c0.284-0.17,0.568-0.34,0.852-0.51c4.91,2.078,9.82,4.154,14.727,6.239c0.371,0.158,0.712,0.384,1.067,0.579
			C60.451,44.23,59.837,44.579,59.163,44.803z"/>
	</g>
	<rect x="0" y="0" class="st4" width="113.386" height="113.386"/>
</g>
</svg>
