<?xml version="1.0" encoding="utf-8"?>
<!-- Generator: Adobe Illustrator 26.4.1, SVG Export Plug-In . SVG Version: 6.00 Build 0)  -->
<svg version="1.1" id="Layer_1" xmlns="http://www.w3.org/2000/svg" xmlns:xlink="http://www.w3.org/1999/xlink" x="0px" y="0px"
	 viewBox="0 0 113.386 113.386" style="enable-background:new 0 0 113.386 113.386;" xml:space="preserve">
<style type="text/css">
	.st0{fill:#40A578;}
	.st1{fill:#9DDE8B;}
	.st2{fill:#FEFEFE;}
	.st3{fill:#E1E1E1;}
	.st4{fill:none;}
	.st5{fill:#030304;}
	.st6{fill:#030405;}
	.st7{fill:#010303;}
	.st8{fill:#010202;}
	.st9{fill:#FCFCFC;}
	.st10{fill:#FBFBFB;}
	.st11{fill:#FAFAFA;}
	.st12{fill:#D5D3D6;}
	.st13{fill:#817A83;}
	.st14{fill:#040404;}
	.st15{fill:#030303;}
	.st16{fill:#040506;}
	.st17{fill:#020202;}
	.st18{fill:#030404;}
	.st19{fill:#060708;}
	.st20{fill:#020102;}
	.st21{fill:#020303;}
	.st22{fill:#050606;}
	.st23{fill:#F7F5F5;}
	.st24{fill:#5D5B68;}
	.st25{fill:#54525E;}
	.st26{fill:#52505C;}
	.st27{fill:#221F27;}
	.st28{fill:#221F28;}
	.st29{fill:#010101;}
	.st30{fill:#BBE973;}
	.st31{fill:#98D43B;}
	.st32{fill:#BBE972;}
	.st33{fill:#D9DCE5;}
	.st34{fill:#1B97A6;}
</style>
<g>
	<rect class="st4" width="113.386" height="113.386"/>
	<g>
		<path class="st21" d="M56.694,21.478c19.452,0.001,35.254,15.818,35.212,35.246C91.864,76.199,76.02,92.002,56.631,91.908
			C37.164,91.813,21.517,76.151,21.48,56.722C21.442,37.293,37.244,21.477,56.694,21.478z"/>
		<g>
			<path class="st21" d="M55.627,93.465c-0.548-0.543-1.107-0.806-1.66-0.789c-0.44,0.015-0.842,0.215-1.16,0.578
				c-0.45,0.512-1.005,1.554,0.328,2.783l1.906,1.762c-0.227-0.013-0.442-0.033-0.655-0.053c-0.167-0.016-0.33-0.031-0.493-0.043
				c-9.194-0.654-17.357-4.033-24.263-10.042c-6.281-5.466-10.572-12.391-12.755-20.584c-0.497-1.865-1.766-1.758-2.289-1.626
				c-0.508,0.128-1.639,0.631-1.172,2.534c0.489,1.992,1.046,3.697,1.702,5.215c7.02,16.226,19.435,25.632,36.898,27.955
				c0.946,0.126,1.893,0.182,2.895,0.241c0.028,0.001,0.056,0.003,0.084,0.005c-0.641,0.64-1.248,1.245-1.863,1.841
				c-1.227,1.188-0.859,2.162-0.335,2.77c0.312,0.362,0.713,0.564,1.159,0.581c0.021,0.001,0.042,0.001,0.064,0.001
				c0.537,0,1.089-0.267,1.601-0.775c1.564-1.551,3.125-3.104,4.674-4.669c1.034-1.045,1.036-1.975,0.008-3.015
				C58.751,96.569,57.191,95.015,55.627,93.465z"/>
			<path class="st21" d="M15.376,60.184c1.49-1.482,2.977-2.968,4.46-4.457c1.447-1.453,0.72-2.493,0.34-2.873
				c-0.472-0.472-1.472-1.057-2.872,0.333c-0.269,0.267-0.536,0.536-0.803,0.804c-0.304,0.306-0.607,0.612-0.914,0.914
				c0.024-0.351,0.05-0.702,0.077-1.053c0.916-11.582,5.875-21.27,14.739-28.794c4.553-3.865,9.918-6.623,15.947-8.197
				c0.902-0.236,1.302-0.686,1.48-1.023c0.214-0.407,0.235-0.878,0.061-1.363c-0.208-0.58-0.793-1.497-2.358-1.115
				c-16.6,4.033-30.127,18.642-32.897,35.528c-0.36,2.192-0.573,4.223-0.646,6.174l-0.011-0.011
				c-0.631-0.659-1.262-1.318-1.906-1.963c-0.677-0.677-1.272-0.792-1.658-0.777c-0.452,0.022-0.858,0.24-1.176,0.629
				c-0.402,0.493-0.897,1.498,0.311,2.689c0.904,0.891,1.8,1.789,2.696,2.688c0.634,0.635,1.268,1.271,1.904,1.903
				c0.584,0.58,1.085,0.87,1.589,0.87C14.254,61.09,14.769,60.789,15.376,60.184z"/>
			<path class="st21" d="M57.746,19.917c0.553,0.55,1.121,0.812,1.66,0.799c0.437-0.016,0.835-0.218,1.154-0.584
				c0.447-0.514,1-1.56-0.315-2.786c-0.633-0.59-1.264-1.182-1.895-1.774c7.18,0.328,13.789,2.323,19.661,5.936
				c9.272,5.704,15.477,13.973,18.442,24.575c0.152,0.547,0.531,1.902,1.811,1.902c0.151,0,0.315-0.019,0.493-0.06
				c0.489-0.114,0.851-0.362,1.076-0.737c0.291-0.482,0.322-1.131,0.097-1.984c-0.953-3.614-2.208-6.779-3.836-9.676
				c-7.308-13.005-18.45-20.782-33.116-23.115c-1.514-0.241-3.05-0.348-4.613-0.413c0.659-0.658,1.266-1.263,1.88-1.86
				c1.22-1.186,0.854-2.163,0.331-2.773c-0.305-0.357-0.703-0.556-1.15-0.574c-0.576-0.018-1.148,0.244-1.68,0.773
				c-1.564,1.551-3.123,3.107-4.672,4.673c-1.041,1.053-1.04,1.951,0.003,3.004C54.626,16.808,56.184,18.366,57.746,19.917z"/>
			<path class="st21" d="M105.857,57.799c-0.702-0.697-1.401-1.397-2.1-2.098c-0.879-0.881-1.758-1.761-2.644-2.636
				c-1.043-1.029-1.943-1.017-3.009,0.041c-1.563,1.551-3.119,3.109-4.67,4.671c-0.522,0.526-0.786,1.096-0.763,1.649
				c0.019,0.451,0.225,0.857,0.597,1.176c0.494,0.422,1.504,0.946,2.698-0.292c0.607-0.631,1.217-1.259,1.828-1.887
				c-0.093,1.704-0.201,3.458-0.552,5.159C93.775,80.395,83.678,91.459,67.23,96.466c-0.61,0.186-2.233,0.68-1.766,2.355
				c0.142,0.509,0.551,1.244,1.733,1.244c0.291,0,0.629-0.044,1.021-0.148c17.902-4.726,31.144-20.321,32.95-38.808
				c0.086-0.879,0.146-1.76,0.212-2.726c0.002-0.023,0.003-0.046,0.005-0.069l0.027,0.028c0.672,0.701,1.293,1.348,1.911,1.997
				c0.473,0.497,0.972,0.75,1.483,0.754c0.305,0.009,0.783-0.094,1.249-0.57C106.841,59.721,106.767,58.703,105.857,57.799z"/>
		</g>
		<path class="st1" d="M88.12,59.771c-0.415,5.417-2.31,10.301-5.335,14.773c-0.592,0.875-1.178,1.762-1.966,2.485
			c-0.769,0.451-1.405,1.228-2.451,0.996c-3.213-4.062-7.13-7.198-11.981-9.106c-0.109-0.043-0.213-0.103-0.323-0.143
			c-1.955-0.715-1.946-0.714-1.852-2.743c0.019-0.42,0.118-0.73,0.459-1.016c2.209-1.85,3.862-4.139,5.149-6.698
			c0.243-0.484,0.512-0.714,1.071-0.704c0.644,0.012,1.218-0.284,1.756-0.624c2.542-1.606,3.75-5.819,2.436-8.527
			c-0.369-0.762-0.878-1.422-1.678-1.756c-0.502-0.209-0.582-0.441-0.436-0.972c0.849-3.088,0.713-6.147-0.419-9.152
			c0.683-0.1,1.098,0.373,1.515,0.765c5.05,4.755,8.051,10.506,8.496,17.502c0.055,0.862,0.178,1.721,0.266,2.581
			c0.146,1.442,1.275,2.34,2.848,2.497C86.511,60.014,87.29,59.557,88.12,59.771z"/>
		<path class="st23" d="M40.539,50.783c0.029-0.158,0.062-0.595,0.195-0.999c0.163-0.494,0.453-0.747,1.076-0.579
			c1.542,0.414,2.021,0.104,2.158-1.489c0.085-0.979,0.441-1.431,1.42-1.765c2.155-0.736,3.735-2.309,4.978-4.174
			c0.478-0.717,0.78-0.685,1.43-0.227c2.904,2.047,6.137,3.134,9.713,3.138c1.105,0.001,2.207,0.087,3.264,0.424
			c1.972,0.629,3.455,1.813,4.221,3.801c0.473,1.226,1.399,1.484,2.391,0.7c0.789-0.623,1.19-0.506,1.379,0.489
			c0.304,1.604-0.082,3.049-1.196,4.262c-0.358,0.39-0.754,0.591-1.36,0.371c-1.219-0.443-1.658-0.218-2.187,1.004
			c-0.913,2.109-2.089,4.047-3.615,5.773c-0.975,1.102-2.112,2.008-3.371,2.744c-3.457,2.021-7.31,1.497-10.658-1.424
			c-2.173-1.896-3.734-4.234-4.869-6.872c-0.632-1.469-0.884-1.602-2.402-1.179c-0.605,0.168-0.993-0.106-1.346-0.49
			C40.924,53.38,40.555,52.282,40.539,50.783z"/>
		<path class="st0" d="M42.766,70.951c-3.106,2.061-5.9,4.458-8.035,7.548c-0.481,0.696-0.744,0.215-1.056-0.119
			c-3.954-4.237-6.728-9.152-7.855-14.833C23.427,51.488,26.826,41.244,35.879,32.9c0.142-0.13,0.316-0.225,0.475-0.337
			c0.316,0.442,0.043,0.835-0.128,1.214c-2.308,5.129-3.242,10.516-2.838,16.104c0.44,6.103,2.493,11.656,6.072,16.632
			c0.827,1.15,1.694,2.267,2.723,3.253C42.504,70.074,42.949,70.372,42.766,70.951z"/>
		<path class="st1" d="M42.766,70.951c-1.792-1.975-3.568-3.963-4.937-6.271c-2.388-4.026-3.995-8.316-4.561-12.993
			c-0.793-6.559,0.165-12.815,3.024-18.776c0.049-0.102,0.042-0.23,0.062-0.346c4.893-4.246,10.582-6.635,17.013-7.292
			c-0.291,1.39-0.311,2.78-0.005,4.17c-1.25,0.745-2.49,1.504-3.517,2.557c-0.196,0.201-0.415,0.338-0.711,0.371
			c-0.35,0.04-0.695,0.129-1.04,0.203c-6.172,1.329-8.762,5.751-6.899,11.775c0.104,0.337,0.272,0.673,0.287,1.014
			c0.017,0.409,0.02,0.838-0.504,1.073c-2.572,1.152-3.39,2.456-3.181,5.177c0.139,1.816,0.823,3.427,2.113,4.747
			c0.501,0.513,1.085,1.091,1.774,1.09c1.523-0.002,1.96,1.057,2.557,2.12c1.143,2.034,2.593,3.843,4.364,5.38
			c0.449,0.389,0.789,2.759,0.454,3.186c-0.083,0.105-0.259,0.153-0.401,0.194C46.571,68.933,44.665,69.933,42.766,70.951z"/>
		<path class="st1" d="M75.401,78.873c2.089,2.591,1.965,1.88-0.362,3.546c-11.482,8.221-27.1,7.817-37.91-0.872
			c-0.648-0.521-0.672-0.817-0.194-1.468c1.958-2.67,4.316-4.885,7.128-6.633c0.528-0.328,0.766-0.383,1.147,0.24
			c3.412,5.582,8.895,7.806,15.156,6.211c0.112-0.028,0.234-0.016,0.351-0.022c1.798-0.083,3.591,0.11,5.388,0.137
			c2.729,0.041,5.386-0.342,8.022-0.975C74.548,78.937,74.966,78.85,75.401,78.873z"/>
		<path class="st0" d="M53.361,29.442c-0.84-1.391-0.782-2.781,0.006-4.17c16.413-2.006,32.205,10.058,34.557,26.396
			c0.388,2.694,0.642,5.39,0.196,8.104c-0.788,0.412-1.629,0.527-2.509,0.477c-1.901-0.107-3.103-1.348-3.157-3.254
			c-0.21-7.415-2.749-13.83-8.166-19.014c-0.542-0.518-1.106-0.995-1.737-1.395c-2.704-4.853-6.931-7.48-12.318-8.365
			C57.815,27.823,55.557,28.501,53.361,29.442z"/>
		<path class="st24" d="M68.278,43.696c-2.092-1.203-4.325-1.688-6.757-1.727c-3.558-0.057-6.761-1.272-9.438-3.701
			c-1.3-1.18-2.112-1.087-3.003,0.41c-1.094,1.84-2.256,3.579-4.262,4.594c-0.824,0.417-1.134,0.209-1.264-0.602
			c-0.288-1.808-0.467-3.598,0.877-5.127c1.569-0.263,2.65-1.436,3.984-2.136c1.56-0.156,2.879-0.809,3.982-1.915
			c2.019-0.969,4.107-0.674,6.107-0.098c3.209,0.924,5.928,2.719,8.099,5.275c0.93,1.096,1.517,2.389,1.814,3.802
			C68.506,42.891,68.644,43.325,68.278,43.696z"/>
		<path class="st23" d="M61.392,68.282c0.118,2.043,0.133,2.059,2.108,2.651c0.336,0.101,0.665,0.228,0.996,0.345
			c1.694,0.597,1.694,0.597,0.683,2.023c-4.283,6.043-13.485,5.762-17.363-0.516c-0.412-0.668-0.551-1.089,0.412-1.3
			c0.683-0.15,1.329-0.463,2.011-0.621c1.231-0.285,1.812-0.995,1.691-2.273c-0.04-0.423-0.006-0.853-0.006-1.414
			c1.46,0.596,2.858,0.945,4.296,1.118c1.157,0.253,2.308,0.171,3.467-0.019C60.246,68.184,60.827,67.923,61.392,68.282z"/>
		<path class="st25" d="M68.278,43.696c-0.167-2.969-1.781-5.16-3.988-6.891c-2.127-1.669-4.473-3.041-7.23-3.434
			c-1.553-0.222-3.114-0.14-4.663,0.122c2.577-2.501,5.701-3.155,9.04-2.25c3.415,0.926,6.364,2.731,8.224,5.9
			c1.418,2.415,1.315,5.014,0.726,7.638c-0.116,0.517-0.364,0.53-0.726,0.177C69.215,44.523,68.741,44.116,68.278,43.696z"/>
		<path class="st0" d="M75.401,78.873c-1.36,0.874-2.963,0.941-4.47,1.176c-3.292,0.512-6.618,0.425-9.928,0.016
			c-0.102-0.013-0.191-0.124-0.286-0.189c3.266-1.235,5.888-3.238,7.548-6.369c0.237-0.447,0.465-0.411,0.817-0.187
			C71.477,74.844,73.702,76.559,75.401,78.873z"/>
		<path class="st3" d="M61.392,68.282c-1.723,0.371-3.445,0.821-5.171,0.013c1.753-0.043,3.452-0.358,5.061-1.063
			C61.52,67.598,61.427,67.943,61.392,68.282z"/>
		<path class="st26" d="M48.416,35.408c-1.154,1.038-2.135,2.397-3.985,2.136C45.498,36.344,46.835,35.648,48.416,35.408z"/>
		<path class="st1" d="M78.367,78.025c0.817-0.332,1.634-0.664,2.451-0.996c-0.318,0.395-0.656,0.774-0.95,1.187
			C79.235,79.108,78.748,79.026,78.367,78.025z"/>
		<path class="st27" d="M56.619,60.266c-1.403-0.006-2.615-0.497-3.623-1.465c-0.591-0.568-0.711-1.245-0.172-1.895
			c0.533-0.643,1.25-0.706,1.889-0.198c1.341,1.067,2.61,1.07,3.951-0.004c0.635-0.509,1.357-0.441,1.885,0.208
			c0.53,0.652,0.41,1.336-0.181,1.897C59.322,59.801,58.067,60.291,56.619,60.266z"/>
		<path class="st28" d="M53.616,50.256c-0.019,1.031-0.894,1.86-1.915,1.814c-0.965-0.044-1.801-0.89-1.816-1.839
			c-0.016-1.015,0.836-1.842,1.897-1.841C52.858,48.393,53.635,49.183,53.616,50.256z"/>
		<path class="st28" d="M63.499,50.233c-0.015,0.992-0.935,1.87-1.936,1.847c-1.019-0.023-1.831-0.903-1.794-1.942
			c0.037-1.017,0.8-1.745,1.833-1.746C62.661,48.389,63.514,49.218,63.499,50.233z"/>
	</g>
</g>
</svg>
