<svg xmlns="http://www.w3.org/2000/svg" width="335.5" height="65.684" viewBox="0 0 335.5 65.684">
  <g id="infibusiness" transform="translate(-3.498 -2.461)">
    <g id="Group_700" data-name="Group 700" transform="translate(85.759 2.461)">
      <rect id="Rectangle_473" data-name="Rectangle 473" width="253.239" height="19.248" transform="translate(0 46.436)" fill="#30d5c8"/>
      <g id="Group_698" data-name="Group 698">
        <path id="Path_16" data-name="Path 16" d="M43.484,41.007V3.814H48.7v37.2H43.484Z" transform="translate(-43.484 -1.031)"/>
        <path id="Path_17" data-name="Path 17" d="M71.883,35.894h-5.09V19.829a6.078,6.078,0,0,0-10.4-4.285,5.787,5.787,0,0,0-1.78,4.285V35.894H49.527V8.977h5.088V10.43A10.6,10.6,0,0,1,60.7,8.65,11.126,11.126,0,0,1,71.883,19.829V35.894Z" transform="translate(-37.095 4.082)"/>
        <path id="Path_18" data-name="Path 18" d="M66.369,15.469V11.686a9.242,9.242,0,0,1,2.855-6.517,9.983,9.983,0,0,1,7.268-2.707V7.549a5.163,5.163,0,0,0-3.685,1.228,4.149,4.149,0,0,0-1.354,2.934v3.759h5.038v5.088H71.457V42.437H66.369V20.557H63.135V15.469Z" transform="translate(-22.708 -2.461)"/>
        <path id="Path_19" data-name="Path 19" d="M72.542,9.728a3.13,3.13,0,0,1-.928-2.255,3.2,3.2,0,1,1,6.39,0,3.124,3.124,0,0,1-.926,2.255,3.161,3.161,0,0,1-2.281.926A3.127,3.127,0,0,1,72.542,9.728Zm-.276,3.884h5.088V40.531H72.266Z" transform="translate(-13.744 -0.553)"/>
        <path id="Path_20" data-name="Path 20" d="M98.051,23.706a8.93,8.93,0,0,1,2.732,6.591,8.934,8.934,0,0,1-2.707,6.618A9.707,9.707,0,0,1,90.883,39.7v.025H77.9V5.032H91.233a8.3,8.3,0,0,1,5.915,2.759A8.906,8.906,0,0,1,99.9,14.333,8.9,8.9,0,0,1,97.2,20.924c-.2.218-.627.6-1.278,1.152A23.855,23.855,0,0,1,98.051,23.706ZM80.607,7.739V21h10a6.376,6.376,0,0,0,4.662-1.954,6.441,6.441,0,0,0,1.93-4.688,6.525,6.525,0,0,0-1.954-4.686,6.439,6.439,0,0,0-4.686-1.93H80.607ZM91.486,36.987a6.592,6.592,0,0,0,6.591-6.668A6.631,6.631,0,0,0,91.437,23.7H80.609V36.987H91.486Z" transform="translate(-7.098 0.257)"/>
        <path id="Path_21" data-name="Path 21" d="M92.167,10h2.582V24.867a7.369,7.369,0,1,0,14.738,0V10h2.582V34.466h-2.582V31.684a10.032,10.032,0,0,1-7.369,3.133A9.524,9.524,0,0,1,95.1,31.884a9.522,9.522,0,0,1-2.932-7.017V10Z" transform="translate(7.986 5.513)"/>
        <path id="Path_22" data-name="Path 22" d="M113.8,34.958a10.727,10.727,0,0,1-5.437-1.454,7.429,7.429,0,0,1-3.66-4.285l2.483-.7a5.138,5.138,0,0,0,2.631,2.882,8.359,8.359,0,0,0,4.01.977c.183,0,.389-.008.613-.025s.465-.043.716-.076a7.49,7.49,0,0,0,1.753-.525,4.309,4.309,0,0,0,2.532-3.736,3.153,3.153,0,0,0-.829-2.432,6.246,6.246,0,0,0-4.561-1.88q-5.539-.349-7.846-2.705a5.12,5.12,0,0,1-1.253-1.979,5.728,5.728,0,0,1-.3-1.88,6.5,6.5,0,0,1,2.607-5.39,9.343,9.343,0,0,1,5.89-1.88,8.981,8.981,0,0,1,6.793,2.882,10.111,10.111,0,0,1,1.5,2.055l.224.453-2.43.926-.1-.2a8.555,8.555,0,0,0-1.078-1.452,6.677,6.677,0,0,0-5.014-2.08c-.35.019-.652.043-.9.076a8.951,8.951,0,0,0-1.88.5,4.176,4.176,0,0,0-3.032,4.11q0,2.08,2.481,3.109a14.349,14.349,0,0,0,4.487.876,11.224,11.224,0,0,1,4.16,1.053,7.459,7.459,0,0,1,2.207,1.705A5.67,5.67,0,0,1,122,28.217a6.563,6.563,0,0,1-2.757,5.088,8.851,8.851,0,0,1-5.413,1.654H113.8Z" transform="translate(21.187 5.37)"/>
        <path id="Path_23" data-name="Path 23" d="M115.939,8.765a1.8,1.8,0,0,1-.576-1.354,1.835,1.835,0,0,1,.576-1.378,1.8,1.8,0,0,1,1.354-.574,1.83,1.83,0,0,1,1.378.574,1.831,1.831,0,0,1,.576,1.378,1.8,1.8,0,0,1-.576,1.354,1.82,1.82,0,0,1-1.378.576A1.782,1.782,0,0,1,115.939,8.765Zm.074,6.042H118.6V39.27h-2.584Z" transform="translate(32.51 0.709)"/>
        <path id="Path_24" data-name="Path 24" d="M140.307,34.605h-2.584V19.818a7.166,7.166,0,0,0-2.154-5.215,7.076,7.076,0,0,0-5.188-2.154,7.354,7.354,0,0,0-7.367,7.369V34.605H120.43V10.145h2.584V13a9.669,9.669,0,0,1,7.367-3.133,9.435,9.435,0,0,1,6.993,2.934,9.471,9.471,0,0,1,2.934,7.017Z" transform="translate(37.867 5.371)"/>
        <path id="Path_25" data-name="Path 25" d="M145.241,9.857a12.224,12.224,0,0,1,4.886,1,12.493,12.493,0,0,1,6.668,6.668,12.266,12.266,0,0,1,1,4.886v.2H135.39a9.32,9.32,0,0,0,.827,3.759,9.891,9.891,0,0,0,2.131,3.084,9.725,9.725,0,0,0,3.108,2.055,9.465,9.465,0,0,0,3.785.776,9.651,9.651,0,0,0,5.188-1.477,9.867,9.867,0,0,0,3.559-3.859l2.456,1.078a12.321,12.321,0,0,1-4.536,4.987,12.172,12.172,0,0,1-6.665,1.93,12.446,12.446,0,0,1-4.863-.977,12.377,12.377,0,0,1-6.69-6.69,12.542,12.542,0,0,1,2.681-13.736,12.7,12.7,0,0,1,4.01-2.681A12.108,12.108,0,0,1,145.241,9.857Zm9.548,10.076a9.861,9.861,0,0,0-9.55-7.394,9.5,9.5,0,0,0-6.065,2.1,9.764,9.764,0,0,0-3.483,5.289Z" transform="translate(50.854 5.358)"/>
        <path id="Path_26" data-name="Path 26" d="M156.285,34.958a10.727,10.727,0,0,1-5.437-1.454,7.429,7.429,0,0,1-3.66-4.285l2.483-.7A5.138,5.138,0,0,0,152.3,31.4a8.359,8.359,0,0,0,4.01.977c.183,0,.389-.008.613-.025s.465-.043.716-.076a7.49,7.49,0,0,0,1.753-.525,4.309,4.309,0,0,0,2.532-3.736,3.153,3.153,0,0,0-.829-2.432,6.246,6.246,0,0,0-4.561-1.88Q151,23.354,148.689,21a5.119,5.119,0,0,1-1.253-1.979,5.728,5.728,0,0,1-.3-1.88,6.5,6.5,0,0,1,2.607-5.39,9.343,9.343,0,0,1,5.89-1.88,8.981,8.981,0,0,1,6.793,2.882,10.111,10.111,0,0,1,1.5,2.055l.224.453-2.43.926-.1-.2a8.555,8.555,0,0,0-1.078-1.452,6.677,6.677,0,0,0-5.013-2.08c-.35.019-.652.043-.9.076a8.951,8.951,0,0,0-1.88.5,4.176,4.176,0,0,0-3.032,4.11q0,2.08,2.481,3.109a14.349,14.349,0,0,0,4.487.876,11.224,11.224,0,0,1,4.16,1.053,7.458,7.458,0,0,1,2.207,1.705,5.669,5.669,0,0,1,1.428,4.337A6.563,6.563,0,0,1,161.72,33.3a8.851,8.851,0,0,1-5.413,1.654h-.023Z" transform="translate(66.1 5.37)"/>
        <path id="Path_27" data-name="Path 27" d="M166.921,34.958a10.727,10.727,0,0,1-5.437-1.454,7.429,7.429,0,0,1-3.66-4.285l2.483-.7a5.138,5.138,0,0,0,2.631,2.882,8.36,8.36,0,0,0,4.01.977c.183,0,.389-.008.613-.025s.465-.043.716-.076a7.49,7.49,0,0,0,1.753-.525,4.305,4.305,0,0,0,2.532-3.736,3.153,3.153,0,0,0-.829-2.432,6.246,6.246,0,0,0-4.561-1.88q-5.539-.349-7.846-2.705a5.12,5.12,0,0,1-1.253-1.979,5.728,5.728,0,0,1-.3-1.88,6.5,6.5,0,0,1,2.607-5.39,9.343,9.343,0,0,1,5.89-1.88,8.981,8.981,0,0,1,6.793,2.882,10.111,10.111,0,0,1,1.5,2.055l.224.453-2.43.926-.1-.2a8.555,8.555,0,0,0-1.078-1.452,6.677,6.677,0,0,0-5.013-2.08c-.35.019-.652.043-.9.076a8.951,8.951,0,0,0-1.88.5,4.176,4.176,0,0,0-3.032,4.11q0,2.08,2.481,3.109a14.349,14.349,0,0,0,4.487.876,11.224,11.224,0,0,1,4.16,1.053,7.458,7.458,0,0,1,2.207,1.705,5.669,5.669,0,0,1,1.428,4.337,6.563,6.563,0,0,1-2.757,5.088,8.851,8.851,0,0,1-5.413,1.654h-.023Z" transform="translate(77.345 5.37)"/>
      </g>
      <g id="Group_699" data-name="Group 699" transform="translate(9.12 48.938)">
        <path id="Path_28" data-name="Path 28" d="M57.36,26.99v8.455l-9.443-9.2V39.7H50.1V31.289l9.443,9.2V26.99H57.36Z" transform="translate(-47.917 -26.249)" fill="#fff"/>
        <path id="Path_29" data-name="Path 29" d="M63.766,28.6v-2H55.187V39.323h8.579v-2h-6.4V33.933h5.164v-2H57.368V28.6h6.4Z" transform="translate(-40.231 -25.868)" fill="#fff"/>
        <path id="Path_30" data-name="Path 30" d="M60.3,26.609v2h4.711V39.323h2.2V28.6h4.649v-2Z" transform="translate(-34.828 -25.868)" fill="#fff"/>
        <path id="Path_31" data-name="Path 31" d="M82.2,26.609l-3.641,8.208-1.522-3.436-.226-.514-1.173-2.674-1.173,2.674-.617,1.378-1.131,2.572-3.641-8.208H66.727l5.987,13.557,2.921-6.624,2.921,6.624,5.987-13.557H82.2Z" transform="translate(-28.03 -25.868)" fill="#fff"/>
        <path id="Path_32" data-name="Path 32" d="M89.942,30.531a6.232,6.232,0,0,0-1.564-2.1,7.381,7.381,0,0,0-2.263-1.419,7.923,7.923,0,0,0-5.616,0,7.381,7.381,0,0,0-2.263,1.419,6.517,6.517,0,0,0-1.564,2.1,6.061,6.061,0,0,0-.555,2.551,6.223,6.223,0,0,0,.555,2.572,6.665,6.665,0,0,0,1.564,2.078,7.012,7.012,0,0,0,2.263,1.42,7.923,7.923,0,0,0,5.616,0,7.012,7.012,0,0,0,2.263-1.42,6.364,6.364,0,0,0,1.564-2.078,6.223,6.223,0,0,0,.555-2.572A6.06,6.06,0,0,0,89.942,30.531Zm-3.086,5.822a5.378,5.378,0,0,1-7.1,0,4.33,4.33,0,0,1,0-6.521,5.316,5.316,0,0,1,7.1,0,4.33,4.33,0,0,1,0,6.521Z" transform="translate(-18.103 -25.985)" fill="#fff"/>
        <path id="Path_33" data-name="Path 33" d="M92.407,34.941a4.1,4.1,0,0,0,1.358-1.378,4.279,4.279,0,0,0-.741-5.6,5.045,5.045,0,0,0-3.538-1.358H84.507V39.343h2.181v-3.58h2.057a3.515,3.515,0,0,1,2.489.946,2.967,2.967,0,0,1,1.029,2.284v.35h2.2v-.35a4.965,4.965,0,0,0-.679-2.53A5.066,5.066,0,0,0,92.407,34.941Zm-.926-1.934a2.87,2.87,0,0,1-2,.761h-2.8V28.625h2.8a2.889,2.889,0,0,1,2,.741A2.383,2.383,0,0,1,92.3,31.2,2.342,2.342,0,0,1,91.481,33.007Z" transform="translate(-9.232 -25.868)" fill="#fff"/>
        <path id="Path_34" data-name="Path 34" d="M95.352,32.884l6.851-6.275H99.137l-6.089,5.575V26.609H90.867V39.323h2.181V35l.761-.7,5.493,5.02h3.086Z" transform="translate(-2.508 -25.868)" fill="#fff"/>
        <path id="Path_35" data-name="Path 35" d="M105.06,26.329,99.2,39.619h2.345l.987-2.222h5.061l.987,2.222h2.345ZM103.414,35.4l1.646-3.724,1.646,3.724Z" transform="translate(6.299 -26.164)" fill="#fff"/>
        <path id="Path_36" data-name="Path 36" d="M115.56,26.99v8.455l-9.443-9.2V39.7H108.3V31.289l9.443,9.2V26.99H115.56Z" transform="translate(13.615 -26.249)" fill="#fff"/>
        <path id="Path_37" data-name="Path 37" d="M124.578,30.5a6.541,6.541,0,0,0-1.5-2.016,6.981,6.981,0,0,0-2.2-1.378,7.535,7.535,0,0,0-2.695-.494h-4.793V39.323h4.793a7.535,7.535,0,0,0,2.695-.494,6.981,6.981,0,0,0,2.2-1.378,6.708,6.708,0,0,0,1.5-2,6.155,6.155,0,0,0,.535-2.489A5.988,5.988,0,0,0,124.578,30.5Zm-3.045,5.555a4.8,4.8,0,0,1-3.353,1.275h-2.674V28.6h2.674a4.8,4.8,0,0,1,3.353,1.275,4.021,4.021,0,0,1,1.4,3.086A3.961,3.961,0,0,1,121.534,36.052Z" transform="translate(21.301 -25.868)" fill="#fff"/>
        <path id="Path_38" data-name="Path 38" d="M130.99,33.028c-.1-.1-.185-.165-.247-.226a3.217,3.217,0,0,0,1.111-2.53,3.329,3.329,0,0,0-1.173-2.572,4.541,4.541,0,0,0-3.189-1.09h-4.876V39.323h5.945a3.543,3.543,0,0,0,2.448-1.09,3.444,3.444,0,0,0,1.173-2.613A3.324,3.324,0,0,0,130.99,33.028ZM124.8,28.6h3.045a1.819,1.819,0,0,1,1.3.494,1.575,1.575,0,0,1,0,2.366,1.8,1.8,0,0,1-1.276.494H124.8Zm4.67,8.229a1.819,1.819,0,0,1-1.3.494H124.8V33.953h3.374a1.8,1.8,0,0,1,1.276.494,1.578,1.578,0,0,1,.021,2.386Z" transform="translate(31.059 -25.868)" fill="#fff"/>
        <path id="Path_39" data-name="Path 39" d="M137.226,28.6v-2h-8.579V39.323h8.579v-2h-6.4V33.933h5.164v-2h-5.164V28.6h6.4Z" transform="translate(37.435 -25.868)" fill="#fff"/>
        <path id="Path_40" data-name="Path 40" d="M143.043,26.609l-3.436,7.776-3.436-7.776h-2.345l4.608,10.43-2.489,5.575h2.366l7.077-16.005Z" transform="translate(42.911 -25.868)" fill="#fff"/>
        <path id="Path_41" data-name="Path 41" d="M154.4,30.531a6.173,6.173,0,0,0-1.543-2.1,7.24,7.24,0,0,0-2.284-1.419,7.507,7.507,0,0,0-2.8-.514,7.584,7.584,0,0,0-2.8.514,7.241,7.241,0,0,0-2.284,1.419,6.456,6.456,0,0,0-1.543,2.1,5.783,5.783,0,0,0-.576,2.551,5.936,5.936,0,0,0,.576,2.572,6.6,6.6,0,0,0,1.543,2.078,6.889,6.889,0,0,0,2.284,1.42,7.585,7.585,0,0,0,2.8.514,7.508,7.508,0,0,0,2.8-.514,6.889,6.889,0,0,0,2.284-1.42,6.3,6.3,0,0,0,1.543-2.078,5.936,5.936,0,0,0,.576-2.572A5.783,5.783,0,0,0,154.4,30.531Zm-3.065,5.822a5.4,5.4,0,0,1-7.118,0,4.33,4.33,0,0,1,0-6.521,5.343,5.343,0,0,1,7.118,0,4.33,4.33,0,0,1,0,6.521Z" transform="translate(50.048 -25.985)" fill="#fff"/>
        <path id="Path_42" data-name="Path 42" d="M158.39,26.99v8.455l-9.443-9.2V39.7h2.181V31.289l9.443,9.2V26.99H158.39Z" transform="translate(58.897 -26.249)" fill="#fff"/>
        <path id="Path_43" data-name="Path 43" d="M167.408,30.5a6.541,6.541,0,0,0-1.5-2.016,6.98,6.98,0,0,0-2.2-1.378,7.535,7.535,0,0,0-2.695-.494h-4.793V39.323h4.793a7.534,7.534,0,0,0,2.695-.494,6.981,6.981,0,0,0,2.2-1.378,6.708,6.708,0,0,0,1.5-2,6.155,6.155,0,0,0,.535-2.489A5.988,5.988,0,0,0,167.408,30.5Zm-3.045,5.555a4.8,4.8,0,0,1-3.353,1.275h-2.7V28.6h2.7a4.8,4.8,0,0,1,3.353,1.275,4.091,4.091,0,0,1,1.4,3.086A4.028,4.028,0,0,1,164.364,36.052Z" transform="translate(66.583 -25.868)" fill="#fff"/>
      </g>
    </g>
    <g id="Group_701" data-name="Group 701" transform="translate(3.498 2.461)">
      <path id="Path_44" data-name="Path 44" d="M47.445,37.139,3.517,19.619l.027,12.856L47.445,50Z" transform="translate(-3.478 15.679)" fill="#ffe625"/>
      <path id="Path_45" data-name="Path 45" d="M47.445,37.139l-43.9-4.664L3.517,19.619Z" transform="translate(-3.478 15.679)" fill="#f4cb00" opacity="0.4"/>
      <path id="Path_46" data-name="Path 46" d="M47.445,49.974V37.168L3.517,19.648Z" transform="translate(-3.478 15.71)" fill="#f4cb00" opacity="0.4"/>
      <path id="Path_47" data-name="Path 47" d="M24.87,45.983l21.7-9.371V23.423l-21.7,9.694Z" transform="translate(19.097 19.701)" fill="#ffe625"/>
      <path id="Path_48" data-name="Path 48" d="M24.87,2.461l21.7,9.192v13.24l-21.7-9.618Z" transform="translate(19.097 -2.461)" fill="#30d5c8"/>
      <path id="Path_49" data-name="Path 49" d="M69.143,32.554,3.544,10.9,3.517,23.751,69.143,49.857Z" transform="translate(-3.478 6.456)" fill="#30d5c8"/>
      <path id="Path_50" data-name="Path 50" d="M69.163,25.978,3.5,17.115,69.163,43.281Z" transform="translate(-3.498 13.032)" fill="#b6fff8" opacity="0.25"/>
      <path id="Path_51" data-name="Path 51" d="M3.5,23.7V10.888L69.163,49.865Z" transform="translate(-3.498 6.448)" fill="#b6fff8" opacity="0.25"/>
      <path id="Path_52" data-name="Path 52" d="M69.143,24.284,3.544,45.891,3.517,33.035,69.143,6.929Z" transform="translate(-3.478 2.263)" fill="#ffe625"/>
      <path id="Path_53" data-name="Path 53" d="M47.465,15.27,3.5,32.6V19.8L47.465,2.462Z" transform="translate(-3.498 -2.46)" fill="#30d5c8"/>
      <path id="Path_54" data-name="Path 54" d="M3.5,32.607,47.465,15.27V2.462Z" transform="translate(-3.498 -2.46)" fill="#b6fff8" opacity="0.25"/>
      <path id="Path_55" data-name="Path 55" d="M3.5,13.214,47.465,8.688,3.5,26.024Z" transform="translate(-3.498 4.122)" fill="#b6fff8" opacity="0.25"/>
      <path id="Path_56" data-name="Path 56" d="M69.143,6.929,3.517,33.035l.027,12.856Z" transform="translate(-3.478 2.263)" fill="#f4cb00" opacity="0.4"/>
      <path id="Path_57" data-name="Path 57" d="M69.143,24.284,3.517,33.035,69.143,6.929Z" transform="translate(-3.478 2.263)" fill="#f4cb00" opacity="0.4"/>
    </g>
  </g>
</svg>
