<?xml version="1.0" encoding="utf-8"?>
<!-- Generator: Adobe Illustrator 26.4.1, SVG Export Plug-In . SVG Version: 6.00 Build 0)  -->
<svg version="1.1" id="Layer_1" xmlns="http://www.w3.org/2000/svg" xmlns:xlink="http://www.w3.org/1999/xlink" x="0px" y="0px"
	 viewBox="0 0 113.386 113.386" style="enable-background:new 0 0 113.386 113.386;" xml:space="preserve">
<style type="text/css">
	.st0{fill:#40A578;}
	.st1{fill:#9DDE8B;}
	.st2{fill:#FEFEFE;}
	.st3{fill:#E1E1E1;}
	.st4{fill:none;}
	.st5{fill:#030304;}
	.st6{fill:#030405;}
	.st7{fill:#010303;}
	.st8{fill:#010202;}
	.st9{fill:#FCFCFC;}
	.st10{fill:#FBFBFB;}
	.st11{fill:#FAFAFA;}
	.st12{fill:#D5D3D6;}
	.st13{fill:#817A83;}
	.st14{fill:#040404;}
	.st15{fill:#030303;}
	.st16{fill:#040506;}
	.st17{fill:#020202;}
	.st18{fill:#030404;}
	.st19{fill:#060708;}
	.st20{fill:#020102;}
	.st21{fill:#020303;}
	.st22{fill:#050606;}
	.st23{fill:#F7F5F5;}
	.st24{fill:#5D5B68;}
	.st25{fill:#54525E;}
	.st26{fill:#52505C;}
	.st27{fill:#221F27;}
	.st28{fill:#221F28;}
	.st29{fill:#010101;}
	.st30{fill:#BBE973;}
	.st31{fill:#98D43B;}
	.st32{fill:#BBE972;}
	.st33{fill:#D9DCE5;}
	.st34{fill:#1B97A6;}
</style>
<g>
	<rect class="st4" width="113.386" height="113.386"/>
	<g>
		<path class="st21" d="M7.087,24.534c0.561-1.304,1.529-1.814,2.965-1.811c16.638,0.029,33.276,0.021,49.914,0.012
			c0.893,0,1.69,0.087,2.009,1.097c0.273,1.156-0.168,1.867-1.321,2.102c-0.542,0.111-1.094,0.074-1.642,0.074
			C43.418,26.01,27.824,26.01,12.229,26.01c-1.922,0-1.923,0.001-1.923,1.888c0,15.82,0,31.641,0,47.461
			c0,0.226-0.003,0.452,0.001,0.678c0.021,1.19,0.086,1.263,1.266,1.275c1.098,0.011,2.196,0.014,3.293-0.001
			c1.099-0.015,1.184-0.113,1.206-1.245c0.006-0.29,0.002-0.581,0.002-0.872c0-12.689,0-25.377-0.001-38.066
			c0-0.84-0.002-1.68,0.217-2.501c0.339-1.274,1.178-2.03,2.483-2.049c3.841-0.055,7.684-0.052,11.525-0.001
			c1.179,0.016,1.593,0.427,1.842,1.57c-0.164,1.294-0.723,1.838-2.103,1.901c-1.709,0.078-3.422,0.019-5.133,0.027
			c-1.356,0.006-2.712,0.015-4.068-0.003c-0.723-0.01-1.1,0.252-1.046,1.014c0.018,0.257,0,0.516,0,0.775c0,15.917,0,31.833,0,47.75
			c0,1.79,0.001,1.791,1.817,1.791c13.043,0,26.086-0.012,39.129,0.02c1.182,0.003,2.062-0.326,2.921-1.156
			c4.122-3.985,9.093-5.945,14.816-6.269c3.945-0.224,7.86,0.157,11.788,0.185c2.839,0.02,5.675-0.223,8.419-1.069
			c1.157-0.411,2.287-0.875,3.367-1.469c0.73-0.401,1.095-0.928,1.047-1.781c-0.045-0.804-0.009-1.614-0.009-2.421
			c0-11.752,0-23.505,0-35.257c0-0.258,0.002-0.517-0.001-0.775c-0.013-1.274-0.057-1.32-1.293-1.332
			c-1.033-0.011-2.066,0.022-3.099-0.018c-0.581,0.055-1.162,0.027-1.743,0.027c-19.303,0.002-38.606,0.002-57.909,0
			c-0.581,0-1.163,0.03-1.741-0.051c-0.956-0.135-1.629-0.59-1.783-1.615c-0.026-0.955,0.373-1.592,1.349-1.795
			c0.547-0.053,1.096-0.032,1.645-0.033c13.395-0.001,26.791-0.008,40.186,0.003c4.486,0.003,8.972-0.065,13.459-0.046
			c1.346,0.006,1.413-0.073,1.422-1.424c0.008-1.227,0.007-2.453,0-3.68c-0.008-1.375-0.059-1.424-1.403-1.435
			c-2.324-0.019-4.648,0.035-6.971-0.026c-5.887,0.046-11.774,0.018-17.661,0.014c-0.552,0-1.102-0.062-1.579-0.365
			c-0.595-0.378-0.967-0.862-0.606-1.61c0.187-0.902,0.76-1.284,1.659-1.283c9.105,0.005,18.211-0.005,27.316,0.01
			c1.613,0.003,2.516,0.909,2.543,2.53c0.037,2.227,0.034,4.456-0.004,6.683c-0.012,0.667,0.161,0.887,0.854,0.87
			c1.936-0.048,3.874-0.024,5.812-0.014c1.843,0.009,2.754,0.899,2.754,2.712c0.004,17.468,0.004,34.936,0,52.405
			c0,1.808-0.912,2.711-2.757,2.719c-3.358,0.014-6.716,0.004-10.074,0.004c-24.507,0-49.014,0-73.521,0
			c-0.258,0-0.517,0.005-0.775-0.001c-1.785-0.039-2.66-0.897-2.68-2.702c-0.024-2.163-0.04-4.327,0.012-6.49
			c0.018-0.749-0.22-0.92-0.931-0.901c-1.807,0.05-3.619-0.049-5.423,0.037c-1.475,0.07-2.492-0.446-3.061-1.813
			C7.087,60.705,7.087,42.62,7.087,24.534z"/>
		<path class="st1" d="M31.946,34.225c-0.154-0.996-0.738-1.419-1.739-1.414c-3.712,0.018-7.425-0.003-11.137,0.012
			c-1.628,0.007-2.492,0.865-2.581,2.496c-0.018,0.322-0.008,0.645-0.008,0.968c0,13.429-0.008,26.858,0.018,40.287
			c0.002,0.848-0.161,1.178-1.088,1.125c-1.512-0.087-3.035-0.071-4.549-0.003c-0.757,0.034-0.884-0.221-0.883-0.917
			c0.022-11.46,0.016-22.92,0.016-34.38c0-5.262,0.021-10.524-0.022-15.786c-0.007-0.831,0.23-0.985,1.014-0.984
			c16.334,0.024,32.669,0.019,49.003,0.017c1.524,0,1.972-0.416,1.986-1.816c1.099,0.605,2.25,0.284,3.387,0.191
			c0.149,1.249,0.579,1.623,1.918,1.624c5.614,0.004,11.228,0.001,16.842,0.004c0.354,0,0.707,0.028,1.06,0.043
			c0.281,0.314,0.302,0.704,0.305,1.093c0.013,1.581,0.024,3.163-0.003,4.744c-0.02,1.151-0.125,1.235-1.303,1.235
			c-15.428,0.001-30.855,0-46.283,0.004c-0.384,0-0.775-0.069-1.151,0.067c-0.594,0.276-0.962,0.721-1.032,1.388
			C34.459,34.696,33.203,34.694,31.946,34.225z"/>
		<path class="st23" d="M31.946,34.225c1.257,0,2.513-0.001,3.77-0.001c0.262,1.128,0.653,1.465,1.779,1.497
			c0.58,0.017,1.161,0.003,1.742,0.003c19.45,0,38.899,0,58.349,0.002c0.385,0,0.771,0.03,1.156,0.047
			c0.333,0.372,0.313,0.833,0.313,1.283c0.006,13.67,0.006,27.341,0,41.011c0,0.448,0.029,0.912-0.316,1.28
			c-2.781,1.001-5.68,1.107-8.587,1.103c-4.032-0.005-8.055-0.424-12.096-0.135c-5.812,0.415-10.793,2.582-14.82,6.823
			c-0.445,0.469-0.886,0.627-1.509,0.626c-13.784-0.014-27.568-0.019-41.352,0.008c-0.807,0.002-1.003-0.198-1.002-1.003
			c0.025-16.689,0.026-33.379,0-50.068c-0.001-0.816,0.212-1.009,1.01-0.997c3.227,0.048,6.456,0.027,9.684,0.016
			C31.285,35.716,31.675,35.385,31.946,34.225z"/>
		<path class="st3" d="M98.739,79.347c0.001-14.524,0.002-29.049,0.003-43.574c1.387-0.016,2.774-0.022,4.16-0.054
			c0.379-0.009,0.531,0.121,0.494,0.498c-0.019,0.192-0.003,0.387-0.003,0.581c0,13.141-0.008,26.283,0.02,39.424
			c0.002,0.754-0.221,1.16-0.876,1.498C101.306,78.353,100.101,79.027,98.739,79.347z"/>
		<path class="st1" d="M98.741,87.704c-0.224,0.016-0.449,0.046-0.673,0.046c-10.107,0.002-20.215,0.002-30.322,0.002
			c-0.217,0-0.434,0-0.885,0c2.131-1.862,4.374-3.029,6.866-3.74c3.271-0.933,6.619-0.983,9.984-0.865
			c3.934,0.139,7.871,0.44,11.798-0.094c1.082-0.147,2.153-0.378,3.23-0.57c0.215,0.18,0.273,0.433,0.283,0.689
			c0.05,1.277,0.05,2.555,0,3.833C99.012,87.268,98.92,87.506,98.741,87.704z"/>
		<path class="st0" d="M36.748,32.837c0.368-0.31,0.807-0.163,1.21-0.163c15.326-0.008,30.652-0.007,45.978-0.007
			c1.245,0,1.245-0.001,1.246-1.262c0.001-1.904,0.001-3.807,0.001-5.711c2.742-0.015,5.484-0.02,8.225-0.053
			c0.5-0.006,0.582,0.214,0.579,0.641c-0.015,1.936-0.029,3.873,0.007,5.809c0.012,0.629-0.244,0.742-0.8,0.738
			c-3.034-0.018-6.067-0.002-9.101-0.002C68.311,32.831,52.529,32.834,36.748,32.837z"/>
		<path class="st0" d="M98.741,87.704c-0.001-1.74-0.001-3.48-0.002-5.22c1.538-0.546,3.093-1.049,4.652-1.919
			c0,2.328-0.006,4.509,0.006,6.689c0.002,0.374-0.124,0.51-0.5,0.502C101.512,87.727,100.126,87.72,98.741,87.704z"/>
		<path class="st21" d="M24.849,58.311c0.026-9.496,7.695-17.137,17.193-17.127c9.471,0.01,17.171,7.719,17.161,17.182
			c-0.01,9.485-7.781,17.176-17.313,17.134C32.475,75.458,24.824,67.741,24.849,58.311z"/>
		<path class="st21" d="M80.106,69.454c4.289,0,8.577,0.003,12.866-0.004c0.598-0.001,1.16,0.031,1.561,0.565
			c0.592,0.79,0.275,1.852-0.661,2.221c-0.406,0.16-0.825,0.124-1.242,0.124c-8.352,0.002-16.703,0.001-25.055,0.001
			c-0.193,0-0.388,0.009-0.58-0.003c-1.039-0.062-1.639-0.644-1.6-1.544c0.038-0.862,0.611-1.354,1.651-1.356
			c3.966-0.009,7.932-0.004,11.899-0.004C79.332,69.454,79.719,69.454,80.106,69.454z"/>
		<path class="st29" d="M80.819,48.066c-4.197,0-8.395,0.001-12.592-0.003c-0.354,0-0.716,0.003-1.06-0.068
			c-0.734-0.153-1.105-0.682-1.109-1.388c-0.003-0.664,0.346-1.182,1.028-1.354c0.338-0.085,0.702-0.091,1.055-0.091
			c8.427-0.005,16.854-0.004,25.282-0.002c0.29,0,0.585-0.007,0.868,0.046c0.769,0.145,1.192,0.624,1.186,1.413
			c-0.006,0.784-0.418,1.272-1.197,1.397c-0.348,0.056-0.708,0.048-1.062,0.048C89.085,48.067,84.952,48.066,80.819,48.066z"/>
		<path class="st29" d="M80.14,62.816c4.166,0,8.331-0.001,12.497,0.002c0.354,0,0.717-0.009,1.06,0.06
			c0.731,0.147,1.114,0.66,1.127,1.373c0.012,0.672-0.346,1.175-1.013,1.368c-0.304,0.088-0.637,0.1-0.957,0.1
			c-8.493,0.005-16.985,0.005-25.478,0c-0.32,0-0.654-0.007-0.958-0.094c-0.712-0.202-1.055-0.714-1.019-1.448
			c0.034-0.694,0.409-1.15,1.088-1.295c0.342-0.073,0.706-0.064,1.06-0.064C71.744,62.815,75.942,62.816,80.14,62.816z"/>
		<path class="st29" d="M86.72,51.792c2.321,0,4.642-0.007,6.963,0.003c1.196,0.005,1.784,0.479,1.8,1.408
			c0.017,0.966-0.604,1.49-1.837,1.493c-4.61,0.009-9.22,0.009-13.829-0.001c-1.16-0.002-1.792-0.526-1.811-1.432
			c-0.021-0.937,0.629-1.465,1.849-1.469C82.142,51.786,84.431,51.792,86.72,51.792z"/>
		<path class="st29" d="M40.712,82.909c-1.804,0-3.607,0.008-5.411-0.003c-1.137-0.007-1.761-0.548-1.741-1.47
			c0.019-0.872,0.642-1.424,1.713-1.429c3.672-0.014,7.344-0.016,11.015,0.001c1.074,0.005,1.683,0.562,1.692,1.447
			c0.01,0.924-0.604,1.444-1.761,1.45C44.384,82.917,42.548,82.909,40.712,82.909z"/>
		<path class="st30" d="M45.078,72.208c-4.521,1.032-8.549-0.043-12.136-2.892c-1.771-1.407-3.073-3.193-3.997-5.262
			c-0.202-0.452-0.241-0.8,0.073-1.231c2.012-2.761,3.987-5.549,6.002-8.309c0.713-0.976,1.157-1.027,1.929-0.366
			c0.187,0.815-0.116,1.597-0.205,2.386c-0.312,2.765,0.201,5.374,1.323,7.885c1.328,2.973,3.453,5.236,6.217,6.927
			C44.621,71.552,45.072,71.684,45.078,72.208z"/>
		<path class="st1" d="M40.838,54.179c-0.495-0.594-0.982-1.194-1.486-1.78c-1.901-2.207-4.535-2.237-6.379,0.057
			c-1.554,1.932-2.944,3.996-4.406,6.002c-0.202,0.277-0.404,0.553-0.716,0.981c-0.23-2.162,0.069-4.066,0.737-5.925
			c2.777-7.726,11.555-11.529,19.075-8.263c0.114,0.05,0.215,0.129,0.322,0.195c0.075,0.428-0.296,0.541-0.54,0.702
			c-2.781,1.826-4.713,4.337-6.016,7.367C41.309,53.793,41.267,54.165,40.838,54.179z"/>
		<path class="st31" d="M45.078,72.208c-1.112-0.868-2.347-1.551-3.423-2.49c-2.129-1.857-3.563-4.151-4.462-6.768
			c-0.936-2.722-1.056-5.532-0.429-8.357c0.034-0.155,0.122-0.297,0.185-0.445c2.356,2.812,4.714,5.622,7.069,8.436
			c1.882,2.248,3.734,4.522,5.654,6.737c0.528,0.609,0.398,0.84-0.221,1.186C48.068,71.279,46.664,71.969,45.078,72.208z"/>
		<path class="st0" d="M40.838,54.179c0.698-1.36,1.286-2.772,2.159-4.046c1.325-1.933,3.106-3.358,4.989-4.687
			c4.576,2.144,7.224,5.758,8.124,10.691c0.208,1.141,0.26,2.296,0.116,3.495c-0.404-0.026-0.53-0.366-0.721-0.587
			c-1.667-1.927-3.325-3.862-4.979-5.8c-1.744-2.044-4.22-2.127-6.034-0.133c-0.796,0.875-1.468,1.863-2.242,2.859
			C41.749,55.336,41.294,54.758,40.838,54.179z"/>
		<path class="st31" d="M48.379,55.303c2.222,2.555,4.441,5.111,6.668,7.662c0.237,0.271,0.304,0.504,0.14,0.863
			c-0.483,1.055-0.986,2.093-1.753,2.979c-2.989-1.82-4.579-4.579-5.294-7.915c-0.175-0.816-0.289-1.644-0.221-2.485
			C47.953,55.991,47.969,55.564,48.379,55.303z"/>
		<path class="st32" d="M48.379,55.303c-0.604,3.167,0.398,5.933,2.153,8.498c0.6,0.877,1.338,1.629,2.211,2.252
			c0.268,0.191,0.648,0.334,0.691,0.753c-0.947,1.404-0.939,1.398-1.982,0.146c-2.224-2.669-4.438-5.345-6.699-7.982
			c-0.475-0.554-0.464-0.923-0.016-1.453c0.621-0.736,1.146-1.553,1.757-2.298C47.215,54.341,47.629,54.377,48.379,55.303z"/>
	</g>
</g>
</svg>
