<?xml version="1.0" encoding="utf-8"?>
<!-- Generator: Adobe Illustrator 26.4.1, SVG Export Plug-In . SVG Version: 6.00 Build 0)  -->
<svg version="1.1" id="Layer_1" xmlns="http://www.w3.org/2000/svg" xmlns:xlink="http://www.w3.org/1999/xlink" x="0px" y="0px"
	 viewBox="0 0 113.386 113.386" style="enable-background:new 0 0 113.386 113.386;" xml:space="preserve">
<style type="text/css">
	.st0{fill:#40A578;}
	.st1{fill:#9DDE8B;}
	.st2{fill:#FEFEFE;}
	.st3{fill:#E1E1E1;}
	.st4{fill:none;}
	.st5{fill:#030304;}
	.st6{fill:#030405;}
	.st7{fill:#010303;}
	.st8{fill:#010202;}
	.st9{fill:#FCFCFC;}
	.st10{fill:#FBFBFB;}
	.st11{fill:#FAFAFA;}
	.st12{fill:#D5D3D6;}
	.st13{fill:#817A83;}
	.st14{fill:#040404;}
	.st15{fill:#030303;}
	.st16{fill:#040506;}
	.st17{fill:#020202;}
	.st18{fill:#030404;}
	.st19{fill:#060708;}
	.st20{fill:#020102;}
	.st21{fill:#020303;}
	.st22{fill:#050606;}
	.st23{fill:#F7F5F5;}
	.st24{fill:#5D5B68;}
	.st25{fill:#54525E;}
	.st26{fill:#52505C;}
	.st27{fill:#221F27;}
	.st28{fill:#221F28;}
	.st29{fill:#010101;}
	.st30{fill:#BBE973;}
	.st31{fill:#98D43B;}
	.st32{fill:#BBE972;}
	.st33{fill:#D9DCE5;}
	.st34{fill:#1B97A6;}
</style>
<g>
	<g>
		<path d="M77.446,50.177c0.999-0.235,1.28-0.117,1.797,0.779c0.563,0.977,1.155,1.939,1.662,2.944
			c0.28,0.555,0.612,0.728,1.239,0.741c4.013,0.082,7.179,1.756,9.348,5.177c0.989,1.56,0.752,2.575-0.796,3.621
			c1.41,1.239,2.505,2.701,3.13,4.473c1.075,3.521,0.422,6.032,0.302,6.467c-1.315,4.788-5.809,8.06-10.76,7.809
			c-4.946-0.251-9.13-3.964-9.919-8.844c-0.083-0.515-0.22-0.681-0.726-0.541c-0.933,0.258-1.894,0.269-2.854,0.269
			c-7.596,0.001-15.192,0.01-22.788-0.016c-0.675-0.002-0.879,0.177-1.016,0.85c-0.986,4.834-5.46,8.361-10.439,8.297
			c-5.019-0.064-9.374-3.644-10.274-8.501c-0.105-0.565-0.319-0.653-0.809-0.639c-1.032,0.031-2.065,0.029-3.097,0.001
			c-1.328-0.035-2.409-0.988-2.451-2.278c-0.104-3.172-0.098-6.341,0.99-9.394c2.274-6.381,6.65-10.582,13.088-12.653
			c0.163-0.053,0.327-0.114,0.496-0.137c0.493-0.069,0.56-0.238,0.241-0.645c-0.706-0.899-0.998-1.959-1.057-3.084
			c-0.069-1.317,0.936-2.45,2.276-2.496c1.449-0.049,2.9-0.023,4.35-0.023c3.835-0.002,7.67-0.011,11.505,0.003
			c3.409,0.012,5.897,1.819,6.902,5.015c0.29,0.922,0.356,1.834-0.026,2.795c-0.859,2.165-1.649,4.357-2.427,6.553
			c-1.426,4.023,0.569,8.189,4.493,9.435c0.516,0.164,1.043,0.283,1.588,0.286c2.089,0.009,4.179,0.037,6.268,0.01
			c1.33-0.018,2.073-0.708,2.43-2.132c0.642-2.559,0.672-5.155,0.443-7.762c-0.387-4.403-1.477-8.649-2.907-12.817
			c-0.272-0.793-0.937-0.688-1.517-0.593c-1.453,0.238-2.894,0.544-4.341,0.817c-0.939,0.177-1.612-0.341-1.52-1.169
			c0.067-0.606,0.473-0.887,1.025-0.994c1.277-0.249,2.551-0.511,3.835-0.719c0.444-0.072,0.562-0.254,0.559-0.673
			c-0.005-0.781-0.066-1.563,0.198-2.334c0.157-0.46-0.8-1.437-1.357-1.438c-1.426-0.001-2.852,0.019-4.277,0.014
			c-2.302-0.007-3.726-2.396-2.675-4.475c0.353-0.698,0.977-0.95,1.698-0.965c1.499-0.031,2.999-0.029,4.498-0.032
			c0.628-0.001,1.143,0.263,1.541,0.741c0.77,0.925,1.534,1.857,2.297,2.788c0.319,0.389,0.457,0.81,0.201,1.293
			c-0.076,0.143-0.234,0.277-0.087,0.461c0.165,0.208,0.364,0.078,0.542,0.033c2.285-0.569,4.568-1.145,6.853-1.714
			c0.571-0.142,1.141-0.309,1.721-0.385c1.185-0.155,2.147,0.657,2.169,1.849c0.031,1.696,0.026,3.392,0.003,5.088
			c-0.015,1.078-0.835,1.883-1.931,1.926c-0.687,0.027-1.375,0.005-2.203,0.005c0.514,0.911,0.966,1.76,1.464,2.581
			c0.411,0.679,0.434,1.284-0.182,1.843c-0.895,0.268-1.234,0.143-1.699-0.661c-0.64-1.105-1.267-2.218-1.902-3.326
			c-0.118-0.206-0.198-0.445-0.521-0.438c-0.705,0.016-1.41,0.005-2.169,0.005c0.05,0.192,0.073,0.309,0.11,0.421
			c1.199,3.669,2.164,7.392,2.619,11.236c0.398,3.362,0.474,6.706-0.361,10.025c-0.592,2.353-2.23,3.693-4.649,3.716
			c-1.918,0.018-3.836,0.021-5.753,0c-6.198-0.068-10.602-6.041-8.789-11.976c0.595-1.945,1.347-3.843,2.062-5.75
			c0.221-0.589,0.182-0.797-0.531-0.793c-5.335,0.026-10.671,0.018-16.006,0.012c-0.987-0.001-1.97,0.064-2.933,0.25
			c-5.463,1.056-9.588,4.006-12.315,8.856c-0.967,1.719-1.655,3.556-1.848,5.545c-0.43,1.861-0.264,3.753-0.281,5.634
			c-0.004,0.423,0.334,0.413,0.637,0.413c1.399,0,2.797,0.001,4.196,0c5.815-0.007,11.629-0.014,17.444-0.021
			c2.264-0.001,4.528-0.002,6.792-0.002c0.122,0.008,0.245,0.023,0.367,0.023c6.607,0.001,13.213,0.003,19.82-0.004
			c0.439,0,0.878-0.101,1.318-0.102c0.522-0.001,0.634-0.247,0.634-0.729c-0.002-1.755,0.317-3.466,0.887-5.122
			c1.163-3.377,3.086-6.286,5.567-8.83c0.379-0.389,0.418-0.653,0.138-1.104c-0.582-0.937-1.079-1.927-1.656-2.868
			C76.914,51.41,76.851,50.787,77.446,50.177z M73.864,41.029c0.831,0.008,1.663,0.011,2.494,0.028
			c0.278,0.006,0.459-0.025,0.455-0.382c-0.015-1.318-0.006-2.637-0.006-4.031c-1.025,0.265-1.986,0.513-2.948,0.762
			c-1.493,0.374-2.986,0.748-4.479,1.12c-1.567,0.391-1.554,0.389-1.47,2.033c0.02,0.383,0.143,0.507,0.519,0.502
			C70.241,41.039,72.053,41.037,73.864,41.029z M34.009,79.739c0.905,0.227,1.81,0.229,2.743,0.152
			c3.239-0.267,6.484-3.121,7.114-6.308c0.08-0.407-0.028-0.523-0.427-0.513c-0.881,0.023-1.762,0.014-2.643,0.018
			c-3.387,0.002-6.775,0.005-10.162,0.007c-0.883-0.006-1.766-0.007-2.649-0.021c-0.314-0.005-0.494,0.01-0.411,0.438
			C28.155,76.508,31.046,79.321,34.009,79.739z M79.038,69.364c-0.146-0.309-0.284-0.623-0.439-0.927
			c-0.453-0.884-0.542-0.898-1.091-0.063c-0.268,0.408-0.449,0.871-0.682,1.303c-0.197,0.366-0.335,0.816-0.634,1.067
			c-0.737,0.616-0.709,1.333-0.586,2.181c0.488,3.344,3.413,6.392,6.64,6.844c0.96,0.286,1.924,0.246,2.908,0.11
			c3.727-0.516,6.716-3.569,7.097-7.492c0.348-3.588-1.636-7.026-5.019-8.48c-0.186-0.08-0.363-0.143-0.566-0.098
			c-0.742,0.163-1.484,0.324-2.226,0.483c-0.309,0.067-0.498,0.162-0.278,0.533c0.309,0.525,0.575,1.075,0.859,1.614
			c0.516,1.002,1.025,2.008,1.549,3.006c0.404,0.769,0.558,1.574,0.341,2.42c-0.361,1.404-1.289,2.252-2.701,2.48
			c-1.394,0.225-2.531-0.311-3.264-1.51C80.256,71.712,79.669,70.524,79.038,69.364z M49.497,44.604
			c-4.645-0.009-9.289-0.019-13.934-0.028c-0.074,0-0.147,0.003-0.221,0.005c-0.243,0.008-0.323,0.137-0.345,0.375
			c-0.125,1.346,1.408,3.014,2.788,3.012c2.433-0.004,4.866-0.007,7.299-0.019c1.67-0.008,3.339-0.031,5.009-0.048
			c1.716,0.136,3.434,0.016,5.151,0.064c0.479,0.013,0.387-0.226,0.265-0.502c-0.599-1.355-1.581-2.293-3.013-2.715
			C51.513,44.458,50.501,44.58,49.497,44.604z M74.791,68.649c0.545-1.184,1.257-2.227,2.254-3.059
			c1.995-1.665,4.279-2.756,6.775-3.444c1.761-0.486,3.561-0.696,5.373-0.826c0.532-0.038,0.505-0.233,0.267-0.577
			c-0.098-0.141-0.182-0.293-0.288-0.428c-1.932-2.466-4.493-3.551-7.592-3.481c-0.334,0.008-0.543,0.162-0.756,0.379
			c-2.121,2.159-3.867,4.574-5.035,7.381C75.251,65.888,74.861,67.223,74.791,68.649z M84.776,71.07
			c0.015-0.253-0.136-0.509-0.271-0.769c-0.666-1.282-1.334-2.562-1.997-3.845c-0.712-1.378-0.697-1.358-2.03-0.568
			c-0.452,0.268-0.474,0.501-0.242,0.928c0.806,1.484,1.577,2.987,2.37,4.478c0.113,0.213,0.256,0.42,0.423,0.594
			c0.301,0.313,0.669,0.387,1.074,0.202C84.516,71.9,84.771,71.601,84.776,71.07z M64.419,34.438
			c-0.384-0.81-0.872-1.133-1.677-1.061c-0.853,0.076-1.718,0.023-2.578,0.031c-0.285,0.003-0.627-0.075-0.598,0.408
			c0.024,0.409,0.194,0.629,0.636,0.626C61.576,34.431,62.949,34.438,64.419,34.438z"/>
		<path class="st0" d="M77.446,50.177c-0.595,0.61-0.532,1.233-0.109,1.923c0.577,0.941,1.074,1.93,1.656,2.868
			c0.28,0.451,0.241,0.716-0.138,1.104c-2.48,2.545-4.404,5.453-5.567,8.83c-0.571,1.657-0.889,3.367-0.887,5.122
			c0.001,0.482-0.111,0.728-0.634,0.729c-0.439,0.001-0.878,0.102-1.318,0.102c-6.607,0.007-13.213,0.005-19.82,0.004
			c-0.122,0-0.245-0.015-0.367-0.023c-0.014-0.954,0.084-1.926-0.062-2.86c-0.691-4.421-3.078-7.515-7.324-9.092
			c-0.995-0.35-2.016-0.563-3.075-0.563c-2.63-0.001-5.261-0.013-7.891,0.004c-2.163,0.014-4.136,0.688-5.974,1.798
			c-1.915,1.157-3.306,2.812-4.461,4.691c0.194-1.989,0.882-3.826,1.848-5.545c2.727-4.85,6.852-7.8,12.315-8.856
			c0.963-0.186,1.947-0.252,2.933-0.25c5.335,0.006,10.671,0.014,16.006-0.012c0.713-0.003,0.752,0.204,0.531,0.793
			c-0.715,1.907-1.468,3.805-2.062,5.75c-1.814,5.935,2.59,11.908,8.789,11.976c1.918,0.021,3.836,0.018,5.753,0
			c2.419-0.022,4.057-1.363,4.649-3.716c0.835-3.319,0.759-6.664,0.361-10.025c-0.455-3.843-1.42-7.566-2.619-11.236
			c-0.037-0.112-0.06-0.229-0.11-0.421c0.758,0,1.464,0.011,2.169-0.005c0.323-0.007,0.403,0.231,0.521,0.438
			c0.636,1.108,1.262,2.221,1.902,3.326c0.466,0.804,0.805,0.929,1.699,0.661C76.589,48.52,77.017,49.349,77.446,50.177z"/>
		<path class="st1" d="M21.476,64.814c1.155-1.879,2.546-3.534,4.461-4.691c1.838-1.11,3.811-1.784,5.974-1.798
			c2.63-0.017,5.261-0.005,7.891-0.004c1.059,0,2.079,0.214,3.075,0.564c0.608,1.014,0.616,2.127,0.604,3.265
			c-0.03,2.896-0.01,5.793-0.01,8.689c-5.815,0.007-11.629,0.015-17.444,0.021c-1.399,0.002-2.797,0-4.196,0
			c-0.303,0-0.641,0.011-0.637-0.413C21.212,68.567,21.046,66.675,21.476,64.814z"/>
		<path class="st3" d="M85.019,66.44c-0.284-0.539-0.55-1.09-0.859-1.614c-0.219-0.372-0.031-0.467,0.278-0.533
			c0.742-0.16,1.485-0.321,2.226-0.483c0.204-0.045,0.381,0.018,0.566,0.098c3.384,1.454,5.368,4.891,5.019,8.48
			c-0.381,3.922-3.369,6.975-7.097,7.492c-0.984,0.136-1.948,0.177-2.908-0.11c0.112-0.345,0.467-0.412,0.703-0.615
			c0.758-0.653,1.563-1.261,1.978-2.219c0.185-0.064,0.369-0.131,0.554-0.193c3.041-1.011,4.524-4.097,3.423-7.124
			C88.293,67.936,86.534,66.498,85.019,66.44z"/>
		<path class="st1" d="M43.47,70.839c0-2.896-0.019-5.793,0.01-8.689c0.012-1.138,0.004-2.251-0.604-3.265
			c4.246,1.577,6.634,4.671,7.324,9.092c0.146,0.934,0.048,1.906,0.062,2.86C47.999,70.838,45.735,70.838,43.47,70.839z"/>
		<path class="st1" d="M74.791,68.649c0.07-1.425,0.459-2.761,0.998-4.055c1.168-2.807,2.913-5.222,5.035-7.381
			c0.213-0.217,0.422-0.371,0.756-0.379c3.099-0.071,5.66,1.015,7.592,3.481c0.106,0.135,0.19,0.286,0.288,0.428
			c0.238,0.345,0.265,0.539-0.267,0.577c-1.812,0.13-3.612,0.341-5.373,0.826c-2.496,0.688-4.78,1.779-6.775,3.444
			C76.048,66.422,75.337,67.464,74.791,68.649z"/>
		<path class="st9" d="M50.094,47.902c-1.67,0.016-3.339,0.039-5.009,0.048c-2.433,0.012-4.866,0.016-7.299,0.019
			c-1.38,0.002-2.914-1.667-2.788-3.012c0.022-0.238,0.103-0.367,0.345-0.375c0.074-0.002,0.147-0.005,0.221-0.005
			c4.645,0.009,9.289,0.019,13.934,0.028C49.789,45.687,50.207,46.746,50.094,47.902z"/>
		<path class="st9" d="M85.019,66.44c1.515,0.058,3.274,1.496,3.885,3.177c1.101,3.027-0.382,6.112-3.423,7.124
			c-0.186,0.062-0.37,0.129-0.554,0.193c-0.415-0.004-0.831-0.007-1.246-0.012c-3.78-0.046-6.28-4.118-4.642-7.558
			c0.631,1.16,1.217,2.348,1.905,3.473c0.733,1.199,1.87,1.735,3.264,1.51c1.412-0.228,2.34-1.076,2.701-2.48
			c0.217-0.846,0.063-1.651-0.341-2.42C86.044,68.448,85.534,67.442,85.019,66.44z"/>
		<path class="st3" d="M79.038,69.364c-1.638,3.44,0.862,7.511,4.642,7.558c0.415,0.005,0.831,0.008,1.246,0.012
			c-0.415,0.958-1.22,1.567-1.978,2.22c-0.236,0.203-0.592,0.271-0.703,0.615c-3.227-0.451-6.153-3.499-6.64-6.843
			c-0.124-0.848-0.152-1.565,0.586-2.181c0.3-0.25,0.437-0.7,0.634-1.067c0.233-0.432,0.414-0.895,0.682-1.303
			c0.549-0.835,0.639-0.821,1.091,0.063C78.755,68.741,78.892,69.055,79.038,69.364z"/>
		<path class="st2" d="M30.633,73.094c3.387-0.002,6.775-0.005,10.162-0.007c0.039,0.361-0.137,0.655-0.292,0.958
			c-0.781,1.529-2.081,2.392-3.68,2.87c-0.564-0.001-1.128,0.016-1.69-0.007C33.115,76.827,30.918,74.924,30.633,73.094z"/>
		<path class="st3" d="M36.824,76.916c1.6-0.478,2.899-1.341,3.68-2.87c0.155-0.303,0.331-0.597,0.292-0.958
			c0.881-0.004,1.763,0.005,2.643-0.018c0.398-0.01,0.507,0.106,0.427,0.513c-0.63,3.186-3.876,6.041-7.114,6.308
			c-0.933,0.077-1.838,0.075-2.743-0.152c0.186-0.15,0.376-0.296,0.559-0.45C35.41,78.584,36.313,77.936,36.824,76.916z"/>
		<path class="st3" d="M36.824,76.916c-0.511,1.02-1.414,1.668-2.256,2.374c-0.183,0.154-0.372,0.3-0.559,0.45
			c-2.963-0.418-5.854-3.231-6.435-6.228c-0.083-0.428,0.097-0.443,0.411-0.438c0.883,0.014,1.766,0.015,2.649,0.021
			c0.284,1.83,2.482,3.733,4.5,3.814C35.696,76.932,36.26,76.914,36.824,76.916z"/>
		<path class="st0" d="M73.864,41.029c-1.812,0.009-3.623,0.01-5.435,0.032c-0.376,0.005-0.5-0.12-0.519-0.502
			c-0.085-1.643-0.097-1.642,1.47-2.033c1.493-0.372,2.986-0.747,4.479-1.12C73.861,38.613,73.863,39.821,73.864,41.029z"/>
		<path class="st3" d="M50.094,47.902c0.113-1.155-0.305-2.215-0.596-3.297c1.003-0.025,2.015-0.146,2.999,0.144
			c1.432,0.422,2.414,1.36,3.013,2.715c0.122,0.276,0.214,0.516-0.265,0.502C53.528,47.917,51.809,48.038,50.094,47.902z"/>
		<path class="st9" d="M84.776,71.07c-0.005,0.532-0.26,0.83-0.672,1.019c-0.405,0.185-0.774,0.112-1.074-0.202
			c-0.167-0.174-0.309-0.38-0.423-0.594c-0.793-1.491-1.564-2.994-2.37-4.478c-0.232-0.427-0.211-0.659,0.242-0.928
			c1.332-0.79,1.317-0.81,2.03,0.568c0.663,1.283,1.332,2.563,1.997,3.845C84.64,70.561,84.791,70.817,84.776,71.07z"/>
		<path class="st9" d="M73.864,41.029c-0.002-1.208-0.004-2.416-0.006-3.624c0.962-0.248,1.924-0.497,2.948-0.762
			c0,1.394-0.009,2.713,0.006,4.031c0.004,0.357-0.177,0.388-0.455,0.382C75.527,41.04,74.696,41.037,73.864,41.029z"/>
		<path class="st3" d="M64.419,34.438c-1.47,0-2.843-0.007-4.217,0.004c-0.442,0.003-0.612-0.217-0.636-0.626
			c-0.029-0.482,0.313-0.405,0.598-0.408c0.86-0.008,1.724,0.044,2.578-0.031C63.547,33.305,64.036,33.628,64.419,34.438z"/>
	</g>
	<rect y="0" class="st4" width="113.386" height="113.386"/>
</g>
</svg>
