<?xml version="1.0" encoding="utf-8"?>
<!-- Generator: Adobe Illustrator 26.4.1, SVG Export Plug-In . SVG Version: 6.00 Build 0)  -->
<svg version="1.1" id="Layer_1" xmlns="http://www.w3.org/2000/svg" xmlns:xlink="http://www.w3.org/1999/xlink" x="0px" y="0px"
	 viewBox="0 0 113.386 113.386" style="enable-background:new 0 0 113.386 113.386;" xml:space="preserve">
<style type="text/css">
	.st0{fill:#40A578;}
	.st1{fill:#9DDE8B;}
	.st2{fill:#FEFEFE;}
	.st3{fill:#E1E1E1;}
	.st4{fill:none;}
	.st5{fill:#030304;}
	.st6{fill:#030405;}
	.st7{fill:#010303;}
	.st8{fill:#010202;}
	.st9{fill:#FCFCFC;}
	.st10{fill:#FBFBFB;}
	.st11{fill:#FAFAFA;}
	.st12{fill:#D5D3D6;}
	.st13{fill:#817A83;}
	.st14{fill:#040404;}
	.st15{fill:#030303;}
	.st16{fill:#040506;}
	.st17{fill:#020202;}
	.st18{fill:#030404;}
	.st19{fill:#060708;}
	.st20{fill:#020102;}
	.st21{fill:#020303;}
	.st22{fill:#050606;}
	.st23{fill:#F7F5F5;}
	.st24{fill:#5D5B68;}
	.st25{fill:#54525E;}
	.st26{fill:#52505C;}
	.st27{fill:#221F27;}
	.st28{fill:#221F28;}
	.st29{fill:#010101;}
	.st30{fill:#BBE973;}
	.st31{fill:#98D43B;}
	.st32{fill:#BBE972;}
	.st33{fill:#D9DCE5;}
	.st34{fill:#1B97A6;}
</style>
<g>
	<rect class="st4" width="113.386" height="113.386"/>
	<g>
		<path class="st21" d="M104.296,17.085c-2.633-5.563-7.221-8.56-13.187-9.58C85.411,6.529,79.881,7.48,74.432,9.109
			c-5.069,1.515-9.847,3.735-14.624,6.343c0.096-0.629,0.159-1.143,0.252-1.649c0.287-1.533,0.345-3.068,0.171-4.619
			c-0.131-1.165-0.705-1.805-1.903-1.933c-5.104-0.549-9.446,1.087-13.088,4.654c-1.382,1.352-2.759,2.716-4.098,4.11
			c-0.461,0.478-0.8,0.594-1.457,0.274c-5.724-2.789-11.47-5.525-17.211-8.273c-1.606-0.77-2.069-0.692-3.325,0.561
			c-1.029,1.024-2.059,2.046-3.078,3.078c-1.291,1.309-1.226,2.442,0.224,3.559c4.135,3.184,8.278,6.36,12.419,9.539
			c0.69,0.513,1.379,1.024,2.102,1.563c-3.053,3.056-6.056,6.041-9.034,9.056c-0.564,0.569-1.133,0.179-1.707,0.164
			c-1.86-0.151-3.723-0.289-5.583-0.461c-0.745-0.068-1.442,0.033-1.976,0.554c-1.616,1.578-3.199,3.184-4.785,4.79
			c-0.219,0.221-0.373,0.506-0.556,0.758v1.163c0.561,0.899,1.425,1.294,2.421,1.53c1.216,0.289,2.411,0.672,3.627,0.969
			c0.516,0.126,0.737,0.239,0.576,0.873c-1.196,4.714-1.649,9.502-1.228,14.357c0.065,0.768,0.058,1.561,0.252,2.296
			c0.405,1.54-0.045,2.859-0.68,4.241C9.702,71.921,7.97,77.448,7.369,83.292c-0.013,0.133-0.961,3.66,0.692,9.962
			c1.8,6.863,6.524,10.681,13.292,12.391c1.764,0.446,7.035,1.186,12.109-0.055c4.742-1.16,9.414-2.419,13.791-4.563
			c1.399-0.687,2.698-0.594,4.105-0.413c7.168,0.921,14.136,0.068,20.909-2.439c3.365-1.246,6.511-2.915,9.482-4.923
			c1.13-0.763,1.314-1.535,0.748-2.915c-1.17-0.984-1.792-1.037-3.096-0.161c-2.623,1.764-5.407,3.214-8.359,4.334
			c-0.297,0.113-0.609,0.186-0.914,0.277c-1.727,0.73-3.544,1.13-5.477,1.545c0-1.369,0.02-2.681-0.003-3.992
			c-0.068-3.901-2.268-6.796-5.955-7.843c-0.843-0.239-1.714-0.282-2.582-0.287c-2.645-0.013-5.291,0.005-7.936-0.008
			c-2.746-0.013-4.219-1.404-4.43-4.156c-0.244-3.187-2.515-5.328-5.719-5.384c-0.871-0.015-1.742,0.015-2.613-0.008
			c-2.957-0.076-5.165-2.197-5.225-5.004c-0.058-2.895,2.029-5.077,5.037-5.258c2.064-0.123,3.121-1.125,3.327-3.151
			c0.169-1.649,1.211-2.628,2.884-2.635c3.451-0.018,6.902-0.01,10.352-0.005c3.494,0.005,5.615,2.079,5.656,5.568
			c0.028,2.452-0.003,4.903,0.008,7.355c0.013,3.254,1.812,5.082,5.059,5.167c0.71,0.018,1.422-0.003,2.127,0.073
			c1.976,0.211,3.441,1.744,3.521,3.725c0.058,1.447,0.018,2.902,0.03,4.352c0.013,1.578,0.43,2.124,1.938,2.542
			c1.545-0.413,1.926-0.904,1.933-2.522c0.008-1.226,0.008-2.452,0-3.677c-0.03-4.979-3.292-8.301-8.281-8.372
			c-2.731-0.038-2.429,0.161-2.464-2.555c-0.03-2.416,0.081-4.833-0.088-7.252c-0.31-4.498-4.042-8.193-8.87-8.266
			c-3.71-0.055-7.42-0.05-11.128,0.003c-3.194,0.043-5.663,2.069-6.348,5.19c-0.156,0.712-0.622,0.644-1.052,0.72
			c-4.82,0.868-7.981,5.072-7.453,9.927c0.488,4.475,4.269,7.815,9.011,7.949c0.71,0.023,1.42,0.003,2.129,0.005
			c1.749,0.005,2.225,0.44,2.394,2.172c0.297,3.028,1.774,5.256,4.508,6.622c1.211,0.607,2.514,0.758,3.851,0.755
			c2.58-0.003,5.16-0.003,7.74,0c3.209,0.003,4.765,1.545,4.767,4.724c0.003,1.13-0.018,2.26,0.01,3.388
			c0.013,0.488-0.058,0.73-0.647,0.775c-8.578,0.659-16.597-1.143-23.995-5.517c-7.707-4.558-13.275-11.032-16.771-19.278
			c-0.906-2.137-1.561-4.357-2.102-6.612c-0.078-0.317-0.091-0.614,0.078-0.931c1.639-3.106,3.4-6.141,5.329-9.076
			c0.028-0.043,0.103-0.058,0.249-0.136c0.297,1.057,0.581,2.097,0.883,3.131c0.526,1.792,2.127,2.25,3.471,0.954
			c1.488-1.432,2.925-2.915,4.39-4.37c0.597-0.591,0.775-1.301,0.7-2.114c-0.189-2.021-0.342-4.047-0.561-6.066
			c-0.068-0.632,0.068-1.072,0.534-1.53c2.739-2.688,5.442-5.414,8.158-8.125c0.201-0.201,0.415-0.39,0.659-0.617
			c3.124,4.08,6.217,8.122,9.313,12.167c0.647,0.843,1.271,1.707,1.943,2.53c0.926,1.135,2.112,1.231,3.176,0.219
			c1.238-1.178,2.439-2.396,3.63-3.624c0.861-0.891,0.919-1.55,0.31-2.819c-2.751-5.744-5.49-11.495-8.283-17.221
			c-0.365-0.745-0.242-1.128,0.289-1.717c3.645-4.052,8.467-6.345,13.104-8.923c0.312-0.174,0.607-0.179,0.929-0.103
			c8.173,1.888,15.13,5.887,20.856,12.019c0.038,0.04,0.04,0.116,0.108,0.32c-1.349,0-2.65-0.033-3.952,0.008
			c-5.006,0.151-9.129,3.516-10.285,8.387c-0.146,0.622-0.219,1.269-0.259,1.91c-0.091,1.445-0.423,1.825-1.842,1.933
			c-2.348,0.179-4.256,1.175-5.711,3.025c-1.072,1.364-1.561,2.93-1.629,4.656c-0.086,2.142,0.171,4.186,1.515,5.955
			c1.586,2.087,3.715,3.164,6.32,3.184c4.936,0.038,9.872,0.02,14.805,0.005c1.334-0.003,1.9-0.524,2.235-1.928
			c-0.355-1.472-0.919-1.936-2.429-1.936c-4.873-0.008-9.743,0.015-14.614-0.013c-2.089-0.013-3.705-1.472-3.914-3.423
			c-0.332-3.091,0.654-4.974,2.927-5.555c0.37-0.093,0.763-0.101,1.148-0.138c2.93-0.282,4.823-2.225,5.034-5.165
			c0.317-4.453,3.086-6.992,7.569-7.058c1.956-0.028,3.934,0.289,5.87-0.227c0.44-0.118,0.473,0.254,0.614,0.458
			c3.184,4.583,5.339,9.61,6.436,15.082c0.529,2.63,0.816,5.286,0.783,7.974c0.038,6.101-1.331,11.89-3.904,17.408
			c-0.201,0.435-0.438,0.856-0.649,1.286c-0.717,1.46-0.622,2.031,0.531,3.139c1.5,0.398,2.167,0.091,2.887-1.304
			c4.002-7.757,5.724-16.003,4.76-24.672c-0.297-2.666,0.093-4.911,1.175-7.292c2.061-4.523,3.438-9.288,4.055-14.239
			C106.607,26.219,106.388,21.505,104.296,17.085z M42.728,98.78c-5.218,2.082-10.458,3.572-16.021,3.559
			c-3.368-0.008-6.61-0.617-9.489-2.482c-3.874-2.512-5.558-6.295-6.008-10.725c-0.604-5.915,0.833-11.503,2.824-16.995
			c0.141-0.393,0.305-0.775,0.463-1.163c0.023-0.058,0.07-0.103,0.148-0.211C19.624,84.485,29,93.773,42.728,98.78z M21.343,50.609
			c-1.684,2.462-3.348,4.938-4.943,7.483c-0.206-3.909,0.194-7.722,1.153-11.478c0.101-0.398,0.242-0.546,0.644-0.408
			c0.785,0.264,1.92,0.164,2.306,0.775c0.576,0.909,0.695,2.109,0.984,3.192C21.522,50.297,21.429,50.486,21.343,50.609z
			 M56.448,11.88c-0.317,2.937-1.467,5.447-3.551,7.531c-1.8,1.805-3.604,3.604-5.404,5.409c-1.11,1.115-1.203,1.681-0.524,3.101
			c2.751,5.741,5.505,11.48,8.256,17.221c0.378,0.788-0.015,1.865-0.803,2.15c-0.393,0.141-0.456-0.267-0.602-0.458
			c-2.384-3.086-4.75-6.187-7.121-9.283c-1.175-1.538-2.338-3.081-3.526-4.609c-1.123-1.445-2.265-1.523-3.562-0.232
			c-3.66,3.642-7.299,7.302-10.962,10.936c-0.594,0.592-0.871,1.246-0.798,2.074c0.156,1.767,0.131,3.572,0.498,5.291
			c0.357,1.671-0.375,2.603-1.636,3.489c-0.644-2.333-1.284-4.649-1.92-6.967c-0.211-0.775-0.433-1.55-0.619-2.331
			c-0.252-1.05-0.881-1.636-1.936-1.913c-3.078-0.808-6.142-1.674-9.255-2.53c0.826-1.261,1.762-1.978,3.406-1.659
			c1.701,0.33,3.461,0.35,5.195,0.521c0.894,0.091,1.603-0.176,2.25-0.831c3.564-3.599,7.156-7.171,10.735-10.755
			c1.561-1.561,1.485-2.58-0.297-3.942c-4.453-3.411-8.913-6.811-13.353-10.239c-0.282-0.216-1.067-0.378-0.627-0.891
			c0.41-0.478,0.69-1.41,1.802-0.866c5.688,2.786,11.412,5.5,17.123,8.241c1.83,0.876,2.235,0.813,3.65-0.602
			c1.712-1.709,3.426-3.418,5.132-5.132c2.079-2.092,4.594-3.26,7.516-3.589C56.199,10.938,56.543,10.986,56.448,11.88z
			 M100.797,37.07c-0.534,1.88-1.246,3.71-1.918,5.688C93.853,28.935,84.548,19.567,70.757,14.55
			c3.677-1.47,7.342-2.623,11.178-3.189c3.378-0.498,6.751-0.599,10.076,0.284c5.691,1.513,8.95,5.293,10.02,11.022
			C102.947,27.576,102.134,32.356,100.797,37.07z"/>
		<path class="st1" d="M87.14,86.247c-1.501,1.416-3.002,2.833-4.642,4.091c-1.173-0.984-1.794-1.039-3.098-0.162
			c-2.623,1.764-5.405,3.213-8.359,4.334c-0.296,0.113-0.608,0.186-0.913,0.277c0-2.467,0-4.934,0-7.402
			c1.546-0.415,1.926-0.906,1.934-2.522c0.006-1.226,0.008-2.452,0-3.677c-0.031-4.979-3.293-8.302-8.282-8.372
			c-2.731-0.038-2.428,0.161-2.463-2.555c-0.031-2.417,0.079-4.833-0.088-7.252c-0.311-4.498-4.044-8.193-8.871-8.265
			c-3.709-0.056-7.419-0.05-11.128,0.001c-3.193,0.044-5.663,2.07-6.347,5.191c-0.156,0.71-0.621,0.642-1.052,0.72
			c-4.82,0.868-7.982,5.07-7.453,9.925c0.488,4.475,4.268,7.815,9.01,7.95c0.709,0.02,1.419,0.002,2.129,0.004
			c1.749,0.004,2.227,0.44,2.396,2.172c0.295,3.028,1.774,5.256,4.506,6.622c1.211,0.605,2.515,0.758,3.85,0.756
			c2.581-0.005,5.161-0.003,7.742-0.001c3.209,0.003,4.764,1.546,4.767,4.725c0.001,1.129-0.019,2.258,0.009,3.387
			c0.012,0.489-0.057,0.729-0.647,0.775c-8.576,0.661-16.597-1.142-23.993-5.517c-7.708-4.559-13.276-11.031-16.771-19.277
			c-0.906-2.137-1.562-4.358-2.103-6.613c-0.076-0.317-0.09-0.614,0.078-0.932c1.639-3.106,3.4-6.139,5.329-9.074
			c0.029-0.044,0.103-0.059,0.248-0.137c0.299,1.058,0.583,2.097,0.885,3.131c0.525,1.794,2.127,2.25,3.471,0.954
			c1.486-1.433,2.923-2.916,4.389-4.369c0.597-0.591,0.774-1.302,0.699-2.114c-0.188-2.022-0.341-4.048-0.56-6.067
			c-0.068-0.632,0.066-1.071,0.532-1.529c2.738-2.69,5.441-5.415,8.158-8.127c0.202-0.201,0.416-0.39,0.659-0.616
			c3.123,4.08,6.218,8.123,9.313,12.167c0.647,0.845,1.272,1.707,1.944,2.53c0.926,1.135,2.112,1.23,3.175,0.219
			c1.239-1.178,2.44-2.396,3.629-3.624c0.863-0.891,0.919-1.551,0.312-2.819c-2.752-5.745-5.49-11.497-8.285-17.221
			c-0.364-0.746-0.24-1.129,0.289-1.717c3.644-4.052,8.467-6.346,13.105-8.924c0.311-0.173,0.606-0.178,0.929-0.104
			c8.173,1.889,15.129,5.888,20.855,12.02c0.038,0.041,0.041,0.114,0.109,0.32c-1.349,0-2.651-0.034-3.951,0.006
			c-5.008,0.153-9.132,3.516-10.285,8.386c-0.148,0.623-0.221,1.27-0.26,1.911c-0.09,1.445-0.422,1.824-1.843,1.933
			c-2.346,0.179-4.256,1.176-5.71,3.027c-1.072,1.364-1.56,2.93-1.629,4.656c-0.086,2.142,0.172,4.186,1.515,5.954
			c1.587,2.088,3.717,3.164,6.322,3.184c4.935,0.038,9.87,0.02,14.806,0.007c1.334-0.004,1.898-0.524,2.234-1.93
			c3.141,0,6.282,0,9.423,0c0.039,6.103-1.331,11.891-3.903,17.408c-0.203,0.436-0.438,0.856-0.65,1.287
			c-0.718,1.46-0.62,2.03,0.531,3.138c-1.113,1.584-2.131,3.233-3.356,4.737c-0.765-0.419-1.528-0.639-2.335-0.079
			C86.39,83.889,86.282,84.917,87.14,86.247z"/>
		<path class="st0" d="M70.128,87.386c0,2.467,0,4.934,0,7.402c-1.727,0.73-3.545,1.13-5.477,1.545c0-1.368,0.019-2.681-0.004-3.993
			c-0.067-3.9-2.269-6.795-5.956-7.843c-0.842-0.239-1.714-0.282-2.583-0.286c-2.645-0.012-5.29,0.005-7.935-0.008
			c-2.745-0.013-4.218-1.406-4.43-4.156c-0.245-3.187-2.515-5.327-5.72-5.383c-0.871-0.015-1.742,0.015-2.613-0.007
			c-2.956-0.075-5.165-2.198-5.224-5.004c-0.06-2.896,2.028-5.078,5.035-5.259c2.065-0.124,3.122-1.125,3.328-3.152
			c0.168-1.649,1.211-2.627,2.884-2.635c3.451-0.016,6.903-0.008,10.354-0.004c3.493,0.004,5.614,2.079,5.654,5.568
			c0.028,2.451-0.003,4.903,0.008,7.354c0.014,3.253,1.813,5.081,5.061,5.167c0.709,0.019,1.422-0.002,2.125,0.073
			c1.978,0.212,3.442,1.744,3.522,3.724c0.058,1.449,0.019,2.902,0.03,4.354C68.201,86.422,68.62,86.966,70.128,87.386z"/>
		<path class="st9" d="M26.713,54.501c-0.643-2.333-1.282-4.651-1.919-6.969c-0.213-0.775-0.434-1.549-0.621-2.331
			c-0.25-1.047-0.88-1.635-1.933-1.911c-3.079-0.808-6.143-1.675-9.255-2.53c0.825-1.261,1.761-1.979,3.405-1.659
			c1.7,0.331,3.461,0.349,5.193,0.522c0.895,0.089,1.605-0.177,2.252-0.831c3.563-3.6,7.154-7.172,10.734-10.754
			c1.56-1.561,1.484-2.581-0.297-3.944c-4.454-3.409-8.914-6.81-13.353-10.238c-0.281-0.217-1.066-0.378-0.626-0.891
			c0.409-0.477,0.69-1.41,1.802-0.865c5.688,2.786,11.412,5.499,17.123,8.239c1.829,0.878,2.236,0.813,3.65-0.6
			c1.711-1.71,3.426-3.418,5.132-5.133c2.08-2.092,4.594-3.259,7.516-3.589c0.68-0.077,1.025-0.03,0.93,0.865
			c-0.315,2.938-1.466,5.445-3.549,7.531c-1.801,1.803-3.606,3.602-5.405,5.408c-1.109,1.114-1.204,1.682-0.524,3.101
			c2.751,5.741,5.505,11.481,8.257,17.221c0.378,0.787-0.016,1.866-0.803,2.15c-0.393,0.142-0.456-0.267-0.602-0.456
			c-2.383-3.087-4.75-6.187-7.121-9.285c-1.175-1.536-2.34-3.08-3.526-4.608c-1.122-1.445-2.266-1.522-3.563-0.231
			c-3.658,3.642-7.298,7.301-10.962,10.937c-0.594,0.59-0.87,1.246-0.796,2.073c0.157,1.766,0.129,3.571,0.497,5.291
			C28.707,52.683,27.976,53.615,26.713,54.501z"/>
		<path class="st0" d="M97.157,56.666c-3.141,0-6.282,0-9.423,0c-0.354-1.472-0.919-1.934-2.43-1.935
			c-4.871-0.006-9.742,0.015-14.613-0.012c-2.089-0.012-3.705-1.472-3.913-3.423c-0.331-3.09,0.654-4.973,2.928-5.553
			c0.37-0.095,0.764-0.101,1.147-0.139c2.931-0.283,4.824-2.225,5.034-5.166c0.318-4.453,3.086-6.993,7.569-7.058
			c1.956-0.028,3.933,0.29,5.869-0.226c0.442-0.118,0.474,0.255,0.614,0.457c3.184,4.583,5.339,9.61,6.437,15.083
			C96.903,51.323,97.191,53.98,97.157,56.666z"/>
		<path class="st1" d="M16.4,58.091c-0.207-3.908,0.194-7.72,1.151-11.476c0.102-0.398,0.243-0.546,0.646-0.409
			c0.785,0.265,1.919,0.164,2.306,0.776c0.575,0.908,0.695,2.108,0.984,3.191c0.033,0.125-0.058,0.312-0.143,0.436
			C19.658,53.07,17.996,55.546,16.4,58.091z"/>
		<path class="st1" d="M20.075,35.536c1.136-2.291,2.701-4.284,4.307-6.253c1.325-1.625,2.899-3.007,4.329-4.528
			c0.691,0.513,1.381,1.025,2.104,1.562c-3.053,3.056-6.057,6.043-9.034,9.056C21.217,35.943,20.649,35.552,20.075,35.536z"/>
		<path class="st22" d="M87.14,86.247c-0.858-1.33-0.749-2.358,0.304-3.089c0.807-0.56,1.57-0.34,2.335,0.079
			c0.581,0.756,0.922,1.551,0.354,2.467c-0.444,0.717-1.086,1.039-1.94,0.977C87.78,86.652,87.502,86.362,87.14,86.247z"/>
	</g>
</g>
</svg>
