<?xml version="1.0" encoding="utf-8"?>
<!-- Generator: Adobe Illustrator 26.4.1, SVG Export Plug-In . SVG Version: 6.00 Build 0)  -->
<svg version="1.1" id="Layer_1" xmlns="http://www.w3.org/2000/svg" xmlns:xlink="http://www.w3.org/1999/xlink" x="0px" y="0px"
	 viewBox="0 0 113.386 113.386" style="enable-background:new 0 0 113.386 113.386;" xml:space="preserve">
<style type="text/css">
	.st0{fill:#40A578;}
	.st1{fill:#9DDE8B;}
	.st2{fill:#FEFEFE;}
	.st3{fill:#E1E1E1;}
	.st4{fill:none;}
	.st5{fill:#030304;}
	.st6{fill:#030405;}
	.st7{fill:#010303;}
	.st8{fill:#010202;}
	.st9{fill:#FCFCFC;}
	.st10{fill:#FBFBFB;}
	.st11{fill:#FAFAFA;}
	.st12{fill:#D5D3D6;}
	.st13{fill:#817A83;}
	.st14{fill:#040404;}
	.st15{fill:#030303;}
	.st16{fill:#040506;}
	.st17{fill:#020202;}
	.st18{fill:#030404;}
	.st19{fill:#060708;}
	.st20{fill:#020102;}
	.st21{fill:#020303;}
	.st22{fill:#050606;}
	.st23{fill:#F7F5F5;}
	.st24{fill:#5D5B68;}
	.st25{fill:#54525E;}
	.st26{fill:#52505C;}
	.st27{fill:#221F27;}
	.st28{fill:#221F28;}
	.st29{fill:#010101;}
	.st30{fill:#BBE973;}
	.st31{fill:#98D43B;}
	.st32{fill:#BBE972;}
	.st33{fill:#D9DCE5;}
	.st34{fill:#1B97A6;}
</style>
<g>
	<rect y="0" class="st4" width="113.386" height="113.386"/>
	<g>
		<path class="st15" d="M102.047,71.58c-0.673,1.589-1.893,2.191-3.582,2.102c-1.354-0.071-2.717,0.026-4.073-0.032
			c-0.669-0.028-0.873,0.177-0.961,0.839c-0.408,3.08-2.123,5.089-5.112,5.982c-3.472,1.037-7.386-1.069-8.421-4.567
			c-0.19-0.643-0.459-0.839-1.142-0.838c-10.452,0.027-20.904,0.022-31.356,0.01c-0.589-0.001-0.911,0.085-1.119,0.76
			c-0.783,2.547-2.562,4.146-5.135,4.726c-2.589,0.583-4.852-0.172-6.658-2.126c-0.409-0.443-0.568-0.522-1.013-0.029
			c-1.787,1.978-4.055,2.732-6.643,2.162c-2.648-0.584-4.43-2.235-5.223-4.863c-0.142-0.471-0.333-0.668-0.849-0.633
			c-0.764,0.052-1.536,0.039-2.302,0.006c-1.754-0.075-2.828-1.191-2.859-2.945c-0.011-0.649-0.06-1.306,0.014-1.947
			c0.082-0.713-0.212-0.856-0.837-0.794c-0.376,0.037-0.768-0.006-1.144-0.07c-1.303-0.22-2.197-1.231-2.283-2.554
			c-0.017-0.265-0.009-0.531-0.009-0.797c0-9.98-0.001-19.96,0-29.939c0-2.389,1.002-3.399,3.382-3.399
			c21.347-0.001,42.694-0.001,64.042,0c2.386,0,3.415,1.02,3.418,3.378c0.002,1.476,0.029,2.953-0.014,4.428
			c-0.017,0.584,0.156,0.73,0.731,0.726c3.838-0.026,7.677-0.011,11.515-0.016c0.387,0,0.774,0.003,1.133,0.149
			c0.899,0.364,1.112,1.513,0.34,2.165c-0.383,0.323-0.365,0.555-0.23,0.955c1.082,3.205,2.15,6.416,3.203,9.63
			c0.146,0.445,0.419,0.768,0.743,1.071c1.028,0.961,1.998,1.964,2.444,3.35C102.047,62.84,102.047,67.21,102.047,71.58z
			 M87.89,52.452c-0.008,0.764-0.005,1.528-0.027,2.291c-0.012,0.405,0.135,0.582,0.558,0.58c2.497-0.011,4.995-0.008,7.492-0.003
			c0.409,0.001,0.525-0.171,0.389-0.549c-0.277-0.772-0.547-1.546-0.82-2.32c-0.237-0.753-0.493-1.501-0.702-2.262
			c-0.134-0.486-0.413-0.631-0.897-0.618c-1.086,0.03-2.173-0.01-3.259,0.015c-0.874,0.02-2.031-0.379-2.55,0.156
			C87.48,50.354,87.918,51.525,87.89,52.452z M72.152,68.023c-0.14,1.085-0.557,1.396-1.921,1.396
			c-7.907,0.002-15.814,0.001-23.721,0.001c-0.236,0-0.472,0.005-0.708,0.001c-0.453-0.008-0.513,0.16-0.266,0.523
			c0.367,0.539,0.694,1.123,0.804,1.759c0.115,0.668,0.474,0.744,1.046,0.744c10.474-0.013,20.948-0.015,31.422,0.004
			c0.608,0.001,0.891-0.161,1.029-0.775c0.113-0.506,0.384-0.986,0.634-1.451c0.433-0.806,0.449-0.8-0.508-0.803
			c-1.033-0.004-2.066,0.021-3.098-0.008c-1.025-0.028-1.389-0.367-1.609-1.393c0.131-0.921,0.703-1.285,1.588-1.273
			c0.673,0.009,1.347-0.021,2.019,0.008c0.471,0.02,0.69-0.099,0.672-0.627c-0.044-1.256-0.035-2.514-0.047-3.772
			c0.01-0.058,0.029-0.116,0.029-0.174c0.003-8.738-0.003-17.476,0.02-26.214c0.002-0.672-0.319-0.681-0.813-0.681
			c-21.314,0.007-42.627,0.01-63.941-0.012c-0.724-0.001-0.796,0.268-0.794,0.874c0.019,6.347,0.009,12.694,0.013,19.041
			c0.001,2.391,0.017,4.781,0.026,7.172c-0.01,1.033-0.024,2.065-0.028,3.098c-0.005,1.288-0.001,1.288,1.245,1.288
			c18.215,0,36.43,0,54.646,0c0.295,0,0.591-0.003,0.886,0.005C71.602,66.776,72.113,67.145,72.152,68.023z M82.182,55.275
			c0,3.54,0.022,7.081-0.018,10.621c-0.008,0.721,0.212,0.898,0.89,0.862c1.03-0.055,2.064-0.009,3.097-0.015
			c2.942-0.018,5.164,1.209,6.577,3.815c0.177,0.326,0.379,0.462,0.757,0.458c1.77-0.018,3.54-0.021,5.31,0
			c0.464,0.006,0.613-0.146,0.604-0.609c-0.026-1.298-0.009-2.596-0.009-3.894c0-1.28,0-1.278-1.298-1.373
			c-0.175-0.013-0.351-0.044-0.521-0.087c-0.66-0.169-1.014-0.624-0.993-1.28c0.022-0.696,0.415-1.155,1.135-1.246
			c0.349-0.044,0.708-0.056,1.059-0.035c0.427,0.026,0.654-0.06,0.629-0.568c-0.04-0.824,0.009-1.652-0.017-2.478
			c-0.034-1.053-0.419-1.413-1.455-1.414c-3.157-0.001-6.314,0.006-9.47-0.003c-2.232-0.007-3.252-1.027-3.257-3.233
			c-0.004-2.095-0.008-4.189,0.002-6.284c0.006-1.182,0.465-1.651,1.664-1.669c1.445-0.022,2.892,0.019,4.337-0.016
			c0.778-0.019,1.853,0.367,2.248-0.181c0.334-0.463-0.392-1.384-0.559-2.124c-0.129-0.572-0.407-0.727-0.976-0.722
			c-2.95,0.028-5.901,0.043-8.85-0.007c-0.774-0.013-0.908,0.245-0.902,0.949C82.201,48.253,82.182,51.764,82.182,55.275z
			 M39.699,69.44c-2.427-0.009-4.356,1.861-4.386,4.252c-0.03,2.367,2.014,4.412,4.385,4.388c2.353-0.024,4.247-1.936,4.255-4.295
			C43.961,71.327,42.123,69.449,39.699,69.44z M86.611,69.441c-2.417-0.022-4.386,1.862-4.413,4.211
			c-0.026,2.208,1.499,4.404,4.309,4.406c2.607,0.002,4.236-1.876,4.352-4.309C90.969,71.463,88.936,69.463,86.611,69.441z
			 M32.607,73.805c0.011-2.418-1.874-4.327-4.26-4.372c-1.993-0.037-4.3,1.353-4.4,4.344c-0.075,2.234,2.014,4.34,4.29,4.306
			C31.024,78.041,32.633,75.857,32.607,73.805z M22.723,69.421c-1.415,0-2.653-0.002-3.891,0.002
			c-0.198,0.001-0.515-0.052-0.527,0.192c-0.041,0.852-0.301,1.867,0.062,2.519c0.407,0.732,1.505,0.19,2.293,0.292
			c0.322,0.042,0.72,0.132,0.84-0.39C21.705,71.143,22.14,70.342,22.723,69.421z"/>
		<path class="st0" d="M14.027,62.362c-0.009-2.391-0.024-4.781-0.026-7.172c-0.004-6.347,0.006-12.694-0.013-19.041
			c-0.002-0.606,0.07-0.875,0.794-0.874c21.314,0.021,42.627,0.018,63.941,0.012c0.495,0,0.815,0.009,0.813,0.681
			c-0.023,8.738-0.017,17.476-0.02,26.214c0,0.058-0.019,0.116-0.029,0.174c-0.986,0.004-1.973,0.009-2.959,0.013
			c-0.416-1.171-0.639-1.318-2.055-1.318c-15.821-0.001-31.641-0.001-47.462-0.001c-2.745,0-5.49,0.012-8.235-0.007
			c-0.953-0.007-1.601,0.324-1.784,1.32C16.004,62.364,15.015,62.363,14.027,62.362z"/>
		<path class="st1" d="M82.182,55.275c0-3.511,0.019-7.022-0.016-10.532c-0.007-0.703,0.128-0.962,0.902-0.949
			c2.949,0.049,5.9,0.035,8.85,0.007c0.569-0.005,0.847,0.149,0.976,0.722c0.166,0.74,0.892,1.661,0.559,2.124
			c-0.395,0.548-1.47,0.163-2.248,0.181c-1.445,0.035-2.891-0.006-4.337,0.016c-1.199,0.018-1.659,0.488-1.664,1.669
			c-0.01,2.095-0.006,4.189-0.002,6.284c0.004,2.206,1.025,3.226,3.257,3.233c3.157,0.009,6.314,0.002,9.47,0.003
			c1.035,0,1.421,0.36,1.455,1.414c0.027,0.825-0.023,1.653,0.017,2.478c0.025,0.508-0.203,0.594-0.629,0.568
			c-0.351-0.021-0.71-0.009-1.059,0.035c-0.72,0.091-1.113,0.551-1.135,1.246c-0.021,0.656,0.333,1.112,0.993,1.28
			c0.17,0.044,0.346,0.074,0.521,0.087c1.298,0.095,1.298,0.093,1.298,1.373c0,1.298-0.017,2.597,0.009,3.894
			c0.009,0.463-0.141,0.615-0.604,0.609c-1.77-0.021-3.54-0.019-5.31,0c-0.378,0.004-0.58-0.132-0.757-0.458
			c-1.413-2.606-3.635-3.833-6.577-3.815c-1.033,0.006-2.067-0.04-3.097,0.015c-0.678,0.036-0.898-0.141-0.89-0.862
			C82.204,62.356,82.182,58.815,82.182,55.275z"/>
		<path class="st1" d="M14.027,62.362c0.989,0.001,1.978,0.001,2.966,0.002c0.343,1.109,0.649,1.355,1.845,1.355
			c18.61,0.004,37.221,0.004,55.831,0c1.181,0,1.471-0.23,1.86-1.35c0.986-0.004,1.973-0.009,2.959-0.013
			c0.012,1.257,0.004,2.516,0.047,3.772c0.018,0.528-0.201,0.647-0.672,0.627c-0.672-0.029-1.346,0.001-2.019-0.008
			c-0.885-0.012-1.457,0.352-1.588,1.273c-1.035,0.001-2.069,0.002-3.104,0.003c-0.04-0.878-0.551-1.247-1.377-1.27
			c-0.295-0.008-0.59-0.005-0.886-0.005c-18.215,0-36.43,0-54.646,0c-1.246,0-1.25,0-1.245-1.288
			C14.003,64.428,14.017,63.395,14.027,62.362z"/>
		<path class="st2" d="M72.152,68.023c1.035-0.001,2.069-0.002,3.104-0.003c0.22,1.026,0.584,1.365,1.609,1.393
			c1.032,0.029,2.065,0.004,3.098,0.008c0.957,0.003,0.941-0.002,0.508,0.803c-0.25,0.465-0.521,0.945-0.634,1.451
			c-0.137,0.614-0.421,0.776-1.029,0.775c-10.474-0.018-20.948-0.017-31.422-0.004c-0.572,0.001-0.931-0.076-1.046-0.744
			c-0.11-0.636-0.436-1.22-0.804-1.759c-0.247-0.363-0.187-0.531,0.266-0.523c0.236,0.004,0.472-0.001,0.708-0.001
			c7.907,0,15.814,0.001,23.721-0.001C71.595,69.419,72.012,69.109,72.152,68.023z"/>
		<path class="st3" d="M39.699,69.44c2.423,0.009,4.261,1.887,4.253,4.345c-0.008,2.36-1.902,4.272-4.255,4.295
			c-2.371,0.024-4.415-2.022-4.385-4.388C35.343,71.301,37.273,69.431,39.699,69.44z M40.94,73.8
			c0.015-0.798-0.443-1.311-1.198-1.343c-0.778-0.032-1.415,0.54-1.409,1.267c0.005,0.667,0.627,1.307,1.299,1.338
			C40.316,75.095,40.927,74.505,40.94,73.8z"/>
		<path class="st3" d="M86.611,69.441c2.324,0.021,4.357,2.022,4.248,4.307c-0.116,2.433-1.744,4.311-4.352,4.309
			c-2.81-0.002-4.335-2.198-4.309-4.406C82.226,71.304,84.195,69.419,86.611,69.441z M86.513,72.456
			c-0.716,0.008-1.298,0.583-1.294,1.278c0.004,0.712,0.595,1.328,1.277,1.33c0.691,0.002,1.374-0.683,1.362-1.365
			C87.845,73.031,87.215,72.448,86.513,72.456z"/>
		<path class="st3" d="M32.607,73.805c0.025,2.052-1.583,4.236-4.37,4.278c-2.276,0.034-4.365-2.072-4.29-4.306
			c0.1-2.991,2.408-4.381,4.4-4.344C30.733,69.478,32.618,71.387,32.607,73.805z M29.594,73.747c0.012-0.762-0.467-1.26-1.239-1.289
			c-0.749-0.028-1.359,0.531-1.387,1.272c-0.025,0.656,0.673,1.335,1.369,1.333C29.024,75.061,29.582,74.476,29.594,73.747z"/>
		<path class="st2" d="M95.482,52.451c0.273,0.773,0.543,1.548,0.82,2.32c0.136,0.378,0.02,0.55-0.389,0.549
			c-2.497-0.004-4.995-0.007-7.492,0.003c-0.423,0.002-0.57-0.175-0.558-0.58c0.023-0.763,0.02-1.527,0.027-2.291
			C90.421,52.452,92.952,52.451,95.482,52.451z"/>
		<path class="st3" d="M95.482,52.451c-2.531,0.001-5.061,0.001-7.592,0.002c0.028-0.928-0.41-2.098,0.183-2.711
			c0.518-0.535,1.675-0.136,2.55-0.156c1.086-0.025,2.173,0.014,3.259-0.015c0.485-0.013,0.764,0.132,0.897,0.618
			C94.989,50.949,95.246,51.697,95.482,52.451z"/>
		<path class="st2" d="M22.723,69.421c-0.583,0.921-1.018,1.722-1.223,2.615c-0.12,0.521-0.518,0.431-0.84,0.39
			c-0.788-0.102-1.886,0.44-2.293-0.292c-0.363-0.652-0.104-1.667-0.062-2.519c0.012-0.244,0.329-0.191,0.527-0.192
			C20.07,69.419,21.308,69.421,22.723,69.421z"/>
		<path class="st16" d="M76.529,62.37c-0.39,1.12-0.679,1.35-1.86,1.35c-18.61,0.004-37.221,0.004-55.831,0
			c-1.196,0-1.502-0.246-1.845-1.355c0.184-0.996,0.831-1.327,1.784-1.32c2.745,0.019,5.49,0.007,8.235,0.007
			c15.821,0,31.641,0,47.462,0.001C75.89,61.051,76.113,61.199,76.529,62.37z"/>
		<path class="st17" d="M40.94,73.8c-0.013,0.705-0.624,1.295-1.308,1.263c-0.672-0.031-1.294-0.672-1.299-1.338
			c-0.006-0.727,0.631-1.3,1.409-1.267C40.497,72.489,40.954,73.002,40.94,73.8z"/>
		<path class="st17" d="M86.513,72.456c0.702-0.008,1.332,0.574,1.345,1.243c0.013,0.682-0.67,1.366-1.362,1.365
			c-0.682-0.002-1.274-0.618-1.277-1.33C85.215,73.039,85.797,72.464,86.513,72.456z"/>
		<path class="st17" d="M29.594,73.747c-0.012,0.73-0.571,1.315-1.258,1.317c-0.696,0.002-1.394-0.678-1.369-1.333
			c0.028-0.741,0.638-1.3,1.387-1.272C29.128,72.487,29.606,72.985,29.594,73.747z"/>
	</g>
</g>
</svg>
